<svg xmlns="http://www.w3.org/2000/svg" xmlns:xlink="http://www.w3.org/1999/xlink" width="24" height="24" viewBox="0 0 24 24" fill="none"><g opacity="1"  transform="translate(0 0)"><mask id="bg-mask-0" fill="white"><use transform="translate(0 0)" xlink:href="#path_0"></use></mask><g mask="url(#bg-mask-0)" ><path id="路径 1" fill-rule="evenodd" style="fill:#E5E5E5" opacity="1" d="M4.1201 16.135L4.1201 16.9499L6.0272 18.3022C6.2006 18.4236 6.40865 18.4929 6.59936 18.4929C6.80742 18.4929 6.99813 18.4236 7.17149 18.3022L9.07863 16.9499L9.07863 16.135L9.58143 16.135L9.58143 16.6031L10.1536 16.187C10.4136 15.9963 10.5697 15.7016 10.5697 15.3895L10.5697 13.257L10.0669 13.1703L10.0669 13.6557L9.56409 13.6557L9.56409 15.3895L6.59936 17.5047L3.61731 15.3722L3.61731 13.6384L3.11451 13.6384L3.11451 13.1356L3.61731 13.1356L3.61731 10.6737L3.11451 10.6737L3.11451 10.1709L3.61731 10.1709L3.61731 7.46623L3.11451 7.46623L3.11451 6.96345L3.61731 6.96345L3.61731 4.74422L5.5938 4.74422C5.03899 4.74422 4.60556 4.29345 4.60556 3.75598L3.61731 3.75598C3.0625 3.75598 2.62907 4.20678 2.62907 4.74422L2.62907 15.3895C2.62907 15.7016 2.7851 16.0136 3.04516 16.187L3.61731 16.6031L3.61731 16.135L4.1201 16.135ZM7.5876 4.74422L9.56409 4.74422L9.56409 6.98077L10.0669 6.98077L10.0669 7.4836L9.56409 7.4836L9.56409 9.61611L10.5523 9.80682L10.5523 4.74422C10.5523 4.18943 10.1016 3.75598 9.56409 3.75598L8.57585 3.75598C8.57585 4.29345 8.12507 4.74422 7.5876 4.74422ZM10.0149 13.1529L9.56409 13.0663L9.56409 13.1529L10.0149 13.1529ZM5.61112 4.74422L7.5876 4.74422C8.14242 4.74422 8.57585 4.29345 8.57585 3.75598L8.57585 1.76215C8.57585 1.20739 8.12507 0.773933 7.5876 0.773933L5.61112 0.773933C5.05633 0.773933 4.62288 1.22471 4.62288 1.76218L4.62288 3.73866C4.60553 4.29345 5.05633 4.74422 5.61112 4.74422ZM5.61112 1.76218L7.5876 1.76218L7.5876 3.73866L5.61112 3.73866L5.61112 1.76218ZM18.9784 17.1233L18.9784 20.5908L13.5344 20.5908L13.5344 17.1233L13.0316 17.1233L13.0316 20.5908L9.56409 20.5908L9.56409 16.135L9.07863 16.135L9.07863 20.5908L4.1201 20.5908L4.1201 16.135L3.61731 16.135L3.61731 20.5908L0.652588 20.5908L0.652588 21.579L23.4341 21.579L23.4341 20.5908L19.4812 20.5908L19.4812 17.1233L18.9784 17.1233ZM9.56409 10.1882L3.13185 10.1882L3.13185 10.6737L9.56409 10.6737L9.56409 13.0663L10.0149 13.1529L3.13185 13.1529L3.13185 13.6557L10.0669 13.6557L10.0669 13.1703L10.5523 13.257L12.0434 13.5344L12.0434 12.5288L10.5523 12.2514L10.5523 10.7777L12.0434 11.0551L12.0434 10.0495L10.5523 9.77213L9.56409 9.59876L9.56409 10.1882ZM22.4459 13.0663L22.4459 14.5226L20.4694 14.0892L20.4694 15.1121L23.4341 15.7536L23.4341 12.2687L20.4694 11.6273L20.4694 12.6328L22.4459 13.0663ZM19.4812 14.9041L19.4812 11.4019L19.4812 14.9041ZM17.3313 16.6205L15.1641 16.6205L15.4242 17.1233L17.0886 17.1233L17.3313 16.6205ZM12.0434 12.5288L12.0434 16.135C12.0434 16.6898 12.4941 17.1233 13.0316 17.1233L14.8694 17.1233L14.3666 16.135L13.0316 16.135L13.0316 5.73246L19.4638 5.73246L19.4638 16.135L18.1288 16.135L17.626 17.1233L19.4638 17.1233C20.0186 17.1233 20.4521 16.6725 20.4521 16.135L20.4521 5.74981C20.4521 5.19502 20.0013 4.76157 19.4638 4.76157L13.0316 4.76157C12.4768 4.76157 12.0434 5.21234 12.0434 5.74981L12.0434 12.5288L12.0434 12.5288ZM15.0601 10.1362L17.4527 10.1362L17.4527 7.76098L15.0601 7.76098L15.0601 10.1362ZM15.4589 8.15972L17.0366 8.15972L17.0366 9.73744L15.4589 9.73744L15.4589 8.15972ZM15.0601 14.1065L17.4527 14.1065L17.4527 11.7139L15.0601 11.7139L15.0601 14.1065ZM15.4589 12.13L17.0366 12.13L17.0366 13.7078L15.4589 13.7078L15.4589 12.13ZM16.8979 18.6143L17.6434 17.1233L18.1462 16.135L14.3666 16.135L14.8694 17.1233L15.6149 18.6143L16.8979 18.6143ZM15.1641 16.6204L17.3313 16.6204L17.0886 17.1233L16.5858 18.1115L15.8923 18.1115L15.3895 17.1233L15.1641 16.6205L15.1641 16.6204ZM10.0669 7.46625L10.0669 6.96347L3.13185 6.96347L3.13185 7.46625L9.56409 7.46625L10.0669 7.46625Z"></path></g></g><defs><rect id="path_0" x="0" y="0" width="24" height="24" rx="0" ry="0"/></defs></svg>