<svg xmlns="http://www.w3.org/2000/svg" xmlns:xlink="http://www.w3.org/1999/xlink" width="24" height="24" viewBox="0 0 24 24" fill="none"><g opacity="1"  transform="translate(0 0)"><mask id="bg-mask-0" fill="white"><use transform="translate(0 0)" xlink:href="#path_0"></use></mask><g mask="url(#bg-mask-0)" ><path id="路径 1" fill-rule="evenodd" style="fill:#E5E5E5" opacity="1" d="M5.2458 13.7892C5.23007 13.7892 5.21437 13.7886 5.19871 13.7874C5.18303 13.7861 5.16745 13.7842 5.15193 13.7817C5.13641 13.7792 5.12102 13.7761 5.10573 13.7723C5.09045 13.7686 5.07538 13.7642 5.06048 13.7592C5.04555 13.7543 5.03085 13.7487 5.01641 13.7426C5.00193 13.7364 4.98775 13.7297 4.97383 13.7224C4.95991 13.7151 4.94629 13.7072 4.93302 13.6988C4.91971 13.6904 4.9068 13.6815 4.89424 13.672L2.66462 12C2.65512 11.9929 2.64584 11.9855 2.63677 11.9778C2.62773 11.9701 2.61891 11.9621 2.61034 11.9539C2.60177 11.9457 2.59346 11.9372 2.5854 11.9284C2.57735 11.9197 2.56957 11.9107 2.56206 11.9015C2.55455 11.8923 2.54734 11.8829 2.5404 11.8732C2.53346 11.8635 2.52683 11.8537 2.5205 11.8436C2.51416 11.8336 2.50813 11.8234 2.50243 11.8129C2.49671 11.8025 2.49132 11.7919 2.48626 11.7812C2.48118 11.7704 2.47645 11.7596 2.47205 11.7485C2.46765 11.7375 2.46358 11.7263 2.45984 11.715C2.45613 11.7038 2.45274 11.6924 2.4497 11.6809C2.44666 11.6694 2.44398 11.6578 2.44166 11.6461C2.43933 11.6345 2.43736 11.6228 2.43575 11.611C2.43413 11.5992 2.43287 11.5874 2.43198 11.5756C2.43107 11.5637 2.43053 11.5519 2.43036 11.54C2.43019 11.5281 2.43038 11.5162 2.43092 11.5043C2.43147 11.4925 2.43238 11.4806 2.43364 11.4688C2.43491 11.457 2.43653 11.4452 2.43852 11.4335C2.44048 11.4218 2.44282 11.4102 2.44552 11.3986C2.44821 11.387 2.45125 11.3755 2.45464 11.3641C2.45803 11.3528 2.46177 11.3415 2.46584 11.3303C2.46992 11.3191 2.47433 11.3081 2.47906 11.2972C2.48381 11.2863 2.48889 11.2756 2.4943 11.265C2.49969 11.2544 2.50541 11.244 2.51145 11.2338C2.51748 11.2235 2.52382 11.2135 2.53046 11.2036C2.5371 11.1938 2.54404 11.1842 2.55127 11.1747C2.55851 11.1653 2.56602 11.1561 2.5738 11.1471C2.58159 11.1381 2.58966 11.1294 2.59798 11.1209C2.6063 11.1124 2.61487 11.1042 2.6237 11.0963C2.63252 11.0883 2.64158 11.0806 2.65086 11.0732C2.66016 11.0658 2.66967 11.0587 2.67938 11.0519C2.6891 11.045 2.69902 11.0385 2.70915 11.0323L15.9066 2.91445L15.9092 2.91305C15.9345 2.89764 15.9602 2.88284 15.9862 2.86863C16.0122 2.85442 16.0386 2.84081 16.0653 2.82783C16.0919 2.81484 16.1189 2.80249 16.1461 2.79075C16.1733 2.77902 16.2008 2.76792 16.2286 2.75747C16.2563 2.74702 16.2843 2.73721 16.3125 2.72806C16.3407 2.7189 16.3691 2.71041 16.3977 2.70258C16.4263 2.69475 16.4551 2.68759 16.484 2.68109C16.513 2.6746 16.542 2.66879 16.5712 2.66365C16.6004 2.65849 16.6298 2.65403 16.6592 2.65027C16.6886 2.64649 16.7181 2.64339 16.7476 2.64099C16.7772 2.63856 16.8068 2.63684 16.8364 2.63581C16.8661 2.63477 16.8957 2.63444 16.9254 2.6348C16.955 2.63514 16.9846 2.63617 17.0143 2.63789C17.0439 2.63961 17.0734 2.64202 17.1029 2.64513C17.1324 2.64823 17.1618 2.65201 17.1911 2.65648C17.2204 2.66095 17.2496 2.66609 17.2787 2.6719C17.3078 2.67773 17.3367 2.68423 17.3655 2.6914C17.3943 2.69857 17.4229 2.70641 17.4513 2.71491C17.4797 2.72341 17.5079 2.73256 17.5359 2.74235C17.5639 2.75217 17.5916 2.76263 17.6191 2.77374C17.6466 2.78483 17.6738 2.79656 17.7008 2.80892C17.7277 2.82129 17.7544 2.83428 17.7807 2.84789C17.8071 2.86149 17.8331 2.8757 17.8588 2.89052C17.8845 2.90534 17.9098 2.92073 17.9348 2.93672C17.9598 2.95272 17.9844 2.96929 18.0086 2.98643C18.0328 3.00356 18.0565 3.02124 18.0799 3.03949C18.1033 3.05773 18.1262 3.0765 18.1488 3.09581C18.1713 3.11513 18.1933 3.13495 18.2149 3.1553C18.2365 3.17563 18.2576 3.19645 18.2782 3.21776C18.2988 3.23909 18.3189 3.26088 18.3385 3.28313C18.3581 3.30538 18.3772 3.32807 18.3958 3.35121C18.4143 3.37435 18.4323 3.39791 18.4498 3.42188C18.4549 3.42891 18.4599 3.43594 18.4645 3.4432L20.5838 6.64008C20.5892 6.64826 20.5944 6.65656 20.5994 6.66497C20.6044 6.67338 20.6091 6.68194 20.6137 6.69061C20.6183 6.69928 20.6226 6.70805 20.6268 6.71693C20.6309 6.72581 20.6348 6.73481 20.6385 6.74389C20.6421 6.75295 20.6456 6.76214 20.6488 6.7714C20.652 6.78066 20.655 6.78999 20.6578 6.79939C20.6605 6.80878 20.663 6.81823 20.6653 6.82777C20.6676 6.83731 20.6696 6.84689 20.6714 6.85653C20.6732 6.86616 20.6748 6.87581 20.6761 6.88554C20.6774 6.89524 20.6785 6.90497 20.6793 6.91474C20.6801 6.92452 20.6807 6.93429 20.681 6.94406C20.6814 6.95386 20.6814 6.96366 20.6813 6.97345C20.6811 6.98325 20.6807 6.99305 20.6801 7.00282C20.6794 7.0126 20.6785 7.02235 20.6774 7.03207C20.6762 7.0418 20.6748 7.0515 20.6732 7.06116C20.6716 7.07081 20.6697 7.08042 20.6676 7.09001C20.6655 7.09957 20.6631 7.10909 20.6606 7.11853C20.658 7.12798 20.6552 7.13735 20.6521 7.14666C20.649 7.15596 20.6458 7.1652 20.6422 7.17434C20.6387 7.1835 20.635 7.19255 20.631 7.2015C20.627 7.21045 20.6228 7.21931 20.6184 7.22806C20.614 7.2368 20.6094 7.24542 20.6045 7.25393C20.5997 7.26244 20.5946 7.27083 20.5893 7.2791C20.584 7.28735 20.5786 7.29546 20.5729 7.30345C20.5672 7.31145 20.5613 7.31928 20.5553 7.32696C20.5492 7.33465 20.5429 7.34217 20.5365 7.34956C20.53 7.35694 20.5234 7.36413 20.5166 7.37119C20.5098 7.37824 20.5028 7.38511 20.4957 7.39179C20.4885 7.39849 20.4812 7.40501 20.4737 7.41131C20.4662 7.41764 20.4586 7.42378 20.4508 7.42974C20.443 7.43567 20.4351 7.44141 20.427 7.44696C20.4189 7.45249 20.4107 7.45784 20.4024 7.46297L12.5681 12.2796C12.5608 12.2842 12.5534 12.2886 12.5459 12.2928C12.5384 12.297 12.5308 12.3011 12.5231 12.3049C12.5154 12.3088 12.5076 12.3125 12.4998 12.3161C12.4919 12.3196 12.484 12.323 12.476 12.3262C12.4679 12.3294 12.4599 12.3324 12.4517 12.3352C12.4436 12.338 12.4354 12.3407 12.4271 12.3432C12.4189 12.3456 12.4106 12.3479 12.4022 12.35C12.3939 12.3521 12.3854 12.354 12.377 12.3557C12.3686 12.3574 12.3601 12.359 12.3516 12.3603C12.343 12.3616 12.3345 12.3628 12.326 12.3638C12.3174 12.3647 12.3088 12.3655 12.3002 12.3661C12.2916 12.3667 12.283 12.367 12.2744 12.3672C12.2658 12.3675 12.2572 12.3675 12.2485 12.3673C12.2399 12.3671 12.2313 12.3667 12.2227 12.3661C12.2141 12.3656 12.2055 12.3648 12.197 12.3638C12.1884 12.3629 12.1799 12.3618 12.1714 12.3604C12.1628 12.3591 12.1544 12.3576 12.1459 12.3559C12.1375 12.3542 12.129 12.3523 12.1207 12.3502C12.1123 12.3481 12.104 12.3458 12.0958 12.3434C12.0875 12.3409 12.0793 12.3383 12.0711 12.3355C12.063 12.3327 12.0549 12.3297 12.0469 12.3265C12.0389 12.3233 12.031 12.32 12.0231 12.3164C12.0152 12.3129 12.0074 12.3092 11.9998 12.3053C11.9921 12.3015 11.9845 12.2974 11.977 12.2932C11.9694 12.289 11.962 12.2846 11.9547 12.2801C11.9474 12.2755 11.9401 12.2708 11.933 12.2659C11.9259 12.2611 11.9189 12.2561 11.912 12.2509C11.9051 12.2457 11.8984 12.2404 11.8917 12.2349C11.8851 12.2294 11.8785 12.2238 11.8721 12.218C11.8657 12.2123 11.8594 12.2063 11.8533 12.2003C11.8472 12.1943 11.8412 12.1881 11.8353 12.1818C11.8294 12.1754 11.8237 12.169 11.8181 12.1624C11.784 12.1261 11.7491 12.0906 11.7134 12.0558C11.6777 12.0211 11.6412 11.9872 11.604 11.954C11.5667 11.9209 11.5288 11.8886 11.4901 11.8572C11.4515 11.8258 11.4121 11.7953 11.3721 11.7656C11.332 11.7359 11.2914 11.7072 11.2501 11.6793C11.2087 11.6515 11.1668 11.6246 11.1243 11.5986C11.0818 11.5726 11.0387 11.5476 10.9951 11.5236C10.9514 11.4995 10.9073 11.4765 10.8626 11.4544C10.1557 11.1115 9.45822 11.1366 8.79002 11.5287C6.78728 12.7036 5.62947 13.6465 5.61798 13.6559C5.605 13.6665 5.59157 13.6766 5.57772 13.6862C5.56384 13.6957 5.54962 13.7046 5.53499 13.7129C5.52037 13.7212 5.50541 13.7288 5.49013 13.7359C5.47485 13.7429 5.45929 13.7492 5.44347 13.7549C5.42763 13.7606 5.41159 13.7655 5.39535 13.7698C5.37909 13.7741 5.36268 13.7777 5.34611 13.7806C5.32954 13.7835 5.31288 13.7856 5.29614 13.7871C5.27938 13.7885 5.2626 13.7892 5.2458 13.7892ZM4.05657 11.5781L5.23994 12.4659C5.74384 12.0863 6.75423 11.3644 8.19658 10.518C9.22384 9.91547 10.3374 9.88195 11.4167 10.4213C11.4997 10.4633 11.5814 10.5079 11.6617 10.555C11.742 10.602 11.8208 10.6516 11.8981 10.7035C11.9754 10.7555 12.051 10.8098 12.1249 10.8664C12.1988 10.923 12.271 10.9818 12.3413 11.0428L19.2722 6.78164L17.4961 4.10156C17.4892 4.09255 17.4821 4.08369 17.4748 4.07498C17.4676 4.06628 17.4601 4.05775 17.4524 4.04939C17.4447 4.04103 17.4369 4.03285 17.4288 4.02485C17.4208 4.01685 17.4126 4.00905 17.4042 4.00144C17.3958 3.99381 17.3872 3.98638 17.3785 3.97915C17.3697 3.97192 17.3608 3.96488 17.3518 3.95805C17.3427 3.95123 17.3335 3.94461 17.3241 3.9382C17.3147 3.9318 17.3052 3.92561 17.2956 3.91964C17.2859 3.91366 17.2761 3.90791 17.2663 3.90239C17.2563 3.89686 17.2463 3.89156 17.2362 3.88648C17.226 3.88141 17.2157 3.87658 17.2054 3.87197C17.195 3.86737 17.1845 3.86302 17.174 3.85889C17.1634 3.85477 17.1527 3.85088 17.142 3.84724C17.1313 3.8436 17.1204 3.84021 17.1095 3.83707C17.0986 3.83393 17.0876 3.83104 17.0766 3.8284C17.0656 3.82574 17.0545 3.82335 17.0434 3.82123C17.0322 3.81909 17.021 3.8172 17.0098 3.81558C16.9986 3.81394 16.9873 3.81256 16.976 3.81145C16.9647 3.81034 16.9534 3.80948 16.9421 3.80888C16.9307 3.80828 16.9194 3.80795 16.9081 3.80787C16.8967 3.80779 16.8854 3.80797 16.8741 3.80841C16.8627 3.80883 16.8514 3.80952 16.8401 3.81047C16.8288 3.81142 16.8175 3.81263 16.8062 3.8141C16.795 3.81557 16.7838 3.8173 16.7726 3.81928C16.7614 3.82125 16.7503 3.82348 16.7392 3.82596C16.7282 3.82846 16.7172 3.8312 16.7062 3.83419C16.6953 3.83717 16.6844 3.84041 16.6736 3.84389C16.6628 3.84738 16.6521 3.8511 16.6415 3.85507C16.6308 3.85904 16.6203 3.86325 16.6099 3.8677C16.5994 3.87216 16.5891 3.87684 16.5789 3.88177C16.5687 3.88669 16.5586 3.89184 16.5486 3.89723C16.5386 3.90263 16.5287 3.90824 16.519 3.91406L4.05657 11.5781Z"></path><path id="路径 2" fill-rule="evenodd" style="fill:#E5E5E5" opacity="1" d="M10.1953 16.3385C10.1832 16.3385 10.1712 16.3381 10.1591 16.3374C10.1471 16.3366 10.1351 16.3355 10.1231 16.334C10.1111 16.3326 10.0992 16.3307 10.0874 16.3285C10.0755 16.3262 10.0637 16.3237 10.052 16.3207C10.0403 16.3178 10.0287 16.3145 10.0172 16.3108C10.0057 16.3071 9.99437 16.3031 9.98312 16.2987C9.97189 16.2944 9.9608 16.2897 9.94984 16.2846C9.93889 16.2796 9.9281 16.2742 9.91748 16.2684C9.90685 16.2627 9.89642 16.2567 9.88619 16.2503C9.87594 16.244 9.86589 16.2373 9.85605 16.2303C9.84622 16.2233 9.83661 16.216 9.82722 16.2085C9.81784 16.2009 9.8087 16.193 9.7998 16.1849C9.79089 16.1767 9.78225 16.1683 9.77387 16.1597C9.7655 16.151 9.7574 16.142 9.74957 16.1329C9.74174 16.1237 9.7342 16.1143 9.72695 16.1046C9.7197 16.095 9.71276 16.0851 9.70612 16.0751L7.90916 13.3507C7.90388 13.3427 7.8988 13.3346 7.89393 13.3263C7.88904 13.318 7.88436 13.3097 7.87989 13.3012C7.87542 13.2927 7.87116 13.2841 7.86712 13.2754C7.86307 13.2667 7.85924 13.258 7.85563 13.249C7.85201 13.2402 7.84861 13.2312 7.84544 13.2221C7.84227 13.2131 7.83931 13.204 7.83658 13.1948C7.83384 13.1856 7.83134 13.1763 7.82908 13.167C7.8268 13.1577 7.82475 13.1483 7.82294 13.1389C7.82112 13.1295 7.81955 13.12 7.8182 13.1105C7.81686 13.101 7.81574 13.0915 7.81485 13.082C7.81398 13.0724 7.81333 13.0629 7.81291 13.0533C7.8125 13.0437 7.81233 13.0341 7.81239 13.0245C7.81244 13.0149 7.81273 13.0053 7.81326 12.9958C7.81379 12.9862 7.81455 12.9766 7.81555 12.9671C7.81655 12.9576 7.81779 12.948 7.81926 12.9385C7.82071 12.9291 7.82241 12.9196 7.82434 12.9102C7.82627 12.9008 7.82842 12.8915 7.83081 12.8822C7.8332 12.8729 7.83582 12.8637 7.83866 12.8545C7.84149 12.8454 7.84455 12.8363 7.84785 12.8273C7.85113 12.8183 7.85463 12.8094 7.85835 12.8005C7.86209 12.7917 7.86602 12.7829 7.87016 12.7743C7.87432 12.7656 7.87869 12.7571 7.88327 12.7487C7.88784 12.7402 7.89262 12.7319 7.89759 12.7237C7.90257 12.7155 7.90775 12.7075 7.91312 12.6995C7.9185 12.6916 7.92407 12.6838 7.92984 12.6761C7.9356 12.6685 7.94155 12.6609 7.94767 12.6535C7.9538 12.6462 7.9601 12.6389 7.96659 12.6319C7.97307 12.6248 7.97973 12.6179 7.98655 12.6112C7.99338 12.6044 8.00037 12.5979 8.00751 12.5915C8.01465 12.5851 8.02194 12.5788 8.0294 12.5728C8.03685 12.5668 8.04445 12.5609 8.05218 12.5552C8.05993 12.5496 8.0678 12.5441 8.0758 12.5388C8.08381 12.5335 8.09194 12.5285 8.1002 12.5236C8.10845 12.5187 8.11682 12.514 8.1253 12.5095C8.13379 12.5051 8.14238 12.5008 8.15108 12.4968C8.15977 12.4927 8.16856 12.4889 8.17745 12.4853C8.18634 12.4817 8.19531 12.4783 8.20436 12.4751C8.21341 12.4719 8.22252 12.469 8.23171 12.4662C8.24091 12.4635 8.25017 12.461 8.25948 12.4587C8.26881 12.4565 8.27818 12.4544 8.28759 12.4526C8.29701 12.4508 8.30647 12.4492 8.31597 12.4479C8.32547 12.4465 8.33499 12.4454 8.34454 12.4445C8.35409 12.4436 8.36365 12.443 8.37323 12.4426C8.38282 12.4422 8.39241 12.442 8.40198 12.442C8.41158 12.4421 8.42116 12.4424 8.43074 12.4429C8.44032 12.4435 8.44988 12.4442 8.45943 12.4452C8.46896 12.4462 8.47847 12.4474 8.48795 12.4489C8.49742 12.4504 8.50686 12.4521 8.51626 12.454C8.52566 12.4559 8.53499 12.4581 8.54427 12.4605C8.55357 12.4629 8.5628 12.4655 8.57195 12.4683C8.58113 12.4712 8.59021 12.4742 8.59921 12.4775C8.60823 12.4808 8.61715 12.4843 8.62598 12.488C8.63482 12.4917 8.64356 12.4957 8.6522 12.4998C8.66086 12.504 8.6694 12.5083 8.67782 12.5129C8.68626 12.5175 8.69458 12.5223 8.70278 12.5272C8.71097 12.5322 8.71903 12.5374 8.72697 12.5428C8.73492 12.5481 8.74273 12.5537 8.75038 12.5595C8.75805 12.5653 8.76558 12.5712 8.77295 12.5773C8.78033 12.5834 8.78755 12.5897 8.79463 12.5962C8.80169 12.6027 8.80859 12.6094 8.81533 12.6162C8.82208 12.623 8.82865 12.63 8.83504 12.6372C8.84145 12.6443 8.84766 12.6516 8.85369 12.6591C8.85974 12.6665 8.86559 12.6741 8.87125 12.6818C8.87692 12.6896 8.8824 12.6975 8.88768 12.7055L10.3614 14.9409L19.4596 8.94093L18.8833 8.03203C18.8777 8.02393 18.8723 8.01571 18.8671 8.00735C18.8619 7.99897 18.8569 7.99048 18.8521 7.98187C18.8473 7.97324 18.8428 7.96451 18.8385 7.95567C18.8341 7.94682 18.83 7.93787 18.8262 7.92881C18.8223 7.91976 18.8186 7.91062 18.8152 7.90138C18.8118 7.89215 18.8086 7.88283 18.8056 7.87343C18.8027 7.86403 18.8 7.85457 18.7975 7.84502C18.795 7.83549 18.7928 7.8259 18.7908 7.81626C18.7888 7.8066 18.7871 7.79691 18.7856 7.78717C18.7841 7.77744 18.7828 7.76767 18.7818 7.75788C18.7808 7.74808 18.78 7.73826 18.7795 7.72842C18.779 7.71857 18.7787 7.70873 18.7787 7.69888C18.7787 7.68904 18.7789 7.6792 18.7794 7.66936C18.7799 7.65951 18.7806 7.64969 18.7816 7.63989C18.7826 7.63008 18.7838 7.62031 18.7853 7.61057C18.7868 7.60084 18.7885 7.59114 18.7904 7.58149C18.7924 7.57183 18.7946 7.56223 18.797 7.55268C18.7995 7.54314 18.8022 7.53366 18.8051 7.52425C18.808 7.51485 18.8112 7.50552 18.8145 7.49627C18.8179 7.48702 18.8216 7.47786 18.8254 7.4688C18.8292 7.45974 18.8333 7.45078 18.8376 7.44192C18.8419 7.43306 18.8465 7.42431 18.8512 7.41567C18.8559 7.40704 18.8609 7.39853 18.8661 7.39014C18.8712 7.38177 18.8766 7.37353 18.8822 7.36542C18.8878 7.35731 18.8936 7.34934 18.8996 7.34151C18.9056 7.3337 18.9118 7.32603 18.9182 7.31852C18.9245 7.31102 18.9311 7.30368 18.9379 7.29651C18.9446 7.28934 18.9515 7.28234 18.9586 7.27551C18.9657 7.26868 18.973 7.26203 18.9804 7.25557C18.9879 7.24911 18.9955 7.24285 19.0032 7.23677C19.011 7.23069 19.0189 7.22481 19.0269 7.21914C19.035 7.21346 19.0432 7.20798 19.0515 7.20271C19.0598 7.19745 19.0683 7.1924 19.0769 7.18757C19.0854 7.18273 19.0941 7.1781 19.1029 7.1737C19.1118 7.16931 19.1207 7.16514 19.1297 7.16118C19.1387 7.15723 19.1478 7.15351 19.1571 7.15003C19.1663 7.14653 19.1756 7.14327 19.1849 7.14025C19.1943 7.13724 19.2038 7.13446 19.2133 7.13191C19.2228 7.12936 19.2323 7.12706 19.242 7.12499C19.2516 7.12293 19.2613 7.12111 19.271 7.11953C19.2807 7.11796 19.2905 7.11663 19.3003 7.11555C19.3101 7.11447 19.3199 7.11364 19.3298 7.11304C19.3396 7.11246 19.3494 7.11213 19.3593 7.11203C19.3691 7.11194 19.379 7.1121 19.3888 7.1125C19.3987 7.11291 19.4085 7.11356 19.4183 7.11447C19.4281 7.11536 19.4379 7.11651 19.4476 7.11792C19.4574 7.11931 19.4671 7.12094 19.4768 7.12282C19.4864 7.12471 19.496 7.12684 19.5056 7.12921C19.5152 7.13157 19.5247 7.13417 19.5341 7.13702C19.5435 7.13988 19.5529 7.14296 19.5622 7.14628C19.5714 7.1496 19.5806 7.15316 19.5897 7.15694C19.5988 7.16072 19.6078 7.16473 19.6167 7.16896C19.6256 7.1732 19.6343 7.17766 19.643 7.18235C19.6517 7.18702 19.6602 7.19191 19.6687 7.19702C19.6771 7.20213 19.6854 7.20745 19.6935 7.21298C19.7017 7.21851 19.7097 7.22425 19.7175 7.23018C19.7254 7.2361 19.7331 7.24223 19.7407 7.24856C19.7482 7.25489 19.7556 7.26139 19.7629 7.26808C19.7701 7.27477 19.7771 7.28164 19.784 7.28871C19.7909 7.29575 19.7976 7.30297 19.8041 7.31036C19.8106 7.31774 19.8169 7.32528 19.8231 7.333C19.8292 7.34071 19.8352 7.34856 19.8409 7.35656C19.8466 7.36457 19.8521 7.37272 19.8575 7.381C19.8628 7.38928 19.8679 7.3977 19.8728 7.40624L20.7576 8.80148C20.7627 8.80948 20.7676 8.8176 20.7722 8.82585C20.7769 8.8341 20.7814 8.84246 20.7857 8.85091C20.79 8.85936 20.794 8.86792 20.7979 8.87659C20.8017 8.88525 20.8054 8.894 20.8088 8.90282C20.8123 8.91167 20.8155 8.92058 20.8185 8.92956C20.8215 8.93856 20.8243 8.94763 20.8269 8.95675C20.8294 8.96588 20.8318 8.97506 20.8339 8.98429C20.836 8.99354 20.8379 9.00283 20.8396 9.01216C20.8412 9.02149 20.8427 9.03085 20.8439 9.04026C20.8451 9.04967 20.8461 9.0591 20.8469 9.06855C20.8476 9.078 20.8481 9.08746 20.8484 9.09693C20.8487 9.1064 20.8488 9.11588 20.8486 9.12536C20.8485 9.13485 20.8481 9.14431 20.8475 9.15377C20.8468 9.16324 20.846 9.17268 20.8449 9.1821C20.8438 9.19151 20.8425 9.20089 20.841 9.21025C20.8394 9.21961 20.8377 9.22892 20.8357 9.23819C20.8337 9.24746 20.8315 9.25667 20.8291 9.26584C20.8266 9.275 20.8239 9.2841 20.8211 9.29313C20.8182 9.30216 20.8151 9.31112 20.8118 9.32001C20.8085 9.32888 20.805 9.33768 20.8012 9.3464C20.7975 9.35512 20.7935 9.36374 20.7894 9.37225C20.7852 9.38077 20.7808 9.38918 20.7763 9.39749C20.7717 9.40581 20.767 9.414 20.762 9.42208C20.757 9.43016 20.7518 9.43811 20.7465 9.44594C20.7412 9.45375 20.7356 9.46143 20.7299 9.469C20.7242 9.47657 20.7183 9.48398 20.7122 9.49124C20.7061 9.49853 20.6998 9.50566 20.6934 9.51262C20.687 9.51958 20.6804 9.5264 20.6737 9.53303C20.6669 9.53969 20.66 9.54618 20.6529 9.55248C20.6458 9.55879 20.6386 9.56491 20.6312 9.57088C20.6239 9.57686 20.6163 9.58262 20.6087 9.58823C20.601 9.59383 20.5933 9.59922 20.5853 9.60444L10.5173 16.2422C10.5054 16.25 10.4933 16.2574 10.4809 16.2643C10.4685 16.2712 10.4558 16.2777 10.443 16.2837C10.4301 16.2897 10.417 16.2953 10.4037 16.3003C10.3904 16.3054 10.377 16.3099 10.3634 16.314C10.3497 16.3181 10.336 16.3217 10.3221 16.3247C10.3082 16.3278 10.2943 16.3303 10.2802 16.3324C10.2661 16.3344 10.252 16.336 10.2379 16.337C10.2237 16.338 10.2095 16.3385 10.1953 16.3385Z"></path><path id="路径 3" fill-rule="evenodd" style="fill:#E5E5E5" opacity="1" d="M7.85159 16.4611C7.8452 16.4611 7.83881 16.461 7.83244 16.4608C7.82605 16.4606 7.81966 16.4603 7.81329 16.4598C7.80691 16.4594 7.80055 16.4589 7.79419 16.4583C7.78783 16.4576 7.78148 16.4569 7.77516 16.4561C7.76883 16.4552 7.76251 16.4543 7.75619 16.4533C7.7499 16.4522 7.74362 16.4511 7.73735 16.4498C7.73109 16.4486 7.72484 16.4472 7.71862 16.4458C7.71241 16.4443 7.70621 16.4428 7.70004 16.4411C7.69387 16.4395 7.68773 16.4377 7.68162 16.4359C7.67549 16.434 7.66941 16.4321 7.66336 16.43C7.65731 16.428 7.6513 16.4258 7.64531 16.4236C7.63934 16.4213 7.63341 16.419 7.6275 16.4165C7.62159 16.4141 7.61573 16.4115 7.60992 16.4089C7.60409 16.4063 7.59832 16.4035 7.5926 16.4007C7.58687 16.3979 7.58118 16.395 7.57554 16.3919C7.56991 16.3889 7.56433 16.3858 7.5588 16.3826C7.55327 16.3794 7.54779 16.3762 7.54235 16.3728C7.53693 16.3694 7.53156 16.3659 7.52625 16.3624C7.52094 16.3589 7.51569 16.3552 7.5105 16.3515C7.50531 16.3478 7.50018 16.344 7.4951 16.3401C7.49004 16.3362 7.48504 16.3322 7.4801 16.3282C7.47515 16.3241 7.47027 16.32 7.46548 16.3158C7.46068 16.3116 7.45595 16.3073 7.45127 16.3029C7.44662 16.2986 7.44202 16.2941 7.43749 16.2896C7.43298 16.2851 7.42854 16.2805 7.42418 16.2758C7.41981 16.2712 7.41551 16.2664 7.41129 16.2616C7.40709 16.2568 7.40295 16.252 7.39889 16.247C7.39484 16.2421 7.39087 16.2371 7.38698 16.232C7.38309 16.227 7.37929 16.2218 7.37557 16.2166C7.37184 16.2115 7.3682 16.2062 7.36465 16.2009C7.3611 16.1956 7.35764 16.1902 7.35426 16.1848C7.35089 16.1794 7.3476 16.1739 7.3444 16.1684L6.34573 14.4401C6.34101 14.4318 6.33649 14.4234 6.33218 14.4148C6.32788 14.4063 6.32379 14.3977 6.3199 14.389C6.31601 14.3803 6.31234 14.3715 6.30888 14.3626C6.30543 14.3536 6.3022 14.3447 6.29918 14.3356C6.29616 14.3266 6.29337 14.3174 6.29079 14.3082C6.28823 14.299 6.28588 14.2898 6.28376 14.2805C6.28165 14.2712 6.27976 14.2618 6.27809 14.2524C6.27643 14.243 6.275 14.2336 6.2738 14.2241C6.27261 14.2146 6.27165 14.2051 6.27091 14.1956C6.27018 14.1861 6.26967 14.1765 6.26939 14.167C6.26912 14.1574 6.26909 14.1479 6.2693 14.1383C6.26948 14.1288 6.26991 14.1193 6.27059 14.1098C6.27124 14.1002 6.27214 14.0907 6.27328 14.0812C6.27441 14.0718 6.27577 14.0623 6.27736 14.0529C6.27895 14.0435 6.28077 14.0341 6.28282 14.0248C6.28487 14.0155 6.28714 14.0062 6.28964 13.997C6.29214 13.9878 6.29487 13.9786 6.29782 13.9695C6.30077 13.9605 6.30395 13.9514 6.30734 13.9425C6.31071 13.9336 6.31431 13.9247 6.31814 13.916C6.32197 13.9072 6.326 13.8986 6.33023 13.8901C6.33448 13.8815 6.33894 13.873 6.34359 13.8647C6.34825 13.8564 6.35311 13.8482 6.35817 13.8401C6.36323 13.832 6.36848 13.824 6.37392 13.8162C6.37937 13.8083 6.38502 13.8006 6.39084 13.793C6.39667 13.7855 6.40268 13.7781 6.40887 13.7708C6.41505 13.7635 6.42141 13.7564 6.42795 13.7494C6.43448 13.7425 6.44118 13.7357 6.44805 13.729C6.45491 13.7224 6.46194 13.716 6.46913 13.7097C6.47631 13.7034 6.48365 13.6973 6.49113 13.6913C6.49862 13.6854 6.50624 13.6796 6.51401 13.6741C6.52177 13.6685 6.52966 13.6632 6.53768 13.658C6.54571 13.6528 6.55386 13.6478 6.56212 13.6431C6.57039 13.6383 6.57877 13.6337 6.58727 13.6294C6.59576 13.625 6.60435 13.6208 6.61305 13.6169C6.62176 13.6129 6.63055 13.6092 6.63942 13.6057C6.6483 13.6022 6.65725 13.5989 6.66628 13.5958C6.67533 13.5927 6.68444 13.5899 6.69361 13.5873C6.7028 13.5846 6.71204 13.5822 6.72134 13.58C6.73063 13.5779 6.73998 13.5759 6.74937 13.5742C6.75876 13.5725 6.76819 13.571 6.77766 13.5697C6.78711 13.5684 6.79659 13.5674 6.80611 13.5666C6.81562 13.5658 6.82516 13.5653 6.8347 13.5649C6.84425 13.5646 6.8538 13.5645 6.86334 13.5646C6.87289 13.5648 6.88243 13.5651 6.89196 13.5657C6.90149 13.5663 6.911 13.5672 6.92048 13.5682C6.92997 13.5693 6.93942 13.5706 6.94884 13.5721C6.95828 13.5736 6.96766 13.5754 6.97699 13.5774C6.98634 13.5794 6.99562 13.5816 7.00486 13.584C7.01409 13.5865 7.02326 13.5891 7.03235 13.592C7.04146 13.5949 7.05048 13.598 7.05942 13.6013C7.06837 13.6047 7.07724 13.6082 7.08602 13.612C7.0948 13.6158 7.10348 13.6197 7.11206 13.6239C7.12064 13.6281 7.12911 13.6325 7.13747 13.6371C7.14584 13.6417 7.15409 13.6465 7.16222 13.6515C7.17036 13.6565 7.17837 13.6617 7.18624 13.6671C7.19412 13.6725 7.20186 13.6781 7.20947 13.6839C7.21706 13.6896 7.22451 13.6956 7.23183 13.7017C7.23914 13.7079 7.2463 13.7142 7.25332 13.7207C7.26032 13.7272 7.26716 13.7338 7.27385 13.7406C7.28052 13.7475 7.28703 13.7544 7.29337 13.7616C7.2997 13.7687 7.30586 13.776 7.31184 13.7835C7.31783 13.7909 7.32363 13.7985 7.32923 13.8062C7.33484 13.814 7.34026 13.8218 7.34548 13.8298C7.35071 13.8378 7.35574 13.8459 7.36057 13.8541L8.05643 15.0584L8.93324 14.5137C8.94137 14.5086 8.94964 14.5038 8.95803 14.4991C8.9664 14.4944 8.97488 14.49 8.98351 14.4858C8.99209 14.4815 9.0008 14.4775 9.00962 14.4737C9.01841 14.4699 9.02729 14.4663 9.03627 14.4629C9.04524 14.4595 9.05429 14.4564 9.06343 14.4534C9.07255 14.4505 9.08173 14.4478 9.09102 14.4453C9.10027 14.4428 9.1096 14.4406 9.11898 14.4386C9.12835 14.4366 9.13777 14.4348 9.14724 14.4332C9.15669 14.4316 9.16618 14.4303 9.17572 14.4292C9.18524 14.4281 9.1948 14.4273 9.20436 14.4267C9.21392 14.426 9.22351 14.4256 9.23309 14.4255C9.24268 14.4253 9.25227 14.4254 9.26185 14.4257C9.27144 14.426 9.281 14.4266 9.29056 14.4274C9.30013 14.4282 9.30964 14.4292 9.31916 14.4304C9.32867 14.4317 9.33814 14.4332 9.34759 14.4349C9.35701 14.4366 9.36638 14.4386 9.37573 14.4408C9.38506 14.4429 9.39434 14.4454 9.40358 14.448C9.41279 14.4506 9.42193 14.4535 9.43102 14.4566C9.44009 14.4597 9.44909 14.463 9.45802 14.4665C9.46693 14.47 9.47577 14.4738 9.48451 14.4777C9.49323 14.4817 9.50185 14.4859 9.51038 14.4902C9.51891 14.4946 9.52733 14.4992 9.53565 14.504C9.54395 14.5088 9.55213 14.5138 9.56019 14.519C9.56823 14.5242 9.57615 14.5296 9.58395 14.5352C9.59173 14.5408 9.5994 14.5466 9.6069 14.5525C9.6144 14.5585 9.62176 14.5646 9.62898 14.571C9.6362 14.5773 9.64323 14.5838 9.65012 14.5905C9.65701 14.5971 9.66373 14.604 9.6703 14.611C9.67684 14.618 9.68321 14.6251 9.68942 14.6324C9.69561 14.6397 9.70163 14.6472 9.70747 14.6548C9.71331 14.6624 9.71895 14.6702 9.72441 14.6781C9.72985 14.686 9.73513 14.694 9.74019 14.7021C9.74525 14.7102 9.7501 14.7185 9.75477 14.7269C9.75941 14.7353 9.76386 14.7438 9.7681 14.7524C9.77232 14.761 9.77635 14.7697 9.78017 14.7785C9.78397 14.7873 9.78758 14.7962 9.79095 14.8051C9.79433 14.8141 9.79747 14.8232 9.80042 14.8323C9.80333 14.8414 9.80605 14.8507 9.80853 14.8599C9.81102 14.8692 9.81327 14.8785 9.81528 14.8879C9.8173 14.8972 9.81908 14.9067 9.82065 14.9161C9.8222 14.9256 9.82353 14.9351 9.82463 14.9446C9.82571 14.9541 9.82658 14.9637 9.82721 14.9732C9.82782 14.9828 9.82822 14.9924 9.82836 15.002C9.8285 15.0116 9.82843 15.0211 9.82812 15.0307C9.8278 15.0403 9.82726 15.0499 9.82646 15.0594C9.82566 15.069 9.82466 15.0785 9.82341 15.0881C9.82215 15.0976 9.82065 15.107 9.81894 15.1165C9.8172 15.1259 9.81526 15.1353 9.8131 15.1446C9.8109 15.154 9.80849 15.1632 9.80586 15.1725C9.80324 15.1817 9.80037 15.1908 9.79728 15.1999C9.79419 15.209 9.79088 15.218 9.78737 15.2269C9.78383 15.2358 9.78008 15.2446 9.77614 15.2534C9.77216 15.2621 9.76798 15.2708 9.76363 15.2793C9.75922 15.2878 9.75463 15.2962 9.74984 15.3045C9.74504 15.3128 9.74005 15.321 9.73484 15.3291C9.72964 15.3371 9.72425 15.345 9.71867 15.3528C9.71307 15.3606 9.7073 15.3683 9.70135 15.3758C9.69538 15.3833 9.68923 15.3907 9.68291 15.3979C9.67658 15.4051 9.67006 15.4121 9.66341 15.419C9.65673 15.4259 9.64988 15.4326 9.6429 15.4392C9.63589 15.4457 9.62874 15.4521 9.62143 15.4583C9.61412 15.4645 9.60664 15.4705 9.59905 15.4764C9.59143 15.4822 9.58367 15.4878 9.5758 15.4933C9.5679 15.4988 9.55988 15.504 9.55175 15.5091L8.16096 16.3732C8.14942 16.3804 8.13763 16.3871 8.12562 16.3934C8.11362 16.3998 8.10141 16.4057 8.08898 16.4112C8.07655 16.4167 8.06394 16.4217 8.05118 16.4263C8.0384 16.4309 8.02548 16.4351 8.01241 16.4388C7.99935 16.4425 7.98618 16.4458 7.9729 16.4486C7.9596 16.4513 7.94623 16.4537 7.93277 16.4555C7.91932 16.4574 7.90582 16.4588 7.89227 16.4597C7.87873 16.4607 7.86516 16.4611 7.85159 16.4611ZM15.9012 15.9525C15.8672 15.9525 15.8332 15.9517 15.7992 15.95C15.7653 15.9483 15.7314 15.9458 15.6976 15.9425C15.6637 15.9392 15.63 15.935 15.5963 15.93C15.5627 15.925 15.5292 15.9192 15.4959 15.9126C15.4625 15.906 15.4293 15.8985 15.3963 15.8902C15.3633 15.882 15.3306 15.8729 15.2981 15.863C15.2655 15.8532 15.2332 15.8425 15.2012 15.8311C15.1692 15.8196 15.1375 15.8074 15.1061 15.7943C15.0747 15.7813 15.0436 15.7676 15.0129 15.753C14.9821 15.7385 14.9517 15.7232 14.9218 15.7072C14.8917 15.6911 14.8622 15.6744 14.833 15.6569C14.8038 15.6394 14.7751 15.6212 14.7469 15.6023C14.7186 15.5834 14.6908 15.5639 14.6635 15.5436C14.6361 15.5233 14.6094 15.5024 14.5831 15.4808C14.5568 15.4593 14.531 15.4371 14.5059 15.4142C14.4807 15.3914 14.456 15.368 14.432 15.3439C14.408 15.3199 14.3845 15.2952 14.3617 15.2701C14.3388 15.2449 14.3166 15.2191 14.2951 15.1928C14.2735 15.1666 14.2526 15.1397 14.2323 15.1124C14.2121 15.0851 14.1925 15.0573 14.1736 15.0291C14.1547 15.0008 14.1365 14.9721 14.119 14.9429C14.1016 14.9137 14.0848 14.8842 14.0688 14.8542C14.0528 14.8242 14.0375 14.7938 14.0229 14.7631C14.0084 14.7323 13.9946 14.7012 13.9816 14.6698C13.9686 14.6384 13.9563 14.6067 13.9449 14.5747C13.9334 14.5427 13.9228 14.5104 13.9129 14.4778C13.903 14.4453 13.894 14.4125 13.8857 14.3796C13.8774 14.3466 13.87 14.3134 13.8634 14.2801C13.8567 14.2467 13.8509 14.2132 13.8459 14.1796C13.841 14.1459 13.8368 14.1122 13.8335 14.0783C13.8301 14.0445 13.8276 14.0106 13.826 13.9767C13.8243 13.9427 13.8235 13.9087 13.8235 13.8747C13.8235 13.8407 13.8243 13.8067 13.826 13.7727C13.8276 13.7388 13.8301 13.7049 13.8335 13.671C13.8368 13.6372 13.841 13.6035 13.846 13.5698C13.851 13.5362 13.8568 13.5027 13.8634 13.4693C13.87 13.436 13.8775 13.4028 13.8858 13.3698C13.894 13.3368 13.9031 13.3041 13.913 13.2716C13.9228 13.239 13.9335 13.2067 13.945 13.1747C13.9564 13.1427 13.9686 13.111 13.9817 13.0796C13.9947 13.0482 14.0085 13.0171 14.023 12.9863C14.0375 12.9556 14.0528 12.9252 14.0689 12.8952C14.0849 12.8653 14.1016 12.8357 14.1191 12.8065C14.1366 12.7773 14.1548 12.7486 14.1737 12.7204C14.1926 12.6921 14.2122 12.6643 14.2324 12.637C14.2527 12.6097 14.2736 12.5829 14.2952 12.5566C14.3167 12.5303 14.339 12.5046 14.3618 12.4794C14.3846 12.4542 14.4081 12.4296 14.4321 12.4055C14.4562 12.3815 14.4808 12.358 14.506 12.3352C14.5312 12.3124 14.5569 12.2902 14.5832 12.2686C14.6095 12.247 14.6363 12.2261 14.6636 12.2059C14.6909 12.1856 14.7187 12.166 14.747 12.1471C14.7752 12.1282 14.804 12.1101 14.8332 12.0926C14.8623 12.0751 14.8919 12.0583 14.9219 12.0423C14.9519 12.0263 14.9822 12.011 15.013 11.9965C15.0437 11.9819 15.0748 11.9682 15.1062 11.9551C15.1376 11.9421 15.1693 11.9299 15.2014 11.9184C15.2334 11.907 15.2657 11.8963 15.2982 11.8865C15.3307 11.8766 15.3635 11.8675 15.3965 11.8593C15.4295 11.851 15.4626 11.8436 15.496 11.8369C15.5293 11.8303 15.5628 11.8245 15.5965 11.8195C15.6301 11.8145 15.6639 11.8103 15.6977 11.807C15.7315 11.8037 15.7654 11.8012 15.7994 11.7995C15.8334 11.7979 15.8674 11.797 15.9014 11.797C15.9354 11.797 15.9693 11.7979 16.0033 11.7995C16.0373 11.8012 16.0712 11.8037 16.105 11.8071C16.1389 11.8104 16.1726 11.8146 16.2062 11.8196C16.2399 11.8245 16.2733 11.8304 16.3067 11.837C16.34 11.8436 16.3732 11.8511 16.4062 11.8594C16.4392 11.8676 16.472 11.8767 16.5045 11.8865C16.537 11.8964 16.5693 11.9071 16.6013 11.9186C16.6333 11.93 16.6651 11.9422 16.6965 11.9553C16.7279 11.9683 16.759 11.9821 16.7897 11.9966C16.8204 12.0111 16.8508 12.0264 16.8808 12.0424C16.9108 12.0585 16.9403 12.0752 16.9695 12.0927C16.9987 12.1102 17.0274 12.1284 17.0557 12.1473C17.084 12.1662 17.1117 12.1858 17.1391 12.206C17.1664 12.2263 17.1931 12.2472 17.2194 12.2688C17.2457 12.2904 17.2715 12.3126 17.2967 12.3354C17.3218 12.3582 17.3465 12.3817 17.3705 12.4057C17.3946 12.4298 17.418 12.4544 17.4408 12.4796C17.4637 12.5048 17.4859 12.5305 17.5074 12.5568C17.529 12.5831 17.5499 12.6099 17.5702 12.6372C17.5904 12.6645 17.61 12.6923 17.6289 12.7206C17.6478 12.7489 17.666 12.7776 17.6834 12.8068C17.7009 12.8359 17.7177 12.8655 17.7337 12.8955C17.7497 12.9255 17.765 12.9559 17.7796 12.9866C17.7941 13.0174 17.8078 13.0484 17.8209 13.0799C17.8339 13.1113 17.8461 13.143 17.8576 13.175C17.869 13.207 17.8797 13.2393 17.8895 13.2718C17.8994 13.3044 17.9085 13.3372 17.9167 13.3701C17.925 13.4031 17.9324 13.4363 17.939 13.4697C17.9457 13.503 17.9515 13.5365 17.9565 13.5701C17.9615 13.6038 17.9656 13.6375 17.969 13.6714C17.9723 13.7052 17.9748 13.7391 17.9765 13.7731C17.9781 13.807 17.9789 13.841 17.9789 13.875C17.9789 13.909 17.978 13.943 17.9763 13.9769C17.9746 14.0109 17.9721 14.0447 17.9687 14.0786C17.9653 14.1124 17.9611 14.1461 17.9561 14.1797C17.9511 14.2133 17.9452 14.2468 17.9386 14.2801C17.9319 14.3135 17.9244 14.3466 17.9162 14.3796C17.9079 14.4126 17.8988 14.4453 17.8889 14.4778C17.879 14.5103 17.8683 14.5426 17.8568 14.5746C17.8454 14.6066 17.8331 14.6383 17.8201 14.6697C17.807 14.7011 17.7933 14.7321 17.7787 14.7629C17.7642 14.7936 17.7489 14.8239 17.7328 14.8539C17.7168 14.8839 17.7 14.9134 17.6825 14.9426C17.6651 14.9717 17.6469 15.0004 17.628 15.0287C17.6091 15.0569 17.5895 15.0847 17.5692 15.112C17.549 15.1393 17.5281 15.1661 17.5065 15.1924C17.4849 15.2186 17.4627 15.2443 17.4399 15.2695C17.4171 15.2947 17.3937 15.3193 17.3696 15.3433C17.3456 15.3674 17.321 15.3908 17.2958 15.4136C17.2706 15.4365 17.2449 15.4587 17.2186 15.4802C17.1923 15.5018 17.1655 15.5227 17.1382 15.543C17.1109 15.5632 17.0832 15.5828 17.0549 15.6017C17.0266 15.6206 16.9979 15.6387 16.9688 15.6562C16.9396 15.6737 16.9101 15.6905 16.8801 15.7065C16.8501 15.7226 16.8198 15.7378 16.7891 15.7524C16.7584 15.7669 16.7273 15.7807 16.6959 15.7937C16.6645 15.8068 16.6328 15.819 16.6008 15.8305C16.5688 15.8419 16.5365 15.8526 16.504 15.8625C16.4715 15.8724 16.4388 15.8815 16.4058 15.8898C16.3728 15.8981 16.3397 15.9055 16.3064 15.9122C16.273 15.9189 16.2395 15.9247 16.2059 15.9297C16.1723 15.9347 16.1386 15.9389 16.1048 15.9423C16.0709 15.9457 16.037 15.9482 16.0031 15.9499C15.9691 15.9516 15.9352 15.9525 15.9012 15.9525ZM15.9012 12.9691C15.8864 12.9691 15.8716 12.9695 15.8568 12.9702C15.842 12.971 15.8272 12.9721 15.8124 12.9735C15.7977 12.975 15.7829 12.9768 15.7683 12.9789C15.7536 12.9811 15.739 12.9837 15.7245 12.9866C15.7099 12.9894 15.6955 12.9927 15.6811 12.9963C15.6667 12.9999 15.6524 13.0038 15.6383 13.0081C15.6241 13.0125 15.61 13.0171 15.596 13.0221C15.5821 13.0271 15.5682 13.0324 15.5545 13.0381C15.5409 13.0438 15.5273 13.0498 15.5139 13.0561C15.5005 13.0624 15.4872 13.0691 15.4742 13.0761C15.4611 13.0831 15.4482 13.0904 15.4355 13.098C15.4228 13.1057 15.4103 13.1136 15.3979 13.1218C15.3856 13.13 15.3735 13.1386 15.3616 13.1474C15.3497 13.1562 15.338 13.1654 15.3265 13.1748C15.3151 13.1842 15.3038 13.1938 15.2929 13.2038C15.2819 13.2138 15.2711 13.224 15.2607 13.2345C15.2502 13.2449 15.2399 13.2557 15.23 13.2667C15.22 13.2776 15.2104 13.2889 15.201 13.3003C15.1915 13.3118 15.1824 13.3235 15.1736 13.3354C15.1648 13.3473 15.1562 13.3594 15.148 13.3717C15.1398 13.3841 15.1318 13.3966 15.1242 13.4093C15.1166 13.422 15.1093 13.4349 15.1023 13.448C15.0953 13.4611 15.0886 13.4743 15.0823 13.4877C15.076 13.5011 15.07 13.5147 15.0643 13.5283C15.0586 13.542 15.0533 13.5559 15.0483 13.5698C15.0433 13.5838 15.0387 13.5979 15.0343 13.6121C15.03 13.6262 15.0261 13.6405 15.0225 13.6549C15.0189 13.6693 15.0156 13.6837 15.0128 13.6983C15.0099 13.7128 15.0073 13.7274 15.0051 13.7421C15.003 13.7567 15.0012 13.7715 14.9997 13.7862C14.9983 13.801 14.9971 13.8158 14.9964 13.8306C14.9957 13.8454 14.9953 13.8602 14.9953 13.875C14.9953 13.8898 14.9957 13.9046 14.9964 13.9194C14.9971 13.9343 14.9983 13.949 14.9997 13.9638C15.0012 13.9786 15.003 13.9933 15.0051 14.0079C15.0073 14.0226 15.0099 14.0372 15.0128 14.0517C15.0156 14.0663 15.0189 14.0807 15.0225 14.0951C15.0261 14.1095 15.03 14.1238 15.0343 14.138C15.0387 14.1522 15.0433 14.1662 15.0483 14.1802C15.0533 14.1941 15.0586 14.208 15.0643 14.2217C15.07 14.2354 15.076 14.2489 15.0823 14.2623C15.0886 14.2757 15.0953 14.289 15.1023 14.302C15.1093 14.3151 15.1166 14.328 15.1242 14.3407C15.1318 14.3534 15.1398 14.3659 15.148 14.3783C15.1562 14.3906 15.1648 14.4027 15.1736 14.4146C15.1824 14.4265 15.1915 14.4382 15.201 14.4497C15.2104 14.4611 15.22 14.4724 15.23 14.4833C15.2399 14.4943 15.2502 14.5051 15.2607 14.5156C15.2711 14.526 15.2819 14.5362 15.2929 14.5462C15.3038 14.5562 15.3151 14.5658 15.3265 14.5752C15.338 14.5846 15.3497 14.5938 15.3616 14.6026C15.3735 14.6114 15.3856 14.62 15.3979 14.6282C15.4103 14.6364 15.4228 14.6444 15.4355 14.652C15.4482 14.6596 15.4611 14.6669 15.4742 14.6739C15.4872 14.6809 15.5005 14.6875 15.5139 14.6939C15.5273 14.7002 15.5409 14.7062 15.5545 14.7119C15.5682 14.7176 15.5821 14.7229 15.596 14.7279C15.61 14.7329 15.6241 14.7376 15.6383 14.7419C15.6524 14.7462 15.6667 14.7501 15.6811 14.7537C15.6955 14.7573 15.7099 14.7606 15.7245 14.7634C15.739 14.7663 15.7536 14.7689 15.7683 14.7711C15.7829 14.7732 15.7977 14.7751 15.8124 14.7765C15.8272 14.778 15.8419 14.779 15.8567 14.7798C15.8716 14.7805 15.8864 14.7809 15.9012 14.7809C15.916 14.7809 15.9308 14.7805 15.9456 14.7798C15.9605 14.779 15.9752 14.778 15.99 14.7765C16.0047 14.7751 16.0194 14.7732 16.0341 14.7711C16.0488 14.7689 16.0634 14.7663 16.0779 14.7634C16.0925 14.7606 16.1069 14.7573 16.1213 14.7537C16.1357 14.7501 16.15 14.7462 16.1641 14.7419C16.1783 14.7376 16.1924 14.7329 16.2064 14.7279C16.2203 14.7229 16.2342 14.7176 16.2479 14.7119C16.2616 14.7062 16.2751 14.7002 16.2885 14.6939C16.3019 14.6875 16.3151 14.6809 16.3282 14.6739C16.3413 14.6669 16.3542 14.6596 16.3669 14.652C16.3796 14.6444 16.3921 14.6364 16.4045 14.6282C16.4168 14.62 16.4289 14.6114 16.4408 14.6026C16.4527 14.5938 16.4644 14.5846 16.4759 14.5752C16.4873 14.5658 16.4986 14.5562 16.5095 14.5462C16.5205 14.5362 16.5312 14.526 16.5417 14.5156C16.5522 14.5051 16.5624 14.4943 16.5724 14.4833C16.5823 14.4724 16.592 14.4611 16.6014 14.4497C16.6108 14.4382 16.62 14.4265 16.6288 14.4146C16.6376 14.4027 16.6461 14.3906 16.6544 14.3783C16.6626 14.3659 16.6705 14.3534 16.6782 14.3407C16.6858 14.328 16.6931 14.3151 16.7001 14.302C16.7071 14.289 16.7138 14.2757 16.7201 14.2623C16.7264 14.2489 16.7324 14.2354 16.7381 14.2217C16.7438 14.208 16.7491 14.1941 16.7541 14.1802C16.7591 14.1662 16.7637 14.1522 16.7681 14.138C16.7724 14.1238 16.7763 14.1095 16.7799 14.0951C16.7835 14.0807 16.7867 14.0663 16.7896 14.0517C16.7925 14.0372 16.7951 14.0226 16.7973 14.0079C16.7994 13.9933 16.8013 13.9786 16.8027 13.9638C16.8042 13.949 16.8052 13.9343 16.806 13.9194C16.8067 13.9046 16.8071 13.8898 16.8071 13.875C16.807 13.8602 16.8067 13.8454 16.8059 13.8306C16.8052 13.8158 16.8041 13.801 16.8026 13.7862C16.8011 13.7715 16.7993 13.7568 16.7971 13.7421C16.7949 13.7275 16.7924 13.7129 16.7895 13.6984C16.7866 13.6838 16.7833 13.6693 16.7797 13.655C16.7761 13.6406 16.7722 13.6263 16.7679 13.6122C16.7635 13.598 16.7589 13.5839 16.7539 13.5699C16.7489 13.556 16.7435 13.5422 16.7379 13.5285C16.7322 13.5148 16.7262 13.5013 16.7198 13.4879C16.7135 13.4745 16.7068 13.4612 16.6998 13.4482C16.6928 13.4351 16.6855 13.4222 16.6779 13.4095C16.6703 13.3968 16.6623 13.3843 16.6541 13.372C16.6459 13.3596 16.6373 13.3475 16.6285 13.3356C16.6197 13.3237 16.6105 13.312 16.6012 13.3006C16.5917 13.2891 16.5821 13.2779 16.5721 13.2669C16.5622 13.2559 16.5519 13.2452 16.5415 13.2347C16.531 13.2243 16.5202 13.214 16.5093 13.2041C16.4983 13.1941 16.4871 13.1844 16.4756 13.175C16.4641 13.1657 16.4525 13.1565 16.4406 13.1477C16.4287 13.1389 16.4166 13.1303 16.4042 13.1221C16.3919 13.1139 16.3794 13.1059 16.3667 13.0983C16.354 13.0907 16.3411 13.0834 16.328 13.0764C16.3149 13.0694 16.3017 13.0627 16.2883 13.0564C16.2749 13.05 16.2614 13.044 16.2477 13.0384C16.234 13.0327 16.2202 13.0273 16.2062 13.0223C16.1923 13.0173 16.1782 13.0127 16.1641 13.0084C16.1499 13.004 16.1356 13.0001 16.1212 12.9965C16.1068 12.9929 16.0924 12.9896 16.0779 12.9867C16.0633 12.9838 16.0487 12.9813 16.0341 12.9791C16.0194 12.9769 16.0047 12.9751 15.99 12.9736C15.9752 12.9721 15.9604 12.971 15.9456 12.9703C15.9308 12.9695 15.916 12.9692 15.9012 12.9691Z"></path><path id="路径 4" fill-rule="evenodd" style="fill:#E5E5E5" opacity="1" d="M15.5684 13.8668C15.5684 13.8733 15.5685 13.8798 15.5688 13.8863C15.5692 13.8929 15.5696 13.8994 15.5703 13.9058C15.5709 13.9123 15.5717 13.9188 15.5727 13.9253C15.5736 13.9317 15.5747 13.9381 15.576 13.9445C15.5773 13.9509 15.5787 13.9573 15.5803 13.9636C15.5819 13.9699 15.5836 13.9762 15.5855 13.9825C15.5874 13.9887 15.5895 13.9949 15.5917 14.001C15.5938 14.0072 15.5962 14.0133 15.5987 14.0193C15.6012 14.0253 15.6038 14.0313 15.6066 14.0371C15.6094 14.043 15.6123 14.0489 15.6154 14.0546C15.6185 14.0604 15.6217 14.066 15.6251 14.0716C15.6284 14.0772 15.6319 14.0827 15.6355 14.0882C15.6391 14.0936 15.6429 14.0989 15.6468 14.1041C15.6506 14.1094 15.6547 14.1145 15.6588 14.1196C15.6629 14.1246 15.6672 14.1295 15.6716 14.1344C15.676 14.1392 15.6804 14.1439 15.6851 14.1485C15.6897 14.1532 15.6944 14.1576 15.6992 14.162C15.7041 14.1664 15.709 14.1706 15.714 14.1748C15.7191 14.1789 15.7242 14.1829 15.7294 14.1868C15.7347 14.1907 15.74 14.1945 15.7454 14.1981C15.7509 14.2017 15.7564 14.2052 15.762 14.2085C15.7675 14.2119 15.7732 14.2151 15.779 14.2182C15.7847 14.2213 15.7905 14.2242 15.7965 14.227C15.8023 14.2298 15.8083 14.2324 15.8143 14.2349C15.8203 14.2374 15.8264 14.2398 15.8326 14.2419C15.8387 14.2441 15.8449 14.2462 15.8511 14.2481C15.8574 14.25 15.8636 14.2517 15.87 14.2533C15.8763 14.2549 15.8827 14.2563 15.8891 14.2576C15.8955 14.2589 15.9019 14.26 15.9083 14.2609C15.9148 14.2619 15.9212 14.2627 15.9277 14.2633C15.9342 14.264 15.9407 14.2644 15.9473 14.2648C15.9538 14.2651 15.9603 14.2652 15.9668 14.2652C15.9733 14.2652 15.9798 14.2651 15.9863 14.2648C15.9929 14.2644 15.9994 14.264 16.0058 14.2633C16.0123 14.2627 16.0188 14.2619 16.0252 14.2609C16.0317 14.26 16.0381 14.2589 16.0445 14.2576C16.0509 14.2563 16.0573 14.2549 16.0636 14.2533C16.0699 14.2517 16.0762 14.25 16.0825 14.2481C16.0887 14.2462 16.0949 14.2441 16.101 14.2419C16.1072 14.2398 16.1133 14.2374 16.1193 14.2349C16.1253 14.2324 16.1313 14.2298 16.1371 14.227C16.143 14.2242 16.1489 14.2213 16.1546 14.2182C16.1604 14.2151 16.166 14.2119 16.1716 14.2085C16.1772 14.2052 16.1827 14.2017 16.1882 14.1981C16.1936 14.1945 16.1989 14.1907 16.2041 14.1868C16.2094 14.1829 16.2145 14.1789 16.2196 14.1748C16.2246 14.1706 16.2295 14.1664 16.2344 14.162C16.2392 14.1576 16.2439 14.1532 16.2485 14.1485C16.2531 14.1439 16.2576 14.1392 16.262 14.1344C16.2664 14.1295 16.2706 14.1246 16.2748 14.1196C16.2789 14.1145 16.2829 14.1094 16.2868 14.1041C16.2907 14.0989 16.2945 14.0936 16.2981 14.0882C16.3017 14.0827 16.3052 14.0772 16.3085 14.0716C16.3119 14.066 16.3151 14.0604 16.3182 14.0546C16.3213 14.0489 16.3242 14.043 16.327 14.0371C16.3298 14.0313 16.3324 14.0253 16.3349 14.0193C16.3374 14.0133 16.3398 14.0072 16.3419 14.001C16.3441 13.9949 16.3462 13.9887 16.3481 13.9825C16.35 13.9762 16.3517 13.9699 16.3533 13.9636C16.3549 13.9573 16.3563 13.9509 16.3576 13.9445C16.3589 13.9381 16.36 13.9317 16.3609 13.9253C16.3619 13.9188 16.3627 13.9123 16.3633 13.9058C16.364 13.8994 16.3644 13.8929 16.3647 13.8863C16.3651 13.8798 16.3652 13.8733 16.3652 13.8668C16.3652 13.8603 16.3651 13.8538 16.3647 13.8473C16.3644 13.8407 16.364 13.8342 16.3633 13.8278C16.3627 13.8212 16.3619 13.8148 16.3609 13.8083C16.36 13.8019 16.3589 13.7955 16.3576 13.7891C16.3563 13.7827 16.3549 13.7763 16.3533 13.77C16.3517 13.7637 16.35 13.7574 16.3481 13.7511C16.3462 13.7449 16.3441 13.7387 16.3419 13.7326C16.3398 13.7264 16.3374 13.7203 16.3349 13.7143C16.3324 13.7083 16.3298 13.7023 16.327 13.6965C16.3242 13.6905 16.3213 13.6847 16.3182 13.679C16.3151 13.6732 16.3119 13.6675 16.3085 13.662C16.3052 13.6564 16.3017 13.6509 16.2981 13.6454C16.2945 13.64 16.2907 13.6347 16.2868 13.6294C16.2829 13.6242 16.2789 13.6191 16.2748 13.614C16.2706 13.609 16.2664 13.6041 16.262 13.5992C16.2576 13.5944 16.2531 13.5897 16.2485 13.5851C16.2439 13.5804 16.2392 13.576 16.2344 13.5716C16.2295 13.5672 16.2246 13.5629 16.2196 13.5588C16.2145 13.5547 16.2094 13.5506 16.2041 13.5468C16.1989 13.5429 16.1936 13.5391 16.1882 13.5355C16.1827 13.5319 16.1772 13.5284 16.1716 13.5251C16.166 13.5217 16.1604 13.5185 16.1546 13.5154C16.1489 13.5123 16.143 13.5094 16.1371 13.5066C16.1313 13.5038 16.1253 13.5012 16.1193 13.4987C16.1133 13.4962 16.1072 13.4938 16.101 13.4917C16.0949 13.4895 16.0887 13.4874 16.0825 13.4855C16.0762 13.4836 16.0699 13.4819 16.0636 13.4803C16.0573 13.4787 16.0509 13.4773 16.0445 13.476C16.0381 13.4747 16.0317 13.4736 16.0252 13.4727C16.0188 13.4717 16.0123 13.4709 16.0058 13.4703C15.9994 13.4696 15.9929 13.4692 15.9863 13.4689C15.9798 13.4685 15.9733 13.4684 15.9668 13.4684C15.9603 13.4684 15.9538 13.4685 15.9473 13.4689C15.9407 13.4692 15.9342 13.4696 15.9277 13.4703C15.9212 13.4709 15.9148 13.4717 15.9083 13.4727C15.9019 13.4736 15.8955 13.4747 15.8891 13.476C15.8827 13.4773 15.8763 13.4787 15.87 13.4803C15.8636 13.4819 15.8574 13.4836 15.8511 13.4855C15.8449 13.4874 15.8387 13.4895 15.8326 13.4917C15.8264 13.4938 15.8203 13.4962 15.8143 13.4987C15.8083 13.5012 15.8023 13.5038 15.7965 13.5066C15.7905 13.5094 15.7847 13.5123 15.779 13.5154C15.7732 13.5185 15.7675 13.5217 15.762 13.5251C15.7564 13.5284 15.7509 13.5319 15.7454 13.5355C15.74 13.5391 15.7347 13.5429 15.7294 13.5468C15.7242 13.5506 15.7191 13.5547 15.714 13.5588C15.709 13.5629 15.7041 13.5672 15.6992 13.5716C15.6944 13.576 15.6897 13.5804 15.6851 13.5851C15.6804 13.5897 15.676 13.5944 15.6716 13.5992C15.6672 13.6041 15.6629 13.609 15.6588 13.614C15.6547 13.6191 15.6506 13.6242 15.6468 13.6294C15.6429 13.6347 15.6391 13.64 15.6355 13.6454C15.6319 13.6509 15.6284 13.6564 15.6251 13.662C15.6217 13.6675 15.6185 13.6732 15.6154 13.679C15.6123 13.6847 15.6094 13.6905 15.6066 13.6965C15.6038 13.7023 15.6012 13.7083 15.5987 13.7143C15.5962 13.7203 15.5938 13.7264 15.5917 13.7326C15.5895 13.7387 15.5874 13.7449 15.5855 13.7511C15.5836 13.7574 15.5819 13.7637 15.5803 13.77C15.5787 13.7763 15.5773 13.7827 15.576 13.7891C15.5747 13.7955 15.5736 13.8019 15.5727 13.8083C15.5717 13.8148 15.5709 13.8212 15.5703 13.8278C15.5696 13.8342 15.5692 13.8407 15.5689 13.8473C15.5685 13.8538 15.5684 13.8603 15.5684 13.8668Z"></path><path id="路径 5" fill-rule="evenodd" style="fill:#E5E5E5" opacity="1" d="M21.7734 17.5172L16.9324 17.5172C16.8977 17.5172 16.8631 17.5163 16.8285 17.5145C16.7938 17.5128 16.7593 17.5102 16.7248 17.5068C16.6903 17.5033 16.6559 17.4991 16.6216 17.4939C16.5874 17.4888 16.5532 17.4829 16.5192 17.4761C16.4853 17.4693 16.4515 17.4617 16.4178 17.4532C16.3842 17.4448 16.3508 17.4355 16.3177 17.4254C16.2845 17.4153 16.2516 17.4044 16.219 17.3927C16.1864 17.381 16.154 17.3685 16.122 17.3553C16.09 17.342 16.0584 17.3279 16.027 17.3131C15.9957 17.2983 15.9648 17.2826 15.9342 17.2663C15.9037 17.25 15.8735 17.2328 15.8438 17.215C15.8141 17.1972 15.7848 17.1786 15.756 17.1594C15.7272 17.1401 15.6988 17.1201 15.671 17.0995C15.6432 17.0788 15.6159 17.0575 15.5891 17.0355C15.5623 17.0135 15.5361 16.9909 15.5104 16.9676C15.4847 16.9443 15.4596 16.9204 15.4351 16.8959C15.4106 16.8714 15.3867 16.8463 15.3635 16.8206C15.3402 16.7949 15.3176 16.7687 15.2956 16.7419C15.2736 16.7151 15.2523 16.6878 15.2316 16.6599C15.211 16.6321 15.191 16.6038 15.1718 16.575C15.1525 16.5461 15.134 16.5169 15.1161 16.4871C15.0983 16.4574 15.0812 16.4273 15.0649 16.3967C15.0485 16.3661 15.033 16.3352 15.0181 16.3039C15.0033 16.2725 14.9893 16.2409 14.976 16.2088C14.9627 16.1768 14.9502 16.1445 14.9385 16.1119C14.9268 16.0792 14.916 16.0463 14.9059 16.0132C14.8958 15.98 14.8866 15.9466 14.8781 15.913C14.8697 15.8794 14.8621 15.8456 14.8553 15.8116C14.8485 15.7776 14.8426 15.7435 14.8375 15.7092C14.8324 15.6749 14.8281 15.6405 14.8247 15.606C14.8213 15.5715 14.8187 15.537 14.817 15.5024C14.8152 15.4677 14.8144 15.4331 14.8143 15.3984C14.8143 15.348 14.8164 15.2951 14.8211 15.2363C14.822 15.2251 14.8232 15.214 14.8246 15.2029C14.8261 15.1918 14.828 15.1807 14.8301 15.1697C14.8322 15.1588 14.8346 15.1478 14.8374 15.137C14.8401 15.1261 14.8432 15.1154 14.8466 15.1047C14.8499 15.094 14.8536 15.0835 14.8576 15.073C14.8615 15.0625 14.8658 15.0522 14.8704 15.042C14.8749 15.0317 14.8798 15.0217 14.8849 15.0117C14.8901 15.0018 14.8955 14.992 14.9012 14.9824C14.9069 14.9727 14.9129 14.9633 14.9191 14.954C14.9254 14.9447 14.9319 14.9356 14.9387 14.9267C14.9454 14.9178 14.9524 14.909 14.9597 14.9005C14.967 14.892 14.9745 14.8837 14.9822 14.8756C14.99 14.8676 14.9979 14.8597 15.0061 14.8521C15.0143 14.8444 15.0227 14.8371 15.0313 14.8299C15.04 14.8228 15.0488 14.8159 15.0578 14.8092C15.0668 14.8026 15.076 14.7962 15.0854 14.7901C15.0947 14.784 15.1043 14.7782 15.114 14.7726C15.1237 14.767 15.1336 14.7617 15.1436 14.7567C15.1536 14.7517 15.1637 14.747 15.174 14.7426C15.1843 14.7382 15.1947 14.7341 15.2052 14.7303C15.2158 14.7264 15.2264 14.7229 15.2371 14.7197C15.2478 14.7165 15.2586 14.7136 15.2695 14.711C15.2804 14.7084 15.2914 14.7061 15.3024 14.7042C15.3134 14.7022 15.3245 14.7005 15.3356 14.6992C15.3467 14.6979 15.3578 14.6968 15.369 14.6962C15.3802 14.6955 15.3914 14.6951 15.4025 14.695C15.4137 14.695 15.4249 14.6952 15.4361 14.6958C15.4473 14.6964 15.4584 14.6973 15.4696 14.6985C15.4807 14.6998 15.4918 14.7013 15.5028 14.7032C15.5138 14.705 15.5248 14.7072 15.5357 14.7097C15.5466 14.7122 15.5575 14.715 15.5682 14.7181C15.579 14.7212 15.5896 14.7246 15.6002 14.7284C15.6171 14.7343 15.6342 14.7398 15.6515 14.7447C15.6687 14.7497 15.6861 14.7542 15.7037 14.7581C15.7212 14.762 15.7388 14.7654 15.7565 14.7683C15.7743 14.7711 15.7921 14.7735 15.8099 14.7753C15.8278 14.7771 15.8457 14.7784 15.8637 14.7791C15.8816 14.7799 15.8995 14.7801 15.9175 14.7798C15.9355 14.7795 15.9534 14.7786 15.9713 14.7772C15.9892 14.7758 16.007 14.7739 16.0248 14.7715C16.0426 14.769 16.0603 14.766 16.0779 14.7625C16.0955 14.759 16.113 14.755 16.1304 14.7505C16.1478 14.7459 16.165 14.7409 16.1821 14.7353C16.1992 14.7297 16.2161 14.7237 16.2328 14.7171C16.2495 14.7105 16.266 14.7035 16.2823 14.6959C16.2986 14.6884 16.3146 14.6803 16.3304 14.6718C16.3463 14.6633 16.3618 14.6543 16.3771 14.6449C16.3924 14.6355 16.4074 14.6256 16.4221 14.6153C16.4367 14.6049 16.4511 14.5942 16.4652 14.583C16.4792 14.5719 16.4929 14.5603 16.5063 14.5483C16.5197 14.5363 16.5327 14.5239 16.5453 14.5111C16.5579 14.4984 16.5702 14.4852 16.582 14.4717C16.5939 14.4582 16.6053 14.4444 16.6163 14.4302C16.6273 14.416 16.6379 14.4015 16.6481 14.3867C16.6582 14.3719 16.6679 14.3568 16.6772 14.3415C16.6865 14.3261 16.6953 14.3104 16.7036 14.2945C16.7119 14.2786 16.7198 14.2625 16.7272 14.2461C16.7346 14.2297 16.7414 14.2131 16.7478 14.1964C16.7542 14.1796 16.7601 14.1626 16.7655 14.1455C16.7708 14.1283 16.7757 14.1111 16.7801 14.0936C16.7844 14.0762 16.7882 14.0587 16.7915 14.041C16.7948 14.0234 16.7976 14.0056 16.7999 13.9878C16.8021 13.97 16.8038 13.9521 16.805 13.9342C16.8062 13.9163 16.8069 13.8983 16.807 13.8804L16.807 13.8661C16.807 13.8565 16.8072 13.8469 16.8077 13.8373C16.8082 13.8278 16.8089 13.8182 16.8098 13.8087C16.8108 13.7991 16.8119 13.7896 16.8133 13.7801C16.8147 13.7706 16.8164 13.7612 16.8182 13.7518C16.8201 13.7424 16.8222 13.733 16.8245 13.7237C16.8269 13.7144 16.8294 13.7052 16.8322 13.696C16.835 13.6868 16.838 13.6777 16.8412 13.6687C16.8445 13.6597 16.8479 13.6507 16.8516 13.6419C16.8553 13.633 16.8591 13.6242 16.8632 13.6156C16.8673 13.6069 16.8717 13.5983 16.8762 13.5899C16.8807 13.5814 16.8854 13.5731 16.8904 13.5649C16.8953 13.5566 16.9004 13.5485 16.9057 13.5406C16.9111 13.5326 16.9166 13.5248 16.9223 13.5171C16.928 13.5094 16.9339 13.5018 16.94 13.4944C16.9461 13.487 16.9523 13.4797 16.9588 13.4726C16.9652 13.4655 16.9718 13.4585 16.9786 13.4518C16.9854 13.445 16.9923 13.4384 16.9994 13.4319C17.0065 13.4255 17.0138 13.4192 17.0212 13.4132C17.0286 13.4071 17.0362 13.4012 17.0439 13.3955C17.0516 13.3898 17.0594 13.3842 17.0674 13.3789C17.0754 13.3736 17.0835 13.3684 17.0917 13.3635C17.0999 13.3586 17.1083 13.3539 17.1167 13.3493C17.1252 13.3448 17.1337 13.3405 17.1424 13.3364C17.1511 13.3323 17.1598 13.3284 17.1687 13.3248C17.1776 13.3211 17.1865 13.3176 17.1955 13.3144C17.2046 13.3112 17.2137 13.3082 17.2228 13.3054C17.232 13.3026 17.2413 13.3 17.2506 13.2977C17.2599 13.2954 17.2692 13.2933 17.2786 13.2914C17.288 13.2896 17.2975 13.2879 17.307 13.2865C17.3164 13.2851 17.326 13.2839 17.3355 13.283C17.345 13.282 17.3546 13.2813 17.3642 13.2809C17.3738 13.2804 17.3833 13.2802 17.3929 13.2802L21.7734 13.2802C21.783 13.2802 21.7926 13.2804 21.8022 13.2809C21.8117 13.2813 21.8213 13.282 21.8308 13.283C21.8404 13.2839 21.8499 13.2851 21.8594 13.2865C21.8689 13.2879 21.8783 13.2896 21.8877 13.2914C21.8971 13.2933 21.9064 13.2954 21.9158 13.2977C21.9251 13.3 21.9343 13.3026 21.9435 13.3054C21.9526 13.3082 21.9618 13.3112 21.9708 13.3144C21.9798 13.3176 21.9888 13.3211 21.9976 13.3248C22.0065 13.3284 22.0152 13.3323 22.0239 13.3364C22.0326 13.3405 22.0411 13.3448 22.0496 13.3493C22.0581 13.3539 22.0664 13.3586 22.0746 13.3635C22.0828 13.3684 22.0909 13.3736 22.0989 13.3789C22.1069 13.3842 22.1147 13.3898 22.1224 13.3955C22.1301 13.4012 22.1377 13.4071 22.1451 13.4132C22.1525 13.4192 22.1598 13.4255 22.1669 13.4319C22.174 13.4384 22.1809 13.445 22.1877 13.4518C22.1945 13.4585 22.2011 13.4655 22.2076 13.4726C22.214 13.4797 22.2203 13.487 22.2263 13.4944C22.2324 13.5018 22.2383 13.5094 22.244 13.5171C22.2497 13.5248 22.2553 13.5326 22.2606 13.5406C22.2659 13.5485 22.271 13.5566 22.276 13.5649C22.2809 13.5731 22.2856 13.5814 22.2901 13.5899C22.2947 13.5983 22.299 13.6069 22.3031 13.6156C22.3072 13.6242 22.311 13.633 22.3147 13.6419C22.3184 13.6507 22.3219 13.6597 22.3251 13.6687C22.3283 13.6777 22.3313 13.6868 22.3341 13.696C22.3369 13.7052 22.3395 13.7144 22.3418 13.7237C22.3441 13.733 22.3462 13.7424 22.3481 13.7518C22.3499 13.7612 22.3516 13.7706 22.353 13.7801C22.3544 13.7896 22.3556 13.7991 22.3565 13.8087C22.3575 13.8182 22.3582 13.8278 22.3586 13.8373C22.3591 13.8469 22.3593 13.8565 22.3593 13.8661L22.3593 16.9313C22.3593 16.9408 22.3591 16.9504 22.3586 16.96C22.3582 16.9696 22.3575 16.9791 22.3565 16.9887C22.3556 16.9982 22.3544 17.0077 22.353 17.0172C22.3516 17.0267 22.3499 17.0362 22.3481 17.0456C22.3462 17.055 22.3441 17.0643 22.3418 17.0736C22.3395 17.0829 22.3369 17.0922 22.3341 17.1013C22.3313 17.1105 22.3283 17.1196 22.3251 17.1286C22.3219 17.1377 22.3184 17.1466 22.3147 17.1555C22.311 17.1643 22.3072 17.1731 22.3031 17.1818C22.299 17.1904 22.2947 17.199 22.2901 17.2075C22.2856 17.2159 22.2809 17.2243 22.276 17.2325C22.271 17.2407 22.2659 17.2488 22.2606 17.2568C22.2553 17.2647 22.2497 17.2726 22.244 17.2803C22.2383 17.288 22.2324 17.2955 22.2263 17.303C22.2203 17.3104 22.214 17.3176 22.2076 17.3247C22.2011 17.3318 22.1945 17.3388 22.1877 17.3456C22.1809 17.3524 22.174 17.359 22.1669 17.3654C22.1598 17.3719 22.1525 17.3781 22.1451 17.3842C22.1377 17.3903 22.1301 17.3962 22.1224 17.4019C22.1147 17.4076 22.1069 17.4131 22.0989 17.4184C22.0909 17.4238 22.0828 17.4289 22.0746 17.4338C22.0664 17.4388 22.0581 17.4435 22.0496 17.448C22.0411 17.4525 22.0326 17.4568 22.0239 17.4609C22.0152 17.465 22.0065 17.4689 21.9976 17.4726C21.9888 17.4763 21.9798 17.4797 21.9708 17.4829C21.9618 17.4862 21.9526 17.4892 21.9435 17.4919C21.9343 17.4947 21.9251 17.4973 21.9158 17.4996C21.9064 17.502 21.8971 17.5041 21.8877 17.5059C21.8783 17.5078 21.8689 17.5094 21.8594 17.5108C21.8499 17.5122 21.8404 17.5134 21.8308 17.5144C21.8213 17.5153 21.8117 17.516 21.8022 17.5165C21.7926 17.517 21.783 17.5172 21.7734 17.5172ZM16.1543 15.9375C16.1597 15.9453 16.1652 15.9531 16.1708 15.9608C16.1765 15.9684 16.1822 15.976 16.1881 15.9835C16.194 15.991 16.2 15.9984 16.2061 16.0057C16.2122 16.013 16.2184 16.0202 16.2247 16.0273C16.231 16.0345 16.2374 16.0415 16.244 16.0484C16.2505 16.0553 16.2571 16.0622 16.2639 16.0689C16.2706 16.0756 16.2774 16.0823 16.2844 16.0888C16.2913 16.0953 16.2983 16.1017 16.3054 16.108C16.3126 16.1143 16.3198 16.1205 16.3271 16.1266C16.3344 16.1327 16.3418 16.1387 16.3493 16.1446C16.3568 16.1505 16.3644 16.1562 16.3721 16.1618C16.3798 16.1675 16.3875 16.173 16.3953 16.1784C16.4032 16.1838 16.4111 16.1891 16.4191 16.1943C16.4271 16.1994 16.4352 16.2045 16.4433 16.2094C16.4514 16.2143 16.4597 16.2191 16.468 16.2238C16.4763 16.2285 16.4846 16.233 16.493 16.2375C16.5015 16.2419 16.51 16.2462 16.5185 16.2503C16.5271 16.2545 16.5357 16.2585 16.5444 16.2624C16.5531 16.2664 16.5618 16.2701 16.5706 16.2738C16.5794 16.2774 16.5882 16.2809 16.5972 16.2843C16.6061 16.2877 16.615 16.2909 16.624 16.294C16.633 16.2971 16.642 16.3001 16.6511 16.3029C16.6602 16.3058 16.6694 16.3084 16.6785 16.311C16.6877 16.3136 16.6969 16.316 16.7061 16.3183C16.7154 16.3205 16.7247 16.3227 16.734 16.3247C16.7433 16.3267 16.7526 16.3286 16.762 16.3303C16.7713 16.332 16.7807 16.3335 16.7901 16.335C16.7995 16.3364 16.809 16.3377 16.8184 16.3389C16.8279 16.34 16.8373 16.341 16.8468 16.3419C16.8563 16.3428 16.8658 16.3435 16.8753 16.344C16.8848 16.3446 16.8943 16.3451 16.9038 16.3453C16.9133 16.3456 16.9229 16.3458 16.9324 16.3458L21.1875 16.3458L21.1875 14.4527L17.8971 14.4527C17.89 14.477 17.8825 14.5011 17.8746 14.5251C17.8666 14.549 17.8583 14.5729 17.8495 14.5965C17.8407 14.6202 17.8314 14.6437 17.8218 14.667C17.8121 14.6904 17.802 14.7135 17.7915 14.7365C17.781 14.7594 17.7701 14.7822 17.7588 14.8048C17.7475 14.8274 17.7357 14.8497 17.7236 14.8718C17.7114 14.894 17.6989 14.9159 17.686 14.9376C17.673 14.9593 17.6597 14.9807 17.646 15.0019C17.6323 15.0231 17.6182 15.0441 17.6037 15.0648C17.5892 15.0854 17.5744 15.1059 17.5591 15.126C17.5439 15.1462 17.5283 15.166 17.5124 15.1856C17.4964 15.2052 17.4802 15.2245 17.4635 15.2435C17.4469 15.2625 17.4299 15.2811 17.4125 15.2995C17.3952 15.3179 17.3776 15.3359 17.3596 15.3537C17.3416 15.3714 17.3233 15.3888 17.3047 15.4059C17.2861 15.4229 17.2672 15.4397 17.2479 15.456C17.2287 15.4724 17.2092 15.4884 17.1894 15.5041C17.1696 15.5198 17.1495 15.535 17.1291 15.55C17.1088 15.5649 17.0882 15.5795 17.0673 15.5937C17.0464 15.6079 17.0252 15.6217 17.0038 15.6351C16.9824 15.6485 16.9608 15.6615 16.9389 15.6742C16.9171 15.6868 16.895 15.699 16.8727 15.7108C16.8504 15.7227 16.8278 15.7341 16.8051 15.7451C16.7824 15.7561 16.7595 15.7667 16.7363 15.7769C16.7132 15.787 16.69 15.7968 16.6665 15.8061C16.643 15.8154 16.6194 15.8243 16.5956 15.8328C16.5718 15.8413 16.5479 15.8493 16.5238 15.8569C16.4997 15.8645 16.4755 15.8717 16.4512 15.8784C16.4268 15.8851 16.4024 15.8914 16.3778 15.8972C16.3532 15.903 16.3285 15.9084 16.3038 15.9133C16.279 15.9183 16.2542 15.9228 16.2292 15.9268C16.2043 15.9308 16.1793 15.9344 16.1543 15.9375Z"></path><path id="路径 6" fill-rule="evenodd" style="fill:#E5E5E5" opacity="1" d="M21.7734 19.5485C21.7638 19.5485 21.7543 19.5483 21.7447 19.5478C21.7351 19.5473 21.7255 19.5466 21.716 19.5457C21.7065 19.5447 21.697 19.5436 21.6875 19.5422C21.678 19.5408 21.6685 19.5391 21.6591 19.5373C21.6497 19.5354 21.6404 19.5333 21.6311 19.531C21.6218 19.5286 21.6125 19.5261 21.6034 19.5233C21.5942 19.5205 21.5851 19.5175 21.576 19.5143C21.567 19.511 21.5581 19.5076 21.5492 19.5039C21.5404 19.5002 21.5316 19.4964 21.5229 19.4923C21.5142 19.4882 21.5057 19.4839 21.4972 19.4793C21.4888 19.4748 21.4804 19.4701 21.4722 19.4652C21.464 19.4602 21.4559 19.4551 21.4479 19.4498C21.4399 19.4445 21.4321 19.4389 21.4244 19.4332C21.4167 19.4275 21.4091 19.4216 21.4017 19.4155C21.3943 19.4094 21.3871 19.4032 21.3799 19.3967C21.3728 19.3903 21.3659 19.3837 21.3591 19.3769C21.3523 19.3701 21.3457 19.3632 21.3393 19.3561C21.3328 19.349 21.3266 19.3417 21.3205 19.3343C21.3144 19.3269 21.3085 19.3193 21.3028 19.3116C21.2971 19.3039 21.2916 19.2961 21.2862 19.2881C21.2809 19.2801 21.2758 19.272 21.2709 19.2638C21.2659 19.2556 21.2612 19.2473 21.2567 19.2388C21.2522 19.2303 21.2479 19.2218 21.2437 19.2131C21.2397 19.2044 21.2358 19.1957 21.2321 19.1868C21.2284 19.1779 21.225 19.169 21.2217 19.16C21.2185 19.1509 21.2155 19.1418 21.2127 19.1327C21.2099 19.1235 21.2074 19.1142 21.2051 19.1049C21.2027 19.0956 21.2006 19.0863 21.1987 19.0769C21.1969 19.0675 21.1953 19.058 21.1939 19.0485C21.1924 19.0391 21.1913 19.0295 21.1903 19.02C21.1894 19.0105 21.1887 19.0009 21.1882 18.9913C21.1877 18.9818 21.1875 18.9722 21.1875 18.9626L21.1875 11.9953C21.1875 11.9857 21.1877 11.9761 21.1882 11.9666C21.1887 11.957 21.1894 11.9474 21.1903 11.9379C21.1913 11.9283 21.1924 11.9188 21.1939 11.9093C21.1953 11.8999 21.1969 11.8904 21.1987 11.881C21.2006 11.8716 21.2027 11.8622 21.2051 11.8529C21.2074 11.8436 21.2099 11.8344 21.2127 11.8252C21.2155 11.8161 21.2185 11.807 21.2217 11.7979C21.225 11.7889 21.2284 11.7799 21.2321 11.7711C21.2358 11.7622 21.2397 11.7535 21.2437 11.7448C21.2478 11.7361 21.2522 11.7276 21.2567 11.7191C21.2612 11.7107 21.2659 11.7023 21.2709 11.6941C21.2758 11.6859 21.2809 11.6778 21.2862 11.6698C21.2916 11.6618 21.2971 11.654 21.3028 11.6463C21.3085 11.6386 21.3144 11.631 21.3205 11.6236C21.3266 11.6162 21.3328 11.6089 21.3393 11.6018C21.3457 11.5947 21.3523 11.5878 21.3591 11.581C21.3659 11.5742 21.3728 11.5676 21.3799 11.5612C21.3871 11.5547 21.3943 11.5485 21.4017 11.5424C21.4091 11.5363 21.4167 11.5304 21.4244 11.5247C21.4321 11.519 21.4399 11.5134 21.4479 11.5081C21.4559 11.5028 21.464 11.4977 21.4722 11.4927C21.4804 11.4878 21.4888 11.4831 21.4972 11.4786C21.5057 11.4741 21.5142 11.4697 21.5229 11.4656C21.5316 11.4615 21.5404 11.4577 21.5492 11.454C21.5581 11.4503 21.567 11.4469 21.576 11.4436C21.5851 11.4404 21.5942 11.4374 21.6034 11.4346C21.6125 11.4318 21.6218 11.4293 21.6311 11.4269C21.6404 11.4246 21.6497 11.4225 21.6591 11.4206C21.6685 11.4188 21.678 11.4171 21.6875 11.4157C21.697 11.4143 21.7065 11.4131 21.716 11.4122C21.7255 11.4113 21.7351 11.4106 21.7447 11.4101C21.7543 11.4096 21.7638 11.4094 21.7734 11.4094C21.783 11.4094 21.7926 11.4096 21.8022 11.4101C21.8118 11.4106 21.8213 11.4113 21.8309 11.4122C21.8404 11.4131 21.8499 11.4143 21.8594 11.4157C21.8689 11.4171 21.8783 11.4188 21.8877 11.4206C21.8971 11.4225 21.9065 11.4246 21.9158 11.4269C21.9251 11.4293 21.9344 11.4318 21.9435 11.4346C21.9527 11.4374 21.9618 11.4404 21.9708 11.4436C21.9799 11.4469 21.9888 11.4503 21.9977 11.454C22.0065 11.4577 22.0153 11.4615 22.024 11.4656C22.0326 11.4697 22.0412 11.4741 22.0496 11.4786C22.0581 11.4831 22.0664 11.4878 22.0747 11.4927C22.0829 11.4977 22.091 11.5028 22.099 11.5081C22.1069 11.5134 22.1148 11.519 22.1225 11.5247C22.1302 11.5304 22.1377 11.5363 22.1452 11.5424C22.1526 11.5485 22.1598 11.5547 22.1669 11.5612C22.174 11.5676 22.181 11.5742 22.1878 11.581C22.1945 11.5878 22.2012 11.5947 22.2076 11.6018C22.214 11.6089 22.2203 11.6162 22.2264 11.6236C22.2325 11.631 22.2384 11.6386 22.2441 11.6463C22.2498 11.654 22.2553 11.6618 22.2606 11.6698C22.266 11.6778 22.2711 11.6859 22.276 11.6941C22.2809 11.7023 22.2857 11.7107 22.2902 11.7191C22.2947 11.7276 22.299 11.7361 22.3031 11.7448C22.3072 11.7535 22.3111 11.7622 22.3148 11.7711C22.3184 11.7799 22.3219 11.7889 22.3251 11.7979C22.3284 11.807 22.3314 11.8161 22.3341 11.8252C22.3369 11.8344 22.3395 11.8436 22.3418 11.8529C22.3441 11.8622 22.3463 11.8716 22.3481 11.881C22.35 11.8904 22.3516 11.8999 22.353 11.9093C22.3544 11.9188 22.3556 11.9283 22.3566 11.9379C22.3575 11.9474 22.3582 11.957 22.3587 11.9666C22.3591 11.9761 22.3594 11.9857 22.3594 11.9953L22.3594 18.9626C22.3594 18.9722 22.3591 18.9818 22.3587 18.9913C22.3582 19.0009 22.3575 19.0105 22.3566 19.02C22.3556 19.0295 22.3544 19.0391 22.353 19.0485C22.3516 19.058 22.35 19.0675 22.3481 19.0769C22.3463 19.0863 22.3441 19.0956 22.3418 19.1049C22.3395 19.1142 22.3369 19.1235 22.3341 19.1327C22.3314 19.1418 22.3284 19.1509 22.3251 19.16C22.3219 19.169 22.3184 19.1779 22.3148 19.1868C22.3111 19.1957 22.3072 19.2044 22.3031 19.2131C22.299 19.2218 22.2947 19.2303 22.2902 19.2388C22.2857 19.2473 22.2809 19.2556 22.276 19.2638C22.2711 19.272 22.266 19.2801 22.2606 19.2881C22.2553 19.2961 22.2498 19.3039 22.2441 19.3116C22.2384 19.3193 22.2325 19.3269 22.2264 19.3343C22.2203 19.3417 22.214 19.349 22.2076 19.3561C22.2012 19.3632 22.1945 19.3701 22.1878 19.3769C22.181 19.3837 22.174 19.3903 22.1669 19.3967C22.1598 19.4032 22.1526 19.4094 22.1452 19.4155C22.1377 19.4216 22.1302 19.4275 22.1225 19.4332C22.1148 19.4389 22.1069 19.4445 22.099 19.4498C22.091 19.4551 22.0829 19.4602 22.0747 19.4652C22.0664 19.4701 22.0581 19.4748 22.0496 19.4793C22.0412 19.4839 22.0326 19.4882 22.024 19.4923C22.0153 19.4964 22.0065 19.5002 21.9977 19.5039C21.9888 19.5076 21.9799 19.511 21.9708 19.5143C21.9618 19.5175 21.9527 19.5205 21.9435 19.5233C21.9344 19.5261 21.9251 19.5286 21.9158 19.531C21.9065 19.5333 21.8971 19.5354 21.8877 19.5373C21.8783 19.5391 21.8689 19.5408 21.8594 19.5422C21.8499 19.5436 21.8404 19.5447 21.8309 19.5457C21.8213 19.5466 21.8118 19.5473 21.8022 19.5478C21.7926 19.5483 21.783 19.5485 21.7734 19.5485Z"></path></g></g><defs><rect id="path_0" x="0" y="0" width="24" height="24" rx="0" ry="0"/></defs></svg>