<svg xmlns="http://www.w3.org/2000/svg" xmlns:xlink="http://www.w3.org/1999/xlink" width="24" height="18" viewBox="0 0 24 18" fill="none"><g opacity="1"  transform="translate(0 0)"><mask id="bg-mask-0" fill="white"><use transform="translate(0 0)" xlink:href="#path_0"></use></mask><g mask="url(#bg-mask-0)" ><path id="路径 1" fill-rule="evenodd" style="fill:#C4C4C4" opacity="1" d="M0.324879 5.3398L2.24338 5.3398L2.24338 9.40282C2.24338 9.47048 2.26867 9.53566 2.3152 9.58841L4.20701 11.7087L4.20701 17.4749C4.20701 17.6381 4.35269 17.7697 4.53188 17.7697L8.73549 17.7697C8.74079 17.7697 8.7461 17.7696 8.75141 17.7694C8.7567 17.7692 8.76198 17.7688 8.76727 17.7683C8.77256 17.7678 8.77783 17.7673 8.78308 17.7666C8.78833 17.7659 8.79358 17.765 8.79879 17.7641C8.804 17.7632 8.80917 17.7622 8.81432 17.7609C8.81947 17.7597 8.82459 17.7585 8.82966 17.7571C8.83476 17.7557 8.83979 17.7541 8.84479 17.7525C8.84979 17.7509 8.85475 17.7492 8.85965 17.7474C8.86455 17.7455 8.86941 17.7435 8.87421 17.7414C8.87902 17.7395 8.88376 17.7372 8.88843 17.7349C8.89312 17.7326 8.89775 17.7304 8.9023 17.7279C8.90685 17.7254 8.91134 17.7228 8.91576 17.7202C8.92018 17.7175 8.92452 17.7147 8.9288 17.7119C8.93306 17.7089 8.93724 17.7059 8.94135 17.7029C8.94545 17.6999 8.94948 17.6968 8.95342 17.6936C8.95735 17.6903 8.9612 17.6869 8.96496 17.6836C8.96872 17.6803 8.97238 17.6767 8.97596 17.673C8.97953 17.6695 8.98299 17.6658 8.98636 17.6621C8.98975 17.6585 8.99303 17.6548 8.99618 17.6509C8.99934 17.647 9.0024 17.643 9.00537 17.6389C9.00833 17.6349 9.01118 17.6309 9.01391 17.6268C9.01664 17.6228 9.01927 17.6186 9.02177 17.6143C9.02429 17.6099 9.02669 17.6057 9.02896 17.6013C9.03122 17.5969 9.03339 17.5925 9.03543 17.5881C9.03746 17.5838 9.03938 17.5792 9.04118 17.5747C9.04298 17.5701 9.04467 17.5656 9.04622 17.561C9.04777 17.5563 9.04918 17.5517 9.05048 17.547C9.05178 17.5424 9.05296 17.5377 9.054 17.533C9.05505 17.5282 9.05596 17.5235 9.05675 17.5187C9.05755 17.5139 9.05821 17.5092 9.05873 17.5044C9.05925 17.4996 9.05966 17.4948 9.05993 17.49C9.0602 17.4852 9.06034 17.4803 9.06036 17.4755L9.06036 14.778L14.8767 14.778L14.8767 17.4755C14.8767 17.6381 15.0224 17.7697 15.2016 17.7697L19.4053 17.7697C19.4105 17.7697 19.4159 17.7696 19.4212 17.7694C19.4264 17.7692 19.4318 17.7688 19.437 17.7683C19.4423 17.7678 19.4475 17.7673 19.4527 17.7666C19.458 17.7659 19.4632 17.765 19.4684 17.7641C19.4737 17.7632 19.4789 17.7622 19.4841 17.7609C19.4892 17.7597 19.4942 17.7585 19.4994 17.7571C19.5045 17.7557 19.5095 17.7541 19.5145 17.7525C19.5196 17.7509 19.5246 17.7492 19.5294 17.7474C19.5343 17.7455 19.5391 17.7435 19.544 17.7414C19.5488 17.7395 19.5535 17.7372 19.5581 17.7349C19.5628 17.7326 19.5674 17.7304 19.5721 17.7279C19.5765 17.7254 19.581 17.7228 19.5854 17.7202C19.5899 17.7175 19.5941 17.7147 19.5984 17.7119C19.6029 17.7089 19.6069 17.7059 19.611 17.7029C19.6151 17.6999 19.6191 17.6968 19.6232 17.6936C19.6271 17.6903 19.6309 17.6869 19.6346 17.6836C19.6383 17.6803 19.642 17.6767 19.6457 17.673C19.6493 17.6695 19.6528 17.6658 19.6561 17.6621C19.6594 17.6585 19.6627 17.6548 19.6658 17.6509C19.6691 17.647 19.6722 17.643 19.6751 17.6389C19.678 17.6349 19.6809 17.6309 19.6836 17.6268C19.6863 17.6228 19.689 17.6186 19.6916 17.6143C19.6941 17.6099 19.6964 17.6057 19.6987 17.6013C19.7009 17.5969 19.703 17.5925 19.7051 17.5881C19.7073 17.5838 19.7092 17.5792 19.7109 17.5747C19.7127 17.5701 19.7144 17.5656 19.716 17.561C19.7175 17.5563 19.7189 17.5517 19.7202 17.547C19.7216 17.5424 19.7228 17.5377 19.7237 17.533C19.7247 17.5282 19.7257 17.5235 19.7264 17.5187C19.7272 17.5139 19.7278 17.5092 19.7284 17.5044C19.729 17.4996 19.7293 17.4948 19.7297 17.49C19.7299 17.4852 19.7301 17.4803 19.7301 17.4755L19.7301 11.7093L21.6212 9.58841C21.627 9.58191 21.6324 9.57519 21.6377 9.56827C21.6429 9.56134 21.6477 9.55422 21.6522 9.54691C21.6566 9.53961 21.6609 9.53214 21.6646 9.52453C21.6685 9.5169 21.6719 9.50915 21.675 9.50126C21.6781 9.49337 21.6808 9.48539 21.6832 9.47728C21.6855 9.46918 21.6874 9.46102 21.689 9.45278C21.6905 9.44453 21.6917 9.43624 21.6925 9.42789C21.6932 9.41956 21.6936 9.41121 21.6936 9.40282L21.6936 5.3398L23.6128 5.3398C23.6182 5.33981 23.6236 5.33969 23.6289 5.33946C23.6341 5.33923 23.6395 5.3389 23.6448 5.33842C23.65 5.33797 23.6554 5.33739 23.6606 5.33668C23.6659 5.33598 23.6711 5.33517 23.6763 5.33424C23.6816 5.33331 23.6868 5.33225 23.692 5.33108C23.6973 5.32992 23.7023 5.32863 23.7073 5.32724C23.7126 5.32586 23.7176 5.32434 23.7224 5.32273C23.7275 5.32109 23.7325 5.31937 23.7373 5.31752C23.7422 5.31568 23.7472 5.31373 23.7521 5.31167C23.7569 5.30961 23.7616 5.30745 23.7662 5.30518C23.771 5.30292 23.7757 5.30054 23.7802 5.29806C23.7848 5.29559 23.7893 5.293 23.7937 5.29033C23.7982 5.28764 23.8024 5.28486 23.8067 5.282C23.8111 5.27913 23.8152 5.27616 23.8193 5.27309C23.8233 5.27003 23.8274 5.26688 23.8315 5.26365C23.8356 5.2604 23.8394 5.25707 23.8431 5.25366C23.8468 5.25025 23.8505 5.24675 23.8541 5.24317C23.8576 5.2396 23.8611 5.23594 23.8646 5.23222C23.8679 5.22847 23.8712 5.22468 23.8743 5.22079C23.8776 5.21691 23.8807 5.21297 23.8836 5.20896C23.8865 5.20494 23.8894 5.20086 23.8921 5.19673C23.8948 5.19258 23.8975 5.18838 23.9001 5.18412C23.9026 5.17985 23.9049 5.17555 23.9072 5.17119C23.9093 5.16681 23.9115 5.1624 23.9136 5.15793C23.9157 5.15347 23.9177 5.14897 23.9194 5.14441C23.9212 5.13986 23.9229 5.13529 23.9245 5.13067C23.926 5.12605 23.9274 5.12139 23.9287 5.11669C23.9301 5.112 23.9312 5.10729 23.9322 5.10256C23.9332 5.09783 23.9341 5.09307 23.9349 5.08829C23.9357 5.08351 23.9363 5.07871 23.9369 5.07391C23.9374 5.06909 23.9378 5.06428 23.938 5.05946C23.9382 5.05463 23.9384 5.04979 23.9384 5.04496L23.9384 3.94075C23.9382 3.92912 23.937 3.91753 23.9353 3.906C23.9336 3.89447 23.9308 3.88308 23.9276 3.87185C23.9243 3.8606 23.9202 3.84957 23.9154 3.83878C23.9105 3.82799 23.9051 3.81749 23.8987 3.80732L23.9022 3.80607L21.8319 0.159519C21.8284 0.15353 21.8248 0.147654 21.8211 0.14189C21.8172 0.136127 21.8131 0.13049 21.8089 0.124979C21.8046 0.119469 21.8002 0.114098 21.7953 0.108866C21.7907 0.103635 21.7858 0.0985548 21.7808 0.0936266C21.7758 0.0886983 21.7705 0.0839336 21.7651 0.0793322C21.7597 0.0747308 21.7541 0.0703035 21.7483 0.0660503C21.7426 0.0617975 21.7366 0.0577287 21.7306 0.0538439C21.7246 0.0499593 21.7184 0.0462681 21.712 0.0427702C21.7056 0.0392725 21.6993 0.0359763 21.6925 0.0328815C21.6859 0.029787 21.6793 0.0269012 21.6725 0.0242244C21.6657 0.0215476 21.6588 0.0190862 21.6518 0.0168397C21.6448 0.0145933 21.6377 0.0125675 21.6305 0.0107621C21.6233 0.00895679 21.6162 0.00737622 21.6088 0.00602042C21.6016 0.00466462 21.5943 0.00353677 21.5869 0.00263688C21.5795 0.00173699 21.5722 0.00106719 21.5648 0.000627462C21.5573 0.00018774 21.5499 -2.08666e-05 21.5425 1.64442e-06L2.39589 1.64442e-06C2.27415 1.64442e-06 2.16336 0.0620705 2.10726 0.159519L0.0362497 3.80607L0.0396694 3.80732C0.0334186 3.81755 0.0278767 3.82808 0.0230439 3.83892C0.0182111 3.84977 0.0141233 3.86084 0.0107803 3.87214C0.00743738 3.88345 0.00486421 3.89487 0.00306078 3.90646C0.00125736 3.91804 0.0002371 3.9297 0 3.94139L0 5.04559C0 5.20821 0.145682 5.34041 0.324879 5.34041L0.324879 5.3398ZM8.41129 17.1807L4.85745 17.1807L4.85745 11.6044C4.85745 11.596 4.85706 11.5877 4.85627 11.5793C4.85548 11.571 4.85431 11.5627 4.85274 11.5545C4.85118 11.5462 4.84924 11.5381 4.84689 11.53C4.84457 11.5218 4.84186 11.5139 4.83878 11.506C4.8357 11.4981 4.83225 11.4903 4.82843 11.4827C4.82462 11.4751 4.82047 11.4676 4.81596 11.4603C4.81145 11.453 4.80661 11.4459 4.80143 11.439C4.79626 11.432 4.79076 11.4253 4.78495 11.4188L2.89314 9.29855L2.89314 5.3398L8.41129 5.3398L8.41129 17.1807ZM14.8774 14.189L9.06103 14.189L9.06103 12.7459L14.8774 12.7459L14.8774 14.189ZM14.8774 12.1568L9.06103 12.1568L9.06103 5.33918L14.8774 5.33918L14.8774 12.1556L14.8774 12.1568ZM21.0453 9.29855L19.1535 11.4188C19.1477 11.4253 19.1422 11.4321 19.137 11.439C19.1318 11.446 19.1269 11.4531 19.1224 11.4604C19.1179 11.4678 19.1137 11.4753 19.1099 11.4829C19.1061 11.4906 19.1026 11.4983 19.0995 11.5063C19.0965 11.5142 19.0938 11.5222 19.0914 11.5303C19.0891 11.5385 19.0872 11.5466 19.0856 11.5549C19.0841 11.5632 19.0829 11.5715 19.0821 11.5799C19.0814 11.5883 19.081 11.5966 19.081 11.605L19.081 17.1807L15.5265 17.1807L15.5265 5.3398L21.0453 5.3398L21.0453 9.29855ZM2.59356 0.589036L21.345 0.589036L23.0815 3.64593L0.856997 3.64593L2.59424 0.589656L2.59356 0.589036ZM0.649757 4.23559L23.2901 4.23559L23.2901 4.75075L0.649073 4.75075L0.649073 4.23559L0.649757 4.23559Z"></path></g></g><defs><rect id="path_0" x="0" y="0" width="24" height="18" rx="0" ry="0"/></defs></svg>