<svg xmlns="http://www.w3.org/2000/svg" xmlns:xlink="http://www.w3.org/1999/xlink" width="24" height="24" viewBox="0 0 24 24" fill="none"><g opacity="1"  transform="translate(0 0)"><mask id="bg-mask-0" fill="white"><use transform="translate(0 0)" xlink:href="#path_0"></use></mask><g mask="url(#bg-mask-0)" ><path id="路径 1" fill-rule="evenodd" style="fill:#00BAAD" opacity="1" d="M20.334 3.7545C16.827 3.35775 14.1885 2.409 12.492 0.933751L12.0457 0.546001L11.5642 0.889501C8.9055 2.78775 6.276 3.75 3.75 3.75L3 3.75L3 14.25C3 17.469 5.838 20.3888 11.6768 23.1765L11.9835 23.3228L12.2963 23.1885C18.072 20.7075 21 17.7008 21 14.25L21 3.83025L20.334 3.7545ZM19.5 14.25C19.5 16.9875 16.983 19.485 12.0157 21.675C7.02825 19.2428 4.5 16.7453 4.5 14.25L4.5 5.226C6.95325 5.067 9.459 4.13175 11.9648 2.43825C13.7633 3.80925 16.293 4.7235 19.5 5.16225L19.5 14.25ZM8.43225 10.9845C8.42412 10.9753 8.41577 10.9663 8.4072 10.9575C8.39862 10.9487 8.38983 10.9401 8.38085 10.9318C8.37185 10.9234 8.36266 10.9153 8.35327 10.9073C8.34387 10.8994 8.3343 10.8918 8.32453 10.8843C8.31476 10.8769 8.3048 10.8697 8.29467 10.8627C8.28457 10.8558 8.27428 10.8491 8.26383 10.8426C8.25338 10.8362 8.24276 10.83 8.232 10.8241C8.22124 10.8181 8.21037 10.8125 8.19933 10.8071C8.18829 10.8017 8.17711 10.7966 8.16584 10.7918C8.15456 10.7869 8.14315 10.7824 8.13164 10.7781C8.12013 10.7738 8.10853 10.7698 8.09681 10.7661C8.08512 10.7623 8.07333 10.7589 8.06145 10.7558C8.04956 10.7527 8.03763 10.7498 8.02561 10.7473C8.01361 10.7447 8.00154 10.7425 7.98942 10.7405C7.9773 10.7386 7.96512 10.7369 7.95291 10.7355C7.9407 10.7342 7.92848 10.7331 7.91623 10.7324C7.90397 10.7316 7.89169 10.7312 7.87941 10.731C7.86713 10.7308 7.85484 10.731 7.84259 10.7314C7.83033 10.7319 7.81807 10.7326 7.80581 10.7337C7.79358 10.7348 7.78137 10.7361 7.7692 10.7377C7.75704 10.7394 7.74492 10.7413 7.73285 10.7436C7.72078 10.7458 7.70876 10.7483 7.6968 10.7512C7.68488 10.754 7.67299 10.7572 7.6612 10.7606C7.64941 10.764 7.6377 10.7677 7.62607 10.7717C7.61447 10.7757 7.60296 10.7799 7.59155 10.7845C7.58013 10.7891 7.56886 10.7939 7.5577 10.799C7.54652 10.8041 7.53548 10.8095 7.52459 10.8152C7.51369 10.8208 7.50293 10.8267 7.49231 10.8329C7.4817 10.8391 7.47124 10.8455 7.46095 10.8522C7.45066 10.8589 7.44054 10.8659 7.43058 10.8731C7.42062 10.8803 7.41084 10.8877 7.40126 10.8953C7.39167 10.903 7.3823 10.9109 7.37309 10.9191C7.36387 10.9272 7.35488 10.9355 7.34609 10.9441C7.3373 10.9527 7.32872 10.9615 7.32035 10.9705C7.31198 10.9795 7.30385 10.9887 7.29595 10.9981C7.28805 11.0075 7.28037 11.0171 7.27294 11.0268C7.26551 11.0366 7.25831 11.0465 7.25135 11.0567C7.24441 11.0668 7.23771 11.0771 7.23127 11.0875C7.22482 11.098 7.21866 11.1086 7.21273 11.1194C7.2068 11.1301 7.20115 11.141 7.19576 11.1521C7.19037 11.1631 7.18526 11.1743 7.18043 11.1855C7.17558 11.1968 7.17103 11.2082 7.16674 11.2197C7.16245 11.2313 7.15847 11.2429 7.15477 11.2546C7.15104 11.2663 7.14762 11.2781 7.1445 11.2899C7.14136 11.3018 7.13852 11.3138 7.13599 11.3258C7.13344 11.3378 7.13119 11.3499 7.12924 11.362C7.1273 11.3741 7.12563 11.3863 7.12427 11.3985C7.12294 11.4107 7.12188 11.4229 7.12111 11.4352C7.12036 11.4474 7.11991 11.4597 7.11977 11.472C7.11961 11.4843 7.11977 11.4965 7.12022 11.5088C7.12066 11.5211 7.12141 11.5333 7.12247 11.5456C7.12352 11.5578 7.12488 11.57 7.12655 11.5822C7.12819 11.5943 7.13013 11.6065 7.13238 11.6186C7.13463 11.6306 7.13719 11.6426 7.14002 11.6546C7.14286 11.6665 7.146 11.6784 7.14942 11.6902C7.15282 11.702 7.15652 11.7137 7.16053 11.7253C7.16454 11.7369 7.1688 11.7484 7.17338 11.7598C7.17795 11.7712 7.18277 11.7825 7.18788 11.7937C7.19302 11.8048 7.19841 11.8159 7.20405 11.8268C7.2097 11.8377 7.21563 11.8484 7.2218 11.859C7.22798 11.8697 7.23443 11.8801 7.24113 11.8904C7.24784 11.9007 7.25477 11.9108 7.26197 11.9208C7.26916 11.9307 7.27662 11.9405 7.28428 11.9501C7.29195 11.9597 7.29987 11.969 7.308 11.9783L10.1625 15.2085C10.458 15.5423 10.8698 15.714 11.2852 15.714C11.2991 15.714 11.313 15.7138 11.3269 15.7134C11.3407 15.713 11.3546 15.7124 11.3684 15.7116C11.3823 15.7109 11.3961 15.7099 11.4099 15.7087C11.4237 15.7076 11.4375 15.7062 11.4513 15.7047C11.4651 15.7031 11.4789 15.7014 11.4926 15.6995C11.5063 15.6976 11.52 15.6955 11.5337 15.6932C11.5474 15.6909 11.561 15.6884 11.5747 15.6857C11.5883 15.683 11.6018 15.6802 11.6154 15.6771C11.6289 15.6741 11.6424 15.6709 11.6558 15.6675C11.6693 15.664 11.6827 15.6604 11.696 15.6566C11.7094 15.6529 11.7226 15.6489 11.7359 15.6447C11.7491 15.6406 11.7623 15.6362 11.7754 15.6317C11.7885 15.6272 11.8016 15.6225 11.8145 15.6176C11.8275 15.6128 11.8404 15.6077 11.8533 15.6025C11.8661 15.5972 11.8789 15.5918 11.8916 15.5862C11.9043 15.5806 11.9169 15.5749 11.9294 15.5689C11.942 15.563 11.9544 15.5569 11.9668 15.5506C11.9791 15.5444 11.9914 15.5379 12.0036 15.5313C12.0158 15.5247 12.0279 15.5179 12.0399 15.511C12.0519 15.504 12.0638 15.4969 12.0756 15.4896C12.0874 15.4823 12.0991 15.4749 12.1107 15.4673C12.1223 15.4597 12.1338 15.4519 12.1452 15.444C12.1566 15.4361 12.1679 15.428 12.1791 15.4198C12.1902 15.4116 12.2013 15.4032 12.2122 15.3947C12.2231 15.3861 12.234 15.3775 12.2446 15.3686C12.2554 15.3598 12.2659 15.3508 12.2764 15.3417C12.2868 15.3326 12.2971 15.3233 12.3073 15.3139C12.3175 15.3045 12.3276 15.295 12.3375 15.2853C12.3474 15.2756 12.3572 15.2658 12.3669 15.2558C12.3765 15.2459 12.3861 15.2358 12.3954 15.2256C12.4048 15.2153 12.4141 15.205 12.4232 15.1945C12.4323 15.1841 12.4412 15.1735 12.45 15.1628L17.0812 9.474C17.089 9.46449 17.0965 9.45478 17.1038 9.44489C17.1111 9.435 17.1181 9.42495 17.1249 9.4147C17.1316 9.40446 17.1382 9.39408 17.1445 9.38353C17.1507 9.37298 17.1567 9.36227 17.1625 9.35142C17.1682 9.34057 17.1737 9.3296 17.1789 9.31849C17.1841 9.30736 17.189 9.29613 17.1937 9.28477C17.1984 9.2734 17.2027 9.26194 17.2068 9.25036C17.2109 9.23881 17.2147 9.22713 17.2182 9.21537C17.2218 9.2036 17.225 9.19177 17.2279 9.17986C17.2308 9.16793 17.2335 9.15595 17.2358 9.14391C17.2382 9.13186 17.2402 9.11977 17.242 9.1076C17.2437 9.09544 17.2452 9.08325 17.2464 9.07104C17.2475 9.05883 17.2484 9.04657 17.2489 9.03431C17.2495 9.02206 17.2497 9.0098 17.2497 8.99752C17.2496 8.98524 17.2493 8.97298 17.2486 8.96072C17.248 8.94846 17.247 8.93623 17.2458 8.92402C17.2446 8.91181 17.243 8.89962 17.2412 8.88748C17.2393 8.87536 17.2372 8.86327 17.2347 8.85124C17.2323 8.83922 17.2295 8.82724 17.2265 8.81534C17.2235 8.80345 17.2202 8.79164 17.2166 8.7799C17.2129 8.76816 17.2091 8.75653 17.2049 8.745C17.2007 8.73345 17.1962 8.72201 17.1915 8.71069C17.1868 8.69937 17.1818 8.68819 17.1765 8.6771C17.1712 8.66602 17.1656 8.65507 17.1598 8.64427C17.154 8.63346 17.1479 8.62282 17.1415 8.6123C17.1352 8.6018 17.1286 8.59146 17.1217 8.58129C17.1148 8.57109 17.1077 8.56109 17.1004 8.55127C17.093 8.54145 17.0854 8.53179 17.0776 8.52232C17.0698 8.51288 17.0618 8.50362 17.0535 8.49455C17.0452 8.48548 17.0367 8.47662 17.028 8.46797C17.0193 8.45932 17.0104 8.45091 17.0012 8.44268C16.9921 8.43448 16.9828 8.42651 16.9733 8.41875C16.9637 8.41099 16.954 8.40349 16.9441 8.3962C16.9342 8.38894 16.9242 8.38191 16.914 8.37513C16.9037 8.36836 16.8933 8.36182 16.8828 8.35554C16.8722 8.34928 16.8615 8.34326 16.8507 8.33752C16.8398 8.33177 16.8289 8.32631 16.8177 8.32111C16.8066 8.31588 16.7954 8.31096 16.784 8.3063C16.7726 8.30166 16.7612 8.2973 16.7496 8.2932C16.7381 8.28909 16.7264 8.2853 16.7146 8.28178C16.7029 8.27827 16.691 8.27503 16.6791 8.2721C16.6672 8.26917 16.6552 8.26653 16.6432 8.26416C16.6311 8.26181 16.619 8.25978 16.6069 8.25802C16.5947 8.25626 16.5825 8.25478 16.5703 8.25363C16.5581 8.25249 16.5458 8.25162 16.5336 8.25108C16.5213 8.25052 16.509 8.25026 16.4968 8.25031C16.4845 8.25035 16.4722 8.2507 16.46 8.25136C16.4477 8.25199 16.4355 8.25295 16.4233 8.2542C16.4111 8.25544 16.3989 8.25699 16.3867 8.25884C16.3746 8.26069 16.3625 8.26285 16.3505 8.26528C16.3385 8.26772 16.3265 8.27046 16.3146 8.27349C16.3027 8.27651 16.2909 8.27984 16.2791 8.28345C16.2674 8.28706 16.2558 8.29095 16.2443 8.29512C16.2327 8.29931 16.2213 8.30377 16.2099 8.3085C16.1986 8.31324 16.1874 8.31825 16.1764 8.32355C16.1653 8.32885 16.1543 8.3344 16.1435 8.34024C16.1327 8.34607 16.1221 8.35214 16.1116 8.35849C16.101 8.36485 16.0907 8.37143 16.0805 8.3783C16.0703 8.38517 16.0603 8.39227 16.0505 8.39963C16.0407 8.40696 16.031 8.41456 16.0216 8.42238C16.0121 8.43021 16.0029 8.43825 15.9938 8.44652C15.9847 8.4548 15.9759 8.46331 15.9672 8.47202C15.9586 8.48074 15.9502 8.48967 15.9419 8.49879C15.9337 8.50791 15.9258 8.51724 15.918 8.52675L11.2867 14.2148L8.43225 10.9845Z"></path></g></g><defs><rect id="path_0" x="0" y="0" width="24" height="24" rx="0" ry="0"/></defs></svg>