<svg xmlns="http://www.w3.org/2000/svg" xmlns:xlink="http://www.w3.org/1999/xlink" width="24" height="24" viewBox="0 0 24 24" fill="none"><g opacity="1"  transform="translate(0 0)"><mask id="bg-mask-0" fill="white"><use transform="translate(0 0)" xlink:href="#path_0"></use></mask><g mask="url(#bg-mask-0)" ><path id="路径 1" fill-rule="evenodd" style="fill:#C4C4C4" opacity="1" d="M20.7183 3.0142L20.7183 0.508002L19.4811 0.508002L19.4811 3.01438L17.2675 3.01438L17.2675 -0.5236L6.73393 -0.5236L6.73393 3.0142L4.51114 3.0142L4.51114 0.508002L3.28335 0.508002L3.28335 3.01438L0.989746 3.01438L0.989746 5.8728L2.46435 5.8728L2.46435 15.0134L5.32296 15.0134L5.32296 5.8728L5.82596 5.8728L5.82596 13.121L8.57196 18.698L9.69253 18.698L9.69253 24.6518C10.0565 24.5979 10.4176 24.5674 10.7767 24.5559L10.7767 18.698L13.2247 18.698L13.2247 24.6687C13.2283 24.6687 13.2318 24.6689 13.2352 24.6694C13.4569 24.5967 13.7092 24.5773 13.986 24.6326C14.0969 24.6548 14.2083 24.6738 14.3201 24.6912L14.3201 18.698L15.4403 18.698L18.1757 13.1208L18.1757 5.8728L18.6733 5.8728L18.6733 15.0134L21.5321 15.0134L21.5321 5.8728L23.0065 5.8728L23.0065 3.0142L20.7183 3.0142ZM7.82372 0.566202L16.1779 0.566202L16.1779 3.0142L7.82372 3.0142L7.82372 0.566202ZM4.23333 13.9234L3.55393 13.9234L3.55393 5.8728L4.23333 5.8728L4.23333 13.9234ZM17.0859 12.8666L14.7521 17.6086L9.24396 17.6086L6.91557 12.8666L6.91557 5.8728L17.0859 5.8728L17.0859 12.8666ZM20.4529 13.9234L19.7739 13.9234L19.7739 5.8728L20.4529 5.8728L20.4529 13.9234ZM21.9221 4.783L2.07935 4.783L2.07935 4.10399L21.9221 4.10399L21.9221 4.783ZM9.69253 23.5024L14.3201 23.5024L14.3201 24.7319L9.69253 24.7319L9.69253 23.5024Z"></path></g></g><defs><rect id="path_0" x="0" y="0" width="24" height="24" rx="0" ry="0"/></defs></svg>