<svg xmlns="http://www.w3.org/2000/svg" xmlns:xlink="http://www.w3.org/1999/xlink" width="24" height="24" viewBox="0 0 24 24" fill="none"><g opacity="1"  transform="translate(0 0)"><mask id="bg-mask-0" fill="white"><use transform="translate(0 0)" xlink:href="#path_0"></use></mask><g mask="url(#bg-mask-0)" ><path id="路径 1" fill-rule="evenodd" style="fill:#E5E5E5" opacity="1" d="M14.25 21.5L14.25 6.25001L9.25002 6.25001L9.25002 21.5L14.25 21.5ZM15.25 21.5L20.5 21.5L20.5 6.25001L15.25 6.25001L15.25 21.5ZM8.25001 21.5L8.25001 6.25001L3 6.25001L3 21.5L8.25001 21.5ZM19.7 5.25L16.6 2.50001L6.90001 2.50001L3.85001 5.25L19.7 5.25ZM21.25 5.29999C21.3 5.35001 21.35 5.35001 21.4 5.4L21.5 5.50001L21.5 21.5C21.5 22.05 21.05 22.5 20.5 22.5L3 22.5C2.44999 22.5 2 22.05 2 21.5L2 5.59999L6.2 1.75C6.40002 1.6 6.65 1.5 6.90001 1.5L16.65 1.5C16.9 1.5 17.15 1.6 17.3 1.75L21.25 5.29999ZM4.95001 8.25C4.95001 7.95 5.15 7.75001 5.45 7.75001C5.75 7.75001 5.95002 7.95 5.95002 8.25L5.95002 11.25C5.95002 11.55 5.75 11.75 5.45 11.75C5.15 11.75 4.95001 11.55 4.95001 11.25L4.95001 8.25ZM11.45 8.25C11.45 7.95 11.65 7.75001 11.95 7.75001C12.25 7.75001 12.45 7.95 12.45 8.25L12.45 11.25C12.45 11.55 12.25 11.75 11.95 11.75C11.65 11.75 11.45 11.55 11.45 11.25L11.45 8.25ZM17.9 8.25C17.9 7.95 18.1 7.75001 18.4 7.75001C18.7 7.75001 18.9 7.95 18.9 8.25L18.9 11.25C18.9 11.55 18.7 11.75 18.4 11.75C18.1 11.75 17.9 11.55 17.9 11.25L17.9 8.25Z"></path></g></g><defs><rect id="path_0" x="0" y="0" width="24" height="24" rx="0" ry="0"/></defs></svg>