<svg xmlns="http://www.w3.org/2000/svg" xmlns:xlink="http://www.w3.org/1999/xlink" width="24" height="24" viewBox="0 0 24 24" fill="none"><g opacity="1"  transform="translate(0 0)"><mask id="bg-mask-0" fill="white"><use transform="translate(0 0)" xlink:href="#path_0"></use></mask><g mask="url(#bg-mask-0)" ><path id="路径 1" fill-rule="evenodd" style="fill:#00D9D5" opacity="1" d="M17.016 12.984L6.985 12.984L6.985 5.01499C6.985 3.93701 7.92299 2.99899 9.001 2.99899L15.001 2.99899C16.079 2.99899 17.017 3.93701 17.017 5.01499L17.017 12.984L17.016 12.984ZM2.01599 9.984L5.01599 9.984L5.01599 12.984L2.01599 12.984L2.01599 9.984ZM18.984 9.984L21.984 9.984L21.984 12.984L18.984 12.984L18.984 9.984ZM3.98399 21L3.98399 15L20.015 15L20.015 21L17.015 21L17.015 18L6.98399 18L6.98399 21L3.98399 21Z"></path></g></g><defs><rect id="path_0" x="0" y="0" width="24" height="24" rx="0" ry="0"/></defs></svg>