<svg xmlns="http://www.w3.org/2000/svg" xmlns:xlink="http://www.w3.org/1999/xlink" width="24" height="24" viewBox="0 0 24 24" fill="none"><g opacity="1"  transform="translate(0 0)"><mask id="bg-mask-0" fill="white"><use transform="translate(0 0)" xlink:href="#path_0"></use></mask><g mask="url(#bg-mask-0)" ><path id="路径 1" fill-rule="evenodd" style="fill:#C4C4C4" opacity="1" d="M11.8922 10.9734C9.14067 10.9734 6.54849 10.5117 4.59614 9.67266C2.58052 8.80781 1.47192 7.63125 1.47192 6.36328C1.47192 5.09531 2.58286 3.9211 4.59614 3.05391C6.55083 2.21719 9.14067 1.75547 11.8922 1.75547C14.6438 1.75547 17.236 2.21719 19.1883 3.05625C21.204 3.9211 22.3125 5.09766 22.3125 6.36563C22.3125 7.63359 21.2016 8.80781 19.1883 9.675C17.236 10.5117 14.6461 10.9734 11.8922 10.9734ZM11.8922 2.22422C9.20161 2.22422 6.67739 2.67188 4.7813 3.4875C3.87427 3.87656 3.16411 4.32891 2.67192 4.82813C2.18911 5.32031 1.94067 5.83594 1.94067 6.36328C1.94067 6.89063 2.18677 7.4086 2.67427 7.90078C3.16646 8.4 3.87427 8.85 4.78364 9.24141C6.67974 10.0547 9.20395 10.5047 11.8946 10.5047C14.5852 10.5047 17.1094 10.057 19.0055 9.24141C19.9125 8.85234 20.6227 8.4 21.1149 7.90078C21.6024 7.40625 21.8485 6.88828 21.8485 6.36328C21.8485 5.83828 21.6024 5.31797 21.1149 4.82578C20.6227 4.32656 19.9149 3.87656 19.0055 3.48516C17.1094 2.67188 14.5829 2.22422 11.8922 2.22422ZM1.47896 6.2086L1.94771 6.2086L1.94771 17.8148L1.47896 17.8148L1.47896 6.2086ZM22.0805 18.075C21.9516 18.075 21.8461 17.9695 21.8461 17.8406L21.8461 6.36328C21.8461 6.23438 21.9516 6.12891 22.0805 6.12891C22.2094 6.12891 22.3149 6.23438 22.3149 6.36328L22.3149 17.8406C22.3149 17.9695 22.2094 18.075 22.0805 18.075ZM3.66567 12.5531C3.17349 12.5531 2.77505 12.1547 2.77505 11.6625C2.77505 11.1703 3.17349 10.7719 3.66567 10.7719C4.15786 10.7719 4.5563 11.1703 4.5563 11.6625C4.5563 12.1547 4.15786 12.5531 3.66567 12.5531ZM3.66567 11.2406C3.43364 11.2406 3.2438 11.4305 3.2438 11.6625C3.2438 11.8945 3.43364 12.0844 3.66567 12.0844C3.89771 12.0844 4.08755 11.8945 4.08755 11.6625C4.08755 11.4305 3.90005 11.2406 3.66567 11.2406ZM3.66567 18.3328C3.17349 18.3328 2.77505 17.9344 2.77505 17.4422C2.77505 16.95 3.17349 16.5516 3.66567 16.5516C4.15786 16.5516 4.5563 16.95 4.5563 17.4422C4.5563 17.9344 4.15786 18.3328 3.66567 18.3328ZM3.66567 17.0203C3.43364 17.0203 3.2438 17.2102 3.2438 17.4422C3.2438 17.6742 3.43364 17.8641 3.66567 17.8641C3.89771 17.8641 4.08755 17.6742 4.08755 17.4422C4.08755 17.2102 3.90005 17.0203 3.66567 17.0203ZM11.8829 16.8281C9.22505 16.8281 6.69614 16.3922 4.76724 15.6023C2.78911 14.7938 1.62192 13.6828 1.47661 12.4734L1.94302 12.4172C2.00396 12.9258 2.29458 13.4227 2.80786 13.8961C3.32583 14.3719 4.04536 14.8008 4.94536 15.1688C6.82036 15.9375 9.28364 16.3594 11.8829 16.3594C14.5735 16.3594 17.0977 15.9117 18.9938 15.0961C19.9008 14.707 20.611 14.2547 21.1032 13.7555C21.5907 13.2609 21.8368 12.743 21.8368 12.218C21.8368 12.1359 21.8297 12.0516 21.818 11.9695L22.2821 11.9016C22.2985 12.007 22.3055 12.1125 22.3055 12.218C22.3055 13.4859 21.1946 14.6602 19.1813 15.5273C17.2266 16.3664 14.6344 16.8281 11.8829 16.8281ZM11.9016 22.282C6.05864 22.282 1.4813 20.257 1.4813 17.6719L1.95005 17.6719C1.95005 18.1992 2.1938 18.7172 2.67427 19.2117C3.16177 19.7109 3.86489 20.1609 4.76724 20.55C6.65395 21.3633 9.18755 21.8133 11.9016 21.8133C14.5922 21.8133 17.1165 21.3656 19.0125 20.55C19.9196 20.1609 20.6297 19.7086 21.1219 19.2094C21.6094 18.7148 21.8555 18.1969 21.8555 17.6719C21.8555 17.6227 21.8532 17.5734 21.8485 17.5242L22.3125 17.4844C22.3172 17.5477 22.3219 17.6109 22.3219 17.6719C22.3219 18.9398 21.211 20.1141 19.1977 20.9813C17.243 21.8203 14.6532 22.282 11.9016 22.282ZM4.0688 7.99688C4.03833 7.99688 4.00786 7.99219 3.97974 7.98047C3.89067 7.94531 3.83442 7.8586 3.83442 7.7625L3.83442 3.63985C3.83442 3.51094 3.93989 3.40547 4.0688 3.40547C4.19771 3.40547 4.30317 3.51094 4.30317 3.63985L4.30317 7.19297L5.47505 6.00469C5.54067 5.93672 5.6438 5.91563 5.73052 5.95313L7.0688 6.50156L7.0688 2.67188C7.0688 2.54297 7.17427 2.4375 7.30317 2.4375C7.43208 2.4375 7.53755 2.54297 7.53755 2.67188L7.53755 6.84844C7.53755 6.92578 7.4977 6.99844 7.43442 7.04297C7.3688 7.0875 7.28677 7.09453 7.21411 7.06406L5.6977 6.44297L4.2352 7.92656C4.19067 7.97344 4.12974 7.99688 4.0688 7.99688ZM4.12036 5.41172L3.85786 5.02266C4.48364 4.60078 5.57817 4.01016 7.24458 3.57891L7.36177 4.0336C5.76099 4.4461 4.71567 5.01094 4.12036 5.41172Z"></path></g></g><defs><rect id="path_0" x="0" y="0" width="24" height="24" rx="0" ry="0"/></defs></svg>