<svg xmlns="http://www.w3.org/2000/svg" xmlns:xlink="http://www.w3.org/1999/xlink" width="24" height="24" viewBox="0 0 24 24" fill="none"><g opacity="1"  transform="translate(0 0)"><mask id="bg-mask-0" fill="white"><use transform="translate(0 0)" xlink:href="#path_0"></use></mask><g mask="url(#bg-mask-0)" ><path id="路径 1" fill-rule="evenodd" style="fill:#E5E5E5" opacity="1" d="M24 7.5L0 7.5L0 0L24 0L24 7.5ZM1.5 6L22.5 6L22.5 1.5L1.5 1.5L1.5 6ZM20.4 2.55C19.8 2.55 19.2 3.15 19.2 3.75C19.2 4.35 19.8 4.95 20.4 4.95C21 4.95 21.6 4.35 21.6 3.75C21.6 3.15 21.15 2.55 20.4 2.55ZM16.95 2.55C16.35 2.55 15.75 3.15 15.75 3.75C15.75 4.35 16.35 4.95 16.95 4.95C17.55 4.95 18.15 4.35 18.15 3.75C18.15 3.15 17.7 2.55 16.95 2.55ZM13.5 2.55C12.9 2.55 12.3 3 12.3 3.75C12.3 4.5 12.9 4.95 13.5 4.95C14.1 4.95 14.7 4.35 14.7 3.75C14.7 3.15 14.25 2.55 13.5 2.55ZM20.4 10.8C19.8 10.8 19.2 11.4 19.2 12C19.2 12.6 19.8 13.2 20.4 13.2C21 13.2 21.6 12.6 21.6 12C21.6 11.4 21.15 10.8 20.4 10.8ZM16.95 10.8C16.35 10.8 15.75 11.4 15.75 12C15.75 12.6 16.35 13.2 16.95 13.2C17.55 13.2 18.15 12.6 18.15 12C18.15 11.4 17.7 10.8 16.95 10.8ZM13.5 10.8C12.9 10.8 12.3 11.4 12.3 12C12.3 12.6 12.9 13.2 13.5 13.2C14.1 13.2 14.7 12.6 14.7 12C14.7 11.4 14.25 10.8 13.5 10.8ZM20.4 19.2C19.8 19.2 19.2 19.8 19.2 20.4C19.2 21 19.8 21.6 20.4 21.6C21 21.6 21.6 21 21.6 20.4C21.6 19.8 21.15 19.2 20.4 19.2ZM16.95 19.2C16.35 19.2 15.75 19.8 15.75 20.4C15.75 21 16.35 21.6 16.95 21.6C17.55 21.6 18.15 21 18.15 20.4C18.15 19.8 17.7 19.2 16.95 19.2ZM13.5 19.2C12.9 19.2 12.3 19.8 12.3 20.4C12.3 21 12.9 21.6 13.5 21.6C14.1 21.6 14.7 21 14.7 20.4C14.7 19.8 14.25 19.2 13.5 19.2ZM24 15.75L0 15.75L0 8.25L24 8.25L24 15.75ZM1.5 14.25L22.5 14.25L22.5 9.75L1.5 9.75L1.5 14.25ZM24 24L0 24L0 16.5L24 16.5L24 24ZM1.5 22.5L22.5 22.5L22.5 18L1.5 18L1.5 22.5Z"></path></g></g><defs><rect id="path_0" x="0" y="0" width="24" height="24" rx="0" ry="0"/></defs></svg>