<svg xmlns="http://www.w3.org/2000/svg" xmlns:xlink="http://www.w3.org/1999/xlink" width="24" height="24" viewBox="0 0 24 24" fill="none"><g opacity="1"  transform="translate(0 0)"><mask id="bg-mask-0" fill="white"><use transform="translate(0 0)" xlink:href="#path_0"></use></mask><g mask="url(#bg-mask-0)" ><path id="路径 1" fill-rule="evenodd" style="fill:#E5E5E5" opacity="1" d="M6.75 7.5C6.73772 7.5 6.72545 7.4997 6.7132 7.49909C6.70094 7.49849 6.68869 7.49759 6.67648 7.49639C6.66427 7.49519 6.6521 7.49369 6.63996 7.49189C6.62782 7.49008 6.61573 7.48798 6.60368 7.48559C6.59165 7.4832 6.57968 7.48051 6.56777 7.47752C6.55587 7.47454 6.54404 7.47127 6.53229 7.4677C6.52054 7.46414 6.50888 7.46029 6.49732 7.45615C6.48577 7.45202 6.47433 7.44761 6.46298 7.44291C6.45164 7.4382 6.44042 7.43323 6.42933 7.428C6.41824 7.42275 6.40727 7.41723 6.39645 7.41143C6.38562 7.40565 6.37495 7.3996 6.36443 7.39329C6.3539 7.38698 6.34353 7.38041 6.33333 7.3736C6.32313 7.36679 6.31309 7.35973 6.30323 7.35241C6.29337 7.3451 6.28369 7.33755 6.2742 7.32975C6.26471 7.32197 6.25542 7.31395 6.24633 7.3057C6.23723 7.29747 6.22835 7.28901 6.21968 7.28032C6.21099 7.27165 6.20253 7.26277 6.1943 7.25367C6.18605 7.24458 6.17803 7.23529 6.17025 7.2258C6.16245 7.21631 6.1549 7.20663 6.14759 7.19677C6.14027 7.18691 6.13321 7.17687 6.1264 7.16667C6.11957 7.15647 6.11301 7.1461 6.10671 7.13557C6.1004 7.12504 6.09435 7.11437 6.08857 7.10355C6.08277 7.09273 6.07725 7.08176 6.072 7.07067C6.06675 7.05958 6.06178 7.04836 6.05709 7.03702C6.05239 7.02567 6.04798 7.01422 6.04385 7.00266C6.03971 6.99111 6.03586 6.97946 6.0323 6.96771C6.02873 6.95596 6.02546 6.94413 6.02248 6.93223C6.01949 6.92032 6.0168 6.90835 6.01441 6.89632C6.01202 6.88427 6.00992 6.87218 6.00811 6.86004C6.00631 6.8479 6.00481 6.83573 6.00361 6.82352C6.00241 6.81131 6.00151 6.79906 6.00091 6.7868C6.0003 6.77455 6 6.76228 6 6.75C6 6.73772 6.0003 6.72545 6.00091 6.7132C6.00151 6.70094 6.00241 6.68869 6.00361 6.67648C6.00481 6.66427 6.00631 6.6521 6.00811 6.63996C6.00992 6.62782 6.01202 6.61573 6.01441 6.60368C6.0168 6.59165 6.01949 6.57968 6.02248 6.56777C6.02546 6.55587 6.02873 6.54404 6.0323 6.53229C6.03586 6.52054 6.03971 6.50888 6.04385 6.49732C6.04798 6.48577 6.05239 6.47433 6.05709 6.46298C6.06178 6.45164 6.06675 6.44042 6.072 6.42933C6.07725 6.41824 6.08277 6.40727 6.08857 6.39645C6.09435 6.38562 6.1004 6.37495 6.10671 6.36443C6.11301 6.3539 6.11957 6.34353 6.1264 6.33333C6.13321 6.32313 6.14027 6.31309 6.14759 6.30323C6.1549 6.29337 6.16245 6.28369 6.17025 6.2742C6.17803 6.26471 6.18605 6.25542 6.1943 6.24633C6.20253 6.23723 6.21099 6.22835 6.21968 6.21968C6.22835 6.21099 6.23723 6.20253 6.24633 6.1943C6.25542 6.18605 6.26471 6.17803 6.2742 6.17025C6.28369 6.16245 6.29337 6.1549 6.30323 6.14759C6.31309 6.14027 6.32313 6.13321 6.33333 6.1264C6.34353 6.11959 6.3539 6.11302 6.36443 6.10671C6.37495 6.1004 6.38562 6.09435 6.39645 6.08857C6.40727 6.08277 6.41824 6.07725 6.42933 6.072C6.44042 6.06675 6.45164 6.06178 6.46298 6.05709C6.47433 6.05239 6.48577 6.04798 6.49732 6.04385C6.50888 6.03971 6.52054 6.03586 6.53229 6.0323C6.54404 6.02873 6.55587 6.02546 6.56777 6.02248C6.57968 6.01949 6.59165 6.0168 6.60368 6.01441C6.61573 6.01202 6.62782 6.00992 6.63996 6.00811C6.6521 6.00631 6.66427 6.00481 6.67648 6.00361C6.68869 6.00241 6.70094 6.00151 6.7132 6.00091C6.72545 6.0003 6.73772 6 6.75 6L17.25 6C17.2623 6 17.2745 6.0003 17.2868 6.00091C17.2991 6.00151 17.3113 6.00241 17.3235 6.00361C17.3357 6.00481 17.3479 6.00631 17.36 6.00811C17.3722 6.00992 17.3843 6.01202 17.3963 6.01441C17.4083 6.0168 17.4203 6.01949 17.4322 6.02248C17.4441 6.02546 17.456 6.02873 17.4677 6.0323C17.4795 6.03586 17.4911 6.03971 17.5027 6.04385C17.5142 6.04798 17.5257 6.05239 17.537 6.05709C17.5484 6.06178 17.5596 6.06675 17.5707 6.072C17.5818 6.07725 17.5927 6.08277 17.6036 6.08857C17.6144 6.09435 17.625 6.1004 17.6356 6.10671C17.6461 6.11302 17.6565 6.11959 17.6667 6.1264C17.6769 6.13321 17.6869 6.14027 17.6968 6.14759C17.7066 6.1549 17.7163 6.16245 17.7258 6.17025C17.7353 6.17803 17.7446 6.18605 17.7537 6.1943C17.7628 6.20253 17.7716 6.21099 17.7803 6.21968C17.789 6.22835 17.7975 6.23723 17.8057 6.24633C17.814 6.25542 17.822 6.26471 17.8298 6.2742C17.8376 6.28369 17.8451 6.29337 17.8524 6.30323C17.8597 6.31309 17.8668 6.32313 17.8736 6.33333C17.8804 6.34353 17.887 6.3539 17.8933 6.36443C17.8996 6.37495 17.9056 6.38562 17.9114 6.39645C17.9172 6.40727 17.9228 6.41824 17.928 6.42933C17.9332 6.44042 17.9382 6.45164 17.9429 6.46298C17.9476 6.47433 17.952 6.48577 17.9561 6.49732C17.9603 6.50888 17.9641 6.52054 17.9677 6.53229C17.9713 6.54404 17.9745 6.55587 17.9775 6.56777C17.9805 6.57968 17.9832 6.59165 17.9856 6.60368C17.988 6.61573 17.9901 6.62782 17.9919 6.63996C17.9937 6.6521 17.9952 6.66427 17.9964 6.67648C17.9976 6.68869 17.9985 6.70094 17.9991 6.7132C17.9997 6.72545 18 6.73772 18 6.75C18 6.76228 17.9997 6.77455 17.9991 6.7868C17.9985 6.79906 17.9976 6.81131 17.9964 6.82352C17.9952 6.83573 17.9937 6.8479 17.9919 6.86004C17.9901 6.87218 17.988 6.88427 17.9856 6.89632C17.9832 6.90835 17.9805 6.92032 17.9775 6.93223C17.9745 6.94413 17.9713 6.95596 17.9677 6.96771C17.9641 6.97946 17.9603 6.99111 17.9561 7.00266C17.952 7.01422 17.9476 7.02567 17.9429 7.03702C17.9382 7.04836 17.9332 7.05958 17.928 7.07067C17.9228 7.08176 17.9172 7.09273 17.9114 7.10355C17.9056 7.11437 17.8996 7.12504 17.8933 7.13557C17.887 7.1461 17.8804 7.15647 17.8736 7.16667C17.8668 7.17687 17.8597 7.18691 17.8524 7.19677C17.8451 7.20663 17.8376 7.21631 17.8298 7.2258C17.822 7.23529 17.814 7.24458 17.8057 7.25367C17.7975 7.26277 17.789 7.27165 17.7803 7.28032C17.7716 7.28901 17.7628 7.29747 17.7537 7.3057C17.7446 7.31395 17.7353 7.32197 17.7258 7.32975C17.7163 7.33755 17.7066 7.3451 17.6968 7.35241C17.6869 7.35973 17.6769 7.36679 17.6667 7.3736C17.6565 7.38041 17.6461 7.38698 17.6356 7.39329C17.625 7.3996 17.6144 7.40565 17.6036 7.41143C17.5927 7.41723 17.5818 7.42275 17.5707 7.428C17.5596 7.43323 17.5484 7.4382 17.537 7.44291C17.5257 7.44761 17.5142 7.45202 17.5027 7.45615C17.4911 7.46029 17.4795 7.46414 17.4677 7.4677C17.456 7.47127 17.4441 7.47454 17.4322 7.47752C17.4203 7.48051 17.4083 7.4832 17.3963 7.48559C17.3843 7.48798 17.3722 7.49008 17.36 7.49189C17.3479 7.49369 17.3357 7.49519 17.3235 7.49639C17.3113 7.49759 17.2991 7.49849 17.2868 7.49909C17.2745 7.4997 17.2623 7.5 17.25 7.5L6.75 7.5ZM6.75 12.75C6.73772 12.75 6.72545 12.7497 6.7132 12.7491C6.70094 12.7485 6.68869 12.7476 6.67648 12.7464C6.66427 12.7452 6.6521 12.7437 6.63996 12.7419C6.62782 12.7401 6.61573 12.738 6.60368 12.7356C6.59165 12.7332 6.57968 12.7305 6.56777 12.7275C6.55587 12.7245 6.54404 12.7213 6.53229 12.7177C6.52054 12.7141 6.50888 12.7103 6.49732 12.7061C6.48577 12.702 6.47433 12.6976 6.46298 12.6929C6.45164 12.6882 6.44042 12.6832 6.42933 12.678C6.41824 12.6728 6.40727 12.6672 6.39645 12.6614C6.38562 12.6556 6.37495 12.6496 6.36443 12.6433C6.3539 12.637 6.34353 12.6304 6.33333 12.6236C6.32313 12.6168 6.31309 12.6097 6.30323 12.6024C6.29337 12.5951 6.28369 12.5876 6.2742 12.5798C6.26471 12.572 6.25542 12.564 6.24633 12.5557C6.23723 12.5475 6.22835 12.539 6.21968 12.5303C6.21099 12.5216 6.20253 12.5128 6.1943 12.5037C6.18605 12.4946 6.17803 12.4853 6.17025 12.4758C6.16245 12.4663 6.1549 12.4566 6.14759 12.4468C6.14027 12.4369 6.13321 12.4269 6.1264 12.4167C6.11957 12.4065 6.11301 12.3961 6.10671 12.3856C6.1004 12.375 6.09435 12.3644 6.08857 12.3536C6.08277 12.3427 6.07725 12.3318 6.072 12.3207C6.06675 12.3096 6.06178 12.2984 6.05709 12.287C6.05239 12.2757 6.04798 12.2642 6.04385 12.2527C6.03971 12.2411 6.03586 12.2295 6.0323 12.2177C6.02873 12.206 6.02546 12.1941 6.02248 12.1822C6.01949 12.1703 6.0168 12.1583 6.01441 12.1463C6.01202 12.1343 6.00992 12.1222 6.00811 12.11C6.00631 12.0979 6.00481 12.0857 6.00361 12.0735C6.00241 12.0613 6.00151 12.0491 6.00091 12.0368C6.0003 12.0245 6 12.0123 6 12C6 11.9877 6.0003 11.9755 6.00091 11.9632C6.00151 11.9509 6.00241 11.9387 6.00361 11.9265C6.00481 11.9143 6.00631 11.9021 6.00811 11.89C6.00992 11.8778 6.01202 11.8657 6.01441 11.8537C6.0168 11.8417 6.01949 11.8297 6.02248 11.8178C6.02546 11.8059 6.02873 11.794 6.0323 11.7823C6.03586 11.7705 6.03971 11.7589 6.04385 11.7473C6.04798 11.7358 6.05239 11.7243 6.05709 11.713C6.06178 11.7016 6.06675 11.6904 6.072 11.6793C6.07725 11.6682 6.08277 11.6573 6.08857 11.6464C6.09435 11.6356 6.1004 11.625 6.10671 11.6144C6.11301 11.6039 6.11957 11.5935 6.1264 11.5833C6.13321 11.5731 6.14027 11.5631 6.14759 11.5532C6.1549 11.5434 6.16245 11.5337 6.17025 11.5242C6.17803 11.5147 6.18605 11.5054 6.1943 11.4963C6.20253 11.4872 6.21099 11.4784 6.21968 11.4697C6.22835 11.461 6.23723 11.4525 6.24633 11.4443C6.25542 11.436 6.26471 11.428 6.2742 11.4202C6.28369 11.4124 6.29337 11.4049 6.30323 11.3976C6.31309 11.3903 6.32313 11.3832 6.33333 11.3764C6.34353 11.3696 6.3539 11.363 6.36443 11.3567C6.37495 11.3504 6.38562 11.3444 6.39645 11.3386C6.40727 11.3328 6.41824 11.3272 6.42933 11.322C6.44042 11.3167 6.45164 11.3118 6.46298 11.3071C6.47433 11.3024 6.48577 11.298 6.49732 11.2939C6.50888 11.2897 6.52054 11.2859 6.53229 11.2823C6.54404 11.2787 6.55587 11.2755 6.56777 11.2725C6.57968 11.2695 6.59165 11.2668 6.60368 11.2644C6.61573 11.262 6.62782 11.2599 6.63996 11.2581C6.6521 11.2563 6.66427 11.2548 6.67648 11.2536C6.68869 11.2524 6.70094 11.2515 6.7132 11.2509C6.72545 11.2503 6.73772 11.25 6.75 11.25L17.25 11.25C17.2623 11.25 17.2745 11.2503 17.2868 11.2509C17.2991 11.2515 17.3113 11.2524 17.3235 11.2536C17.3357 11.2548 17.3479 11.2563 17.36 11.2581C17.3722 11.2599 17.3843 11.262 17.3963 11.2644C17.4083 11.2668 17.4203 11.2695 17.4322 11.2725C17.4441 11.2755 17.456 11.2787 17.4677 11.2823C17.4795 11.2859 17.4911 11.2897 17.5027 11.2939C17.5142 11.298 17.5257 11.3024 17.537 11.3071C17.5484 11.3118 17.5596 11.3167 17.5707 11.322C17.5818 11.3272 17.5927 11.3328 17.6036 11.3386C17.6144 11.3444 17.625 11.3504 17.6356 11.3567C17.6461 11.363 17.6565 11.3696 17.6667 11.3764C17.6769 11.3832 17.6869 11.3903 17.6968 11.3976C17.7066 11.4049 17.7163 11.4124 17.7258 11.4202C17.7353 11.428 17.7446 11.436 17.7537 11.4443C17.7628 11.4525 17.7716 11.461 17.7803 11.4697C17.789 11.4784 17.7975 11.4872 17.8057 11.4963C17.814 11.5054 17.822 11.5147 17.8298 11.5242C17.8376 11.5337 17.8451 11.5434 17.8524 11.5532C17.8597 11.5631 17.8668 11.5731 17.8736 11.5833C17.8804 11.5935 17.887 11.6039 17.8933 11.6144C17.8996 11.625 17.9056 11.6356 17.9114 11.6464C17.9172 11.6573 17.9228 11.6682 17.928 11.6793C17.9332 11.6904 17.9382 11.7016 17.9429 11.713C17.9476 11.7243 17.952 11.7358 17.9561 11.7473C17.9603 11.7589 17.9641 11.7705 17.9677 11.7823C17.9713 11.794 17.9745 11.8059 17.9775 11.8178C17.9805 11.8297 17.9832 11.8417 17.9856 11.8537C17.988 11.8657 17.9901 11.8778 17.9919 11.89C17.9937 11.9021 17.9952 11.9143 17.9964 11.9265C17.9976 11.9387 17.9985 11.9509 17.9991 11.9632C17.9997 11.9755 18 11.9877 18 12C18 12.0123 17.9997 12.0245 17.9991 12.0368C17.9985 12.0491 17.9976 12.0613 17.9964 12.0735C17.9952 12.0857 17.9937 12.0979 17.9919 12.11C17.9901 12.1222 17.988 12.1343 17.9856 12.1463C17.9832 12.1583 17.9805 12.1703 17.9775 12.1822C17.9745 12.1941 17.9713 12.206 17.9677 12.2177C17.9641 12.2295 17.9603 12.2411 17.9561 12.2527C17.952 12.2642 17.9476 12.2757 17.9429 12.287C17.9382 12.2984 17.9332 12.3096 17.928 12.3207C17.9228 12.3318 17.9172 12.3427 17.9114 12.3536C17.9056 12.3644 17.8996 12.375 17.8933 12.3856C17.887 12.3961 17.8804 12.4065 17.8736 12.4167C17.8668 12.4269 17.8597 12.4369 17.8524 12.4468C17.8451 12.4566 17.8376 12.4663 17.8298 12.4758C17.822 12.4853 17.814 12.4946 17.8057 12.5037C17.7975 12.5128 17.789 12.5216 17.7803 12.5303C17.7716 12.539 17.7628 12.5475 17.7537 12.5557C17.7446 12.564 17.7353 12.572 17.7258 12.5798C17.7163 12.5876 17.7066 12.5951 17.6968 12.6024C17.6869 12.6097 17.6769 12.6168 17.6667 12.6236C17.6565 12.6304 17.6461 12.637 17.6356 12.6433C17.625 12.6496 17.6144 12.6556 17.6036 12.6614C17.5927 12.6672 17.5818 12.6728 17.5707 12.678C17.5596 12.6832 17.5484 12.6882 17.537 12.6929C17.5257 12.6976 17.5142 12.702 17.5027 12.7061C17.4911 12.7103 17.4795 12.7141 17.4677 12.7177C17.456 12.7213 17.4441 12.7245 17.4322 12.7275C17.4203 12.7305 17.4083 12.7332 17.3963 12.7356C17.3843 12.738 17.3722 12.7401 17.36 12.7419C17.3479 12.7437 17.3357 12.7452 17.3235 12.7464C17.3113 12.7476 17.2991 12.7485 17.2868 12.7491C17.2745 12.7497 17.2623 12.75 17.25 12.75L6.75 12.75ZM6.75 18C6.73772 18 6.72545 17.9997 6.7132 17.9991C6.70094 17.9985 6.68869 17.9976 6.67648 17.9964C6.66427 17.9952 6.6521 17.9937 6.63996 17.9919C6.62782 17.9901 6.61573 17.988 6.60368 17.9856C6.59165 17.9832 6.57968 17.9805 6.56777 17.9775C6.55587 17.9745 6.54404 17.9713 6.53229 17.9677C6.52054 17.9641 6.50888 17.9603 6.49732 17.9561C6.48577 17.952 6.47433 17.9476 6.46298 17.9429C6.45164 17.9382 6.44042 17.9332 6.42933 17.928C6.41824 17.9228 6.40727 17.9172 6.39645 17.9114C6.38562 17.9056 6.37495 17.8996 6.36443 17.8933C6.3539 17.887 6.34353 17.8804 6.33333 17.8736C6.32313 17.8668 6.31309 17.8597 6.30323 17.8524C6.29337 17.8451 6.28369 17.8376 6.2742 17.8298C6.26471 17.822 6.25542 17.814 6.24633 17.8057C6.23723 17.7975 6.22835 17.789 6.21968 17.7803C6.21099 17.7716 6.20253 17.7628 6.1943 17.7537C6.18605 17.7446 6.17803 17.7353 6.17025 17.7258C6.16245 17.7163 6.1549 17.7066 6.14759 17.6968C6.14027 17.6869 6.13321 17.6769 6.1264 17.6667C6.11957 17.6565 6.11301 17.6461 6.10671 17.6356C6.1004 17.625 6.09435 17.6144 6.08857 17.6036C6.08277 17.5927 6.07725 17.5818 6.072 17.5707C6.06675 17.5596 6.06178 17.5484 6.05709 17.537C6.05239 17.5257 6.04798 17.5142 6.04385 17.5027C6.03971 17.4911 6.03586 17.4795 6.0323 17.4677C6.02873 17.456 6.02546 17.4441 6.02248 17.4322C6.01949 17.4203 6.0168 17.4083 6.01441 17.3963C6.01202 17.3843 6.00992 17.3722 6.00811 17.36C6.00631 17.3479 6.00481 17.3357 6.00361 17.3235C6.00241 17.3113 6.00151 17.2991 6.00091 17.2868C6.0003 17.2745 6 17.2623 6 17.25C6 17.2377 6.0003 17.2255 6.00091 17.2132C6.00151 17.2009 6.00241 17.1887 6.00361 17.1765C6.00481 17.1643 6.00631 17.1521 6.00811 17.14C6.00992 17.1278 6.01202 17.1157 6.01441 17.1037C6.0168 17.0917 6.01949 17.0797 6.02248 17.0678C6.02546 17.0559 6.02873 17.044 6.0323 17.0323C6.03586 17.0205 6.03971 17.0089 6.04385 16.9973C6.04798 16.9858 6.05239 16.9743 6.05709 16.963C6.06178 16.9516 6.06675 16.9404 6.072 16.9293C6.07725 16.9182 6.08277 16.9073 6.08857 16.8964C6.09435 16.8856 6.1004 16.875 6.10671 16.8644C6.11301 16.8539 6.11957 16.8435 6.1264 16.8333C6.13321 16.8231 6.14027 16.8131 6.14759 16.8032C6.1549 16.7934 6.16245 16.7837 6.17025 16.7742C6.17803 16.7647 6.18605 16.7554 6.1943 16.7463C6.20253 16.7372 6.21099 16.7284 6.21968 16.7197C6.22835 16.711 6.23723 16.7025 6.24633 16.6943C6.25542 16.686 6.26471 16.678 6.2742 16.6702C6.28369 16.6624 6.29337 16.6549 6.30323 16.6476C6.31309 16.6403 6.32313 16.6332 6.33333 16.6264C6.34353 16.6196 6.3539 16.613 6.36443 16.6067C6.37495 16.6004 6.38562 16.5944 6.39645 16.5886C6.40727 16.5828 6.41824 16.5772 6.42933 16.572C6.44042 16.5667 6.45164 16.5618 6.46298 16.5571C6.47433 16.5524 6.48577 16.548 6.49732 16.5439C6.50888 16.5397 6.52054 16.5359 6.53229 16.5323C6.54404 16.5287 6.55587 16.5255 6.56777 16.5225C6.57968 16.5195 6.59165 16.5168 6.60368 16.5144C6.61573 16.512 6.62782 16.5099 6.63996 16.5081C6.6521 16.5063 6.66427 16.5048 6.67648 16.5036C6.68869 16.5024 6.70094 16.5015 6.7132 16.5009C6.72545 16.5003 6.73772 16.5 6.75 16.5L9.75 16.5C9.76228 16.5 9.77454 16.5003 9.7868 16.5009C9.79906 16.5015 9.81131 16.5024 9.82352 16.5036C9.83573 16.5048 9.8479 16.5063 9.86004 16.5081C9.87218 16.5099 9.88427 16.512 9.89632 16.5144C9.90834 16.5168 9.92032 16.5195 9.93223 16.5225C9.94413 16.5255 9.95597 16.5287 9.96771 16.5323C9.97945 16.5359 9.9911 16.5397 10.0027 16.5439C10.0142 16.548 10.0257 16.5524 10.037 16.5571C10.0484 16.5618 10.0596 16.5667 10.0707 16.572C10.0818 16.5772 10.0927 16.5828 10.1036 16.5886C10.1144 16.5944 10.125 16.6004 10.1356 16.6067C10.1461 16.613 10.1565 16.6196 10.1667 16.6264C10.1769 16.6332 10.1869 16.6403 10.1968 16.6476C10.2066 16.6549 10.2163 16.6624 10.2258 16.6702C10.2353 16.678 10.2446 16.686 10.2537 16.6943C10.2628 16.7025 10.2716 16.711 10.2803 16.7197C10.289 16.7284 10.2975 16.7372 10.3057 16.7463C10.314 16.7554 10.322 16.7647 10.3298 16.7742C10.3376 16.7837 10.3451 16.7934 10.3524 16.8032C10.3597 16.8131 10.3668 16.8231 10.3736 16.8333C10.3804 16.8435 10.387 16.8539 10.3933 16.8644C10.3996 16.875 10.4056 16.8856 10.4114 16.8964C10.4172 16.9073 10.4228 16.9182 10.428 16.9293C10.4332 16.9404 10.4382 16.9516 10.4429 16.963C10.4476 16.9743 10.452 16.9858 10.4561 16.9973C10.4603 17.0089 10.4641 17.0205 10.4677 17.0323C10.4713 17.044 10.4745 17.0559 10.4775 17.0678C10.4805 17.0797 10.4832 17.0917 10.4856 17.1037C10.488 17.1157 10.4901 17.1278 10.4919 17.14C10.4937 17.1521 10.4952 17.1643 10.4964 17.1765C10.4976 17.1887 10.4985 17.2009 10.4991 17.2132C10.4997 17.2255 10.5 17.2377 10.5 17.25C10.5 17.2623 10.4997 17.2745 10.4991 17.2868C10.4985 17.2991 10.4976 17.3113 10.4964 17.3235C10.4952 17.3357 10.4937 17.3479 10.4919 17.36C10.4901 17.3722 10.488 17.3843 10.4856 17.3963C10.4832 17.4083 10.4805 17.4203 10.4775 17.4322C10.4745 17.4441 10.4713 17.456 10.4677 17.4677C10.4641 17.4795 10.4603 17.4911 10.4561 17.5027C10.452 17.5142 10.4476 17.5257 10.4429 17.537C10.4382 17.5484 10.4332 17.5596 10.428 17.5707C10.4228 17.5818 10.4172 17.5927 10.4114 17.6036C10.4056 17.6144 10.3996 17.625 10.3933 17.6356C10.387 17.6461 10.3804 17.6565 10.3736 17.6667C10.3668 17.6769 10.3597 17.6869 10.3524 17.6968C10.3451 17.7066 10.3376 17.7163 10.3298 17.7258C10.322 17.7353 10.314 17.7446 10.3057 17.7537C10.2975 17.7628 10.289 17.7716 10.2803 17.7803C10.2716 17.789 10.2628 17.7975 10.2537 17.8057C10.2446 17.814 10.2353 17.822 10.2258 17.8298C10.2163 17.8376 10.2066 17.8451 10.1968 17.8524C10.1869 17.8597 10.1769 17.8668 10.1667 17.8736C10.1565 17.8804 10.1461 17.887 10.1356 17.8933C10.125 17.8996 10.1144 17.9056 10.1036 17.9114C10.0927 17.9172 10.0818 17.9228 10.0707 17.928C10.0596 17.9332 10.0484 17.9382 10.037 17.9429C10.0257 17.9476 10.0142 17.952 10.0027 17.9561C9.9911 17.9603 9.97945 17.9641 9.96771 17.9677C9.95597 17.9713 9.94413 17.9745 9.93223 17.9775C9.92032 17.9805 9.90834 17.9832 9.89632 17.9856C9.88427 17.988 9.87218 17.9901 9.86004 17.9919C9.8479 17.9937 9.83573 17.9952 9.82352 17.9964C9.81131 17.9976 9.79906 17.9985 9.7868 17.9991C9.77454 17.9997 9.76228 18 9.75 18L6.75 18Z"></path><path id="路径 2" fill-rule="evenodd" style="fill:#E5E5E5" opacity="1" d="M18.9368 18.8025C18.946 18.7945 18.9555 18.7866 18.9651 18.779C18.9748 18.7714 18.9846 18.7641 18.9946 18.757C19.0046 18.7499 19.0148 18.743 19.0252 18.7364C19.0355 18.7298 19.046 18.7235 19.0567 18.7174C19.0673 18.7113 19.0781 18.7055 19.0891 18.6999C19.1 18.6944 19.1111 18.6891 19.1223 18.6841C19.1335 18.6791 19.1448 18.6743 19.1563 18.6698C19.1677 18.6654 19.1793 18.6612 19.1909 18.6573C19.2026 18.6534 19.2143 18.6498 19.2261 18.6465C19.2379 18.6432 19.2498 18.6402 19.2618 18.6374C19.2738 18.6347 19.2858 18.6322 19.2979 18.6301C19.3099 18.628 19.3221 18.6261 19.3342 18.6246C19.3464 18.623 19.3586 18.6218 19.3709 18.6209C19.3831 18.6199 19.3954 18.6193 19.4077 18.6189C19.4199 18.6186 19.4322 18.6185 19.4445 18.6188C19.4567 18.619 19.469 18.6196 19.4813 18.6205C19.4935 18.6213 19.5057 18.6225 19.5179 18.6239C19.5301 18.6254 19.5422 18.6271 19.5544 18.6292C19.5664 18.6313 19.5785 18.6336 19.5905 18.6363C19.6025 18.6389 19.6144 18.6418 19.6262 18.6451C19.6381 18.6483 19.6498 18.6518 19.6615 18.6556C19.6732 18.6595 19.6848 18.6635 19.6962 18.6679C19.7077 18.6723 19.719 18.6769 19.7303 18.6819C19.7415 18.6868 19.7526 18.692 19.7636 18.6975C19.7746 18.703 19.7854 18.7087 19.7962 18.7148C19.8069 18.7208 19.8174 18.727 19.8278 18.7336C19.8382 18.7401 19.8484 18.7469 19.8585 18.7539C19.8685 18.7609 19.8784 18.7682 19.8881 18.7757C19.8979 18.7833 19.9074 18.791 19.9167 18.799C19.926 18.807 19.9351 18.8152 19.944 18.8236C19.953 18.8321 19.9617 18.8407 19.9702 18.8496C19.9787 18.8584 19.987 18.8675 19.995 18.8768C20.003 18.886 20.0109 18.8955 20.0185 18.9051C20.0261 18.9148 20.0334 18.9246 20.0405 18.9346C20.0476 18.9446 20.0545 18.9548 20.0611 18.9652C20.0677 18.9755 20.074 18.986 20.0801 18.9967C20.0862 19.0073 20.092 19.0181 20.0976 19.0291C20.1031 19.04 20.1084 19.0511 20.1134 19.0623C20.1184 19.0735 20.1232 19.0848 20.1277 19.0963C20.1321 19.1077 20.1363 19.1192 20.1402 19.1309C20.1441 19.1425 20.1477 19.1543 20.151 19.1661C20.1543 19.1779 20.1573 19.1898 20.1601 19.2018C20.1628 19.2138 20.1653 19.2258 20.1674 19.2379C20.1695 19.2499 20.1714 19.2621 20.1729 19.2743C20.1745 19.2864 20.1757 19.2986 20.1766 19.3109C20.1776 19.3231 20.1782 19.3354 20.1786 19.3477C20.1789 19.3599 20.179 19.3722 20.1787 19.3845C20.1785 19.3967 20.1779 19.409 20.177 19.4212C20.1762 19.4335 20.175 19.4457 20.1736 19.4579C20.1721 19.4701 20.1704 19.4822 20.1683 19.4944C20.1662 19.5064 20.1639 19.5185 20.1612 19.5305C20.1586 19.5425 20.1557 19.5544 20.1524 19.5662C20.1492 19.5781 20.1457 19.5898 20.1419 19.6015C20.138 19.6132 20.134 19.6248 20.1296 19.6362C20.1252 19.6477 20.1206 19.659 20.1156 19.6703C20.1107 19.6815 20.1055 19.6926 20.1 19.7036C20.0945 19.7146 20.0888 19.7254 20.0828 19.7362C20.0767 19.7469 20.0705 19.7574 20.0639 19.7678C20.0574 19.7782 20.0506 19.7884 20.0436 19.7985C20.0366 19.8085 20.0293 19.8184 20.0218 19.8281C20.0142 19.8378 20.0065 19.8473 19.9985 19.8567C19.9905 19.866 19.9823 19.8751 19.9739 19.884C19.9654 19.893 19.9568 19.9017 19.9479 19.9102C19.9391 19.9187 19.93 19.927 19.9207 19.935L16.3148 23.0662C16.3063 23.0736 16.2977 23.0807 16.2889 23.0877C16.2802 23.0946 16.2713 23.1014 16.2622 23.1079C16.2532 23.1145 16.2439 23.1208 16.2346 23.1269C16.2252 23.1331 16.2158 23.139 16.2062 23.1447C16.1966 23.1504 16.1868 23.1559 16.177 23.1612C16.1671 23.1665 16.1571 23.1715 16.1471 23.1764C16.137 23.1812 16.1268 23.1858 16.1165 23.1902C16.1062 23.1945 16.0958 23.1987 16.0854 23.2026C16.0749 23.2065 16.0643 23.2102 16.0537 23.2136C16.0431 23.2171 16.0324 23.2203 16.0216 23.2232C16.0108 23.2262 15.9999 23.2289 15.989 23.2314C15.9781 23.2339 15.9672 23.2361 15.9562 23.2381C15.9452 23.2401 15.9341 23.2418 15.9231 23.2433C15.912 23.2448 15.9009 23.246 15.8897 23.247C15.8786 23.248 15.8674 23.2488 15.8563 23.2493C15.8451 23.2498 15.8339 23.25 15.8228 23.25L4.57125 23.25C3.285 23.25 2.25 22.1865 2.25 20.8845L2.25 3.1155C2.25 1.8135 3.285 0.75 4.57125 0.75L19.4287 0.75C20.715 0.75 21.75 1.8135 21.75 3.1155L21.75 16.3418C21.75 16.354 21.7497 16.3663 21.7491 16.3785C21.7485 16.3908 21.7476 16.4031 21.7464 16.4153C21.7452 16.4275 21.7437 16.4396 21.7419 16.4518C21.7401 16.4639 21.738 16.476 21.7356 16.4881C21.7332 16.5001 21.7305 16.5121 21.7275 16.524C21.7245 16.5359 21.7213 16.5477 21.7177 16.5595C21.7141 16.5712 21.7103 16.5829 21.7061 16.5944C21.702 16.606 21.6976 16.6174 21.6929 16.6288C21.6882 16.6401 21.6832 16.6513 21.678 16.6624C21.6728 16.6735 21.6672 16.6845 21.6614 16.6953C21.6556 16.7061 21.6496 16.7168 21.6433 16.7273C21.637 16.7378 21.6304 16.7482 21.6236 16.7584C21.6168 16.7686 21.6097 16.7786 21.6024 16.7885C21.5951 16.7984 21.5876 16.8081 21.5798 16.8176C21.572 16.827 21.564 16.8363 21.5557 16.8454C21.5475 16.8545 21.539 16.8634 21.5303 16.8721C21.5216 16.8808 21.5128 16.8892 21.5037 16.8975C21.4946 16.9057 21.4853 16.9137 21.4758 16.9215C21.4663 16.9293 21.4566 16.9369 21.4468 16.9442C21.4369 16.9515 21.4269 16.9585 21.4167 16.9654C21.4065 16.9722 21.3961 16.9787 21.3856 16.985C21.375 16.9913 21.3644 16.9974 21.3536 17.0032C21.3427 17.009 21.3318 17.0145 21.3207 17.0198C21.3096 17.025 21.2984 17.0299 21.287 17.0347C21.2757 17.0394 21.2642 17.0438 21.2527 17.0479C21.2411 17.052 21.2295 17.0559 21.2177 17.0595C21.206 17.063 21.1941 17.0663 21.1822 17.0693C21.1703 17.0723 21.1583 17.0749 21.1463 17.0773C21.1343 17.0797 21.1222 17.0818 21.11 17.0836C21.0979 17.0854 21.0857 17.0869 21.0735 17.0881C21.0613 17.0893 21.0491 17.0903 21.0368 17.0908C21.0245 17.0914 21.0123 17.0917 21 17.0917C20.9877 17.0917 20.9755 17.0914 20.9632 17.0908C20.9509 17.0903 20.9387 17.0893 20.9265 17.0881C20.9143 17.0869 20.9021 17.0854 20.89 17.0836C20.8778 17.0818 20.8657 17.0797 20.8537 17.0773C20.8417 17.0749 20.8297 17.0723 20.8178 17.0693C20.8059 17.0663 20.794 17.063 20.7823 17.0595C20.7705 17.0559 20.7589 17.052 20.7473 17.0479C20.7358 17.0438 20.7243 17.0394 20.713 17.0347C20.7016 17.0299 20.6904 17.025 20.6793 17.0198C20.6682 17.0145 20.6573 17.009 20.6464 17.0032C20.6356 16.9974 20.625 16.9913 20.6144 16.985C20.6039 16.9787 20.5935 16.9722 20.5833 16.9654C20.5731 16.9585 20.5631 16.9515 20.5532 16.9442C20.5434 16.9369 20.5337 16.9293 20.5242 16.9215C20.5147 16.9137 20.5054 16.9057 20.4963 16.8975C20.4872 16.8892 20.4784 16.8808 20.4697 16.8721C20.461 16.8634 20.4525 16.8545 20.4443 16.8454C20.436 16.8363 20.428 16.827 20.4202 16.8176C20.4124 16.8081 20.4049 16.7984 20.3976 16.7885C20.3903 16.7786 20.3832 16.7686 20.3764 16.7584C20.3696 16.7482 20.363 16.7378 20.3567 16.7273C20.3504 16.7168 20.3443 16.7061 20.3385 16.6953C20.3328 16.6845 20.3272 16.6735 20.322 16.6624C20.3167 16.6513 20.3118 16.6401 20.3071 16.6288C20.3024 16.6174 20.298 16.606 20.2938 16.5944C20.2897 16.5829 20.2859 16.5712 20.2823 16.5595C20.2787 16.5477 20.2755 16.5359 20.2725 16.524C20.2695 16.5121 20.2668 16.5001 20.2644 16.4881C20.262 16.476 20.2599 16.4639 20.2581 16.4518C20.2563 16.4396 20.2548 16.4275 20.2536 16.4153C20.2524 16.4031 20.2515 16.3908 20.2509 16.3785C20.2503 16.3663 20.25 16.354 20.25 16.3418L20.25 3.1155C20.25 2.6325 19.8773 2.25 19.4287 2.25L4.57125 2.25C4.12275 2.25 3.75 2.6325 3.75 3.1155L3.75 20.8845C3.75 21.3675 4.12275 21.75 4.57125 21.75L15.5422 21.75L18.9368 18.8025Z"></path><path id="路径 3" fill-rule="evenodd" style="fill:#E5E5E5" opacity="1" d="M16.5 22.4797C16.5 22.492 16.4997 22.5043 16.4991 22.5165C16.4985 22.5288 16.4976 22.5411 16.4964 22.5533C16.4952 22.5655 16.4937 22.5776 16.4919 22.5898C16.4901 22.6019 16.488 22.614 16.4856 22.6261C16.4832 22.6381 16.4805 22.6501 16.4775 22.662C16.4745 22.6739 16.4713 22.6857 16.4677 22.6975C16.4641 22.7092 16.4603 22.7209 16.4561 22.7324C16.452 22.744 16.4476 22.7554 16.4429 22.7668C16.4382 22.7781 16.4332 22.7893 16.428 22.8004C16.4228 22.8115 16.4172 22.8225 16.4114 22.8333C16.4056 22.8441 16.3996 22.8548 16.3933 22.8653C16.387 22.8758 16.3804 22.8862 16.3736 22.8964C16.3668 22.9066 16.3597 22.9166 16.3524 22.9265C16.3451 22.9364 16.3375 22.9461 16.3298 22.9556C16.322 22.965 16.314 22.9743 16.3057 22.9834C16.2975 22.9925 16.289 23.0014 16.2803 23.0101C16.2716 23.0188 16.2628 23.0272 16.2537 23.0355C16.2446 23.0437 16.2353 23.0517 16.2258 23.0595C16.2163 23.0673 16.2066 23.0749 16.1968 23.0822C16.1869 23.0895 16.1769 23.0965 16.1667 23.1034C16.1565 23.1102 16.1461 23.1167 16.1356 23.123C16.125 23.1293 16.1144 23.1354 16.1036 23.1412C16.0927 23.147 16.0818 23.1525 16.0707 23.1577C16.0596 23.163 16.0484 23.1679 16.037 23.1727C16.0257 23.1774 16.0142 23.1818 16.0027 23.1859C15.9911 23.19 15.9795 23.1939 15.9677 23.1975C15.956 23.201 15.9441 23.2043 15.9322 23.2073C15.9203 23.2103 15.9084 23.2129 15.8963 23.2153C15.8843 23.2177 15.8722 23.2198 15.86 23.2216C15.8479 23.2234 15.8357 23.2249 15.8235 23.2261C15.8113 23.2273 15.7991 23.2282 15.7868 23.2288C15.7745 23.2294 15.7623 23.2297 15.75 23.2297C15.7377 23.2297 15.7255 23.2294 15.7132 23.2288C15.7009 23.2282 15.6887 23.2273 15.6765 23.2261C15.6643 23.2249 15.6521 23.2234 15.64 23.2216C15.6278 23.2198 15.6157 23.2177 15.6037 23.2153C15.5916 23.2129 15.5797 23.2103 15.5678 23.2073C15.5559 23.2043 15.544 23.201 15.5323 23.1975C15.5205 23.1939 15.5089 23.19 15.4973 23.1859C15.4858 23.1818 15.4743 23.1774 15.463 23.1727C15.4516 23.1679 15.4404 23.163 15.4293 23.1577C15.4182 23.1525 15.4073 23.147 15.3964 23.1412C15.3856 23.1354 15.375 23.1293 15.3644 23.123C15.3539 23.1167 15.3435 23.1102 15.3333 23.1034C15.3231 23.0965 15.3131 23.0895 15.3032 23.0821C15.2934 23.0749 15.2837 23.0673 15.2742 23.0595C15.2647 23.0517 15.2554 23.0437 15.2463 23.0355C15.2372 23.0272 15.2284 23.0188 15.2197 23.0101C15.211 23.0014 15.2025 22.9925 15.1943 22.9834C15.186 22.9743 15.178 22.965 15.1702 22.9556C15.1625 22.9461 15.1549 22.9364 15.1476 22.9265C15.1403 22.9166 15.1332 22.9066 15.1264 22.8964C15.1196 22.8862 15.113 22.8758 15.1067 22.8653C15.1004 22.8548 15.0944 22.8441 15.0886 22.8333C15.0828 22.8225 15.0773 22.8115 15.072 22.8004C15.0668 22.7893 15.0618 22.7781 15.0571 22.7668C15.0524 22.7554 15.048 22.744 15.0439 22.7324C15.0397 22.7209 15.0359 22.7092 15.0323 22.6975C15.0287 22.6857 15.0255 22.6739 15.0225 22.662C15.0195 22.6501 15.0168 22.6381 15.0144 22.6261C15.012 22.614 15.0099 22.6019 15.0081 22.5898C15.0063 22.5776 15.0048 22.5655 15.0036 22.5533C15.0024 22.5411 15.0015 22.5288 15.0009 22.5165C15.0003 22.5043 15 22.492 15 22.4797L15 18.1147C15 16.8143 16.035 15.75 17.3213 15.75L21.0158 15.75C21.028 15.75 21.0403 15.7503 21.0525 15.7509C21.0648 15.7515 21.0771 15.7524 21.0893 15.7536C21.1015 15.7548 21.1136 15.7563 21.1258 15.7581C21.1379 15.7599 21.15 15.762 21.1621 15.7644C21.1741 15.7668 21.1861 15.7695 21.198 15.7725C21.2099 15.7755 21.2217 15.7787 21.2335 15.7823C21.2452 15.7859 21.2569 15.7897 21.2684 15.7939C21.28 15.798 21.2914 15.8024 21.3028 15.8071C21.3141 15.8118 21.3253 15.8168 21.3364 15.822C21.3475 15.8273 21.3585 15.8328 21.3693 15.8386C21.3801 15.8444 21.3908 15.8504 21.4013 15.8567C21.4118 15.863 21.4222 15.8696 21.4324 15.8764C21.4426 15.8832 21.4526 15.8903 21.4625 15.8976C21.4724 15.9049 21.4821 15.9125 21.4916 15.9202C21.501 15.928 21.5103 15.936 21.5194 15.9443C21.5285 15.9525 21.5374 15.961 21.5461 15.9697C21.5548 15.9784 21.5632 15.9872 21.5715 15.9963C21.5797 16.0054 21.5877 16.0147 21.5955 16.0242C21.6033 16.0337 21.6109 16.0434 21.6182 16.0532C21.6255 16.0631 21.6325 16.0731 21.6394 16.0833C21.6462 16.0935 21.6527 16.1039 21.659 16.1144C21.6653 16.1249 21.6714 16.1356 21.6772 16.1464C21.683 16.1573 21.6885 16.1682 21.6938 16.1793C21.699 16.1904 21.7039 16.2016 21.7087 16.213C21.7134 16.2243 21.7178 16.2358 21.7219 16.2473C21.726 16.2589 21.7299 16.2705 21.7335 16.2823C21.737 16.294 21.7403 16.3059 21.7433 16.3178C21.7463 16.3297 21.7489 16.3417 21.7513 16.3537C21.7537 16.3657 21.7558 16.3778 21.7576 16.39C21.7594 16.4021 21.7609 16.4143 21.7621 16.4265C21.7633 16.4387 21.7642 16.4509 21.7648 16.4632C21.7654 16.4755 21.7658 16.4877 21.7658 16.5C21.7658 16.5123 21.7654 16.5245 21.7648 16.5368C21.7642 16.5491 21.7633 16.5613 21.7621 16.5735C21.7609 16.5857 21.7594 16.5979 21.7576 16.61C21.7558 16.6222 21.7537 16.6343 21.7513 16.6463C21.7489 16.6583 21.7463 16.6703 21.7433 16.6822C21.7403 16.6941 21.737 16.706 21.7335 16.7177C21.7299 16.7295 21.726 16.7411 21.7219 16.7527C21.7178 16.7642 21.7134 16.7757 21.7087 16.787C21.7039 16.7984 21.699 16.8096 21.6938 16.8207C21.6885 16.8318 21.683 16.8427 21.6772 16.8536C21.6714 16.8644 21.6653 16.875 21.659 16.8856C21.6527 16.8961 21.6462 16.9065 21.6394 16.9167C21.6325 16.9269 21.6255 16.9369 21.6182 16.9468C21.6109 16.9566 21.6033 16.9663 21.5955 16.9758C21.5877 16.9853 21.5797 16.9946 21.5715 17.0037C21.5632 17.0128 21.5548 17.0216 21.5461 17.0303C21.5374 17.039 21.5285 17.0475 21.5194 17.0557C21.5103 17.064 21.501 17.072 21.4916 17.0798C21.4821 17.0875 21.4724 17.0951 21.4625 17.1024C21.4526 17.1097 21.4426 17.1168 21.4324 17.1236C21.4222 17.1304 21.4118 17.137 21.4013 17.1433C21.3908 17.1496 21.3801 17.1556 21.3693 17.1614C21.3585 17.1672 21.3475 17.1728 21.3364 17.178C21.3253 17.1832 21.3141 17.1882 21.3028 17.1929C21.2914 17.1976 21.28 17.202 21.2684 17.2061C21.2569 17.2103 21.2452 17.2141 21.2335 17.2177C21.2217 17.2213 21.2099 17.2245 21.198 17.2275C21.1861 17.2305 21.1741 17.2332 21.1621 17.2356C21.15 17.238 21.1379 17.2401 21.1258 17.2419C21.1136 17.2437 21.1015 17.2452 21.0893 17.2464C21.0771 17.2476 21.0648 17.2485 21.0525 17.2491C21.0403 17.2497 21.028 17.25 21.0158 17.25L17.3213 17.25C16.8727 17.25 16.5 17.6325 16.5 18.1155L16.5 22.4805L16.5 22.4797Z"></path></g></g><defs><rect id="path_0" x="0" y="0" width="24" height="24" rx="0" ry="0"/></defs></svg>