<svg xmlns="http://www.w3.org/2000/svg" xmlns:xlink="http://www.w3.org/1999/xlink" width="24" height="24" viewBox="0 0 24 24" fill="none"><g opacity="1"  transform="translate(0 0)"><mask id="bg-mask-0" fill="white"><use transform="translate(0 0)" xlink:href="#path_0"></use></mask><g mask="url(#bg-mask-0)" ><path id="路径 1" fill-rule="evenodd" style="fill:#C4C4C4" opacity="1" d="M7.30312 10.4789L7.30312 14.8195L11.6016 14.8195C13.7695 14.8195 15.5344 13.0547 15.5344 10.8867L15.5344 6.5461L11.2359 6.5461C9.06797 6.5461 7.30312 8.31094 7.30312 10.4789ZM14.1281 10.8844C14.1281 12.2789 12.9937 13.4109 11.6016 13.4109L9.28828 13.4109C9.33281 13.3359 9.38203 13.2586 9.43594 13.1789C10.0523 12.2672 10.9547 11.6063 12.1172 11.2148L11.6672 9.8836C10.2586 10.3594 9.31875 11.1211 8.71172 11.8219L8.71172 10.4789C8.71172 9.08438 9.84609 7.95235 11.2383 7.95235L14.1305 7.95235L14.1305 10.8844L14.1281 10.8844ZM4.01484 18.0984L19.8562 18.0984C20.7586 18.0984 21.4922 17.3648 21.4922 16.4625L21.4922 4.86563C21.4922 3.96328 20.7586 3.22969 19.8562 3.22969L4.01484 3.22969C3.1125 3.22969 2.37891 3.96328 2.37891 4.86563L2.37891 16.4602C2.37891 17.3648 3.1125 18.0984 4.01484 18.0984ZM4.01953 4.87032L19.8516 4.87032L19.8516 16.4578L4.01953 16.4578L4.01953 4.87032ZM20.9039 19.2023L3.27422 19.2023C2.82188 19.2023 2.45391 19.5703 2.45391 20.0227C2.45391 20.475 2.82188 20.843 3.27422 20.843L20.9039 20.843C21.3562 20.843 21.7242 20.475 21.7242 20.0227C21.7242 19.5703 21.3586 19.2023 20.9039 19.2023Z"></path></g></g><defs><rect id="path_0" x="0" y="0" width="24" height="24" rx="0" ry="0"/></defs></svg>