<svg xmlns="http://www.w3.org/2000/svg" xmlns:xlink="http://www.w3.org/1999/xlink" width="24" height="24" viewBox="0 0 24 24" fill="none"><g opacity="1"  transform="translate(0 0)"><mask id="bg-mask-0" fill="white"><use transform="translate(0 0)" xlink:href="#path_0"></use></mask><g mask="url(#bg-mask-0)" ><path id="路径 1" fill-rule="evenodd" style="fill:#E5E5E5" opacity="1" d="M12.5661 15.6351C12.5611 15.6351 12.556 15.6349 12.551 15.6343C12.5461 15.6338 12.5411 15.633 12.5362 15.6319C12.5313 15.6308 12.5264 15.6294 12.5217 15.6278C12.5169 15.6262 12.5122 15.6244 12.5076 15.6222C12.503 15.6201 12.4985 15.6178 12.4941 15.6152C12.4897 15.6126 12.4855 15.6097 12.4814 15.6067C12.4773 15.6036 12.4733 15.6003 12.4696 15.5968C12.4658 15.5933 12.4622 15.5896 12.4588 15.5857C12.4553 15.5818 12.4519 15.5777 12.4488 15.5734C12.4457 15.5691 12.4427 15.5647 12.44 15.5601C12.4372 15.5555 12.4347 15.5508 12.4324 15.546C12.4301 15.5411 12.428 15.5362 12.4261 15.5311C12.4243 15.5261 12.4226 15.5209 12.4212 15.5157C12.4198 15.5105 12.4186 15.5052 12.4177 15.4999C12.4168 15.4946 12.4161 15.4892 12.4156 15.4838C12.4152 15.4784 12.415 15.473 12.415 15.4675L12.415 14.0189C12.415 13.9277 12.4828 13.8513 12.5647 13.8513L20.3322 13.8513C20.4169 13.8513 20.4846 13.9262 20.4846 14.0189L20.4846 15.466C20.4847 15.4687 20.4847 15.4715 20.4847 15.4742C20.4846 15.4769 20.4845 15.4796 20.4843 15.4823C20.4841 15.485 20.4839 15.4877 20.4836 15.4904C20.4833 15.4931 20.4829 15.4957 20.4825 15.4984C20.482 15.5011 20.4816 15.5037 20.481 15.5064C20.4804 15.509 20.4798 15.5117 20.4791 15.5143C20.4785 15.5169 20.4777 15.5195 20.4769 15.5221C20.4761 15.5246 20.4753 15.5272 20.4743 15.5297C20.4734 15.5322 20.4724 15.5348 20.4714 15.5372C20.4704 15.5397 20.4693 15.5422 20.4681 15.5446C20.467 15.547 20.4658 15.5494 20.4645 15.5517C20.4633 15.5541 20.4619 15.5564 20.4606 15.5587C20.4592 15.561 20.4578 15.5633 20.4563 15.5655C20.4548 15.5677 20.4533 15.5699 20.4517 15.572C20.4501 15.5741 20.4485 15.5762 20.4468 15.5783C20.4452 15.5803 20.4434 15.5823 20.4417 15.5843C20.4399 15.5862 20.4381 15.5882 20.4363 15.59C20.4344 15.5919 20.4325 15.5937 20.4306 15.5955C20.4286 15.5972 20.4266 15.5989 20.4246 15.6006C20.4226 15.6023 20.4205 15.6039 20.4184 15.6054C20.4164 15.607 20.4142 15.6085 20.4121 15.6099C20.4099 15.6114 20.4077 15.6127 20.4055 15.6141C20.4032 15.6154 20.401 15.6167 20.3987 15.6179C20.3964 15.6191 20.3941 15.6202 20.3917 15.6213C20.3894 15.6224 20.387 15.6234 20.3846 15.6244C20.3823 15.6254 20.3798 15.6263 20.3774 15.6271C20.375 15.6279 20.3725 15.6287 20.3701 15.6294C20.3676 15.6301 20.3651 15.6308 20.3626 15.6313C20.3601 15.6319 20.3576 15.6324 20.3551 15.6329C20.3525 15.6333 20.35 15.6337 20.3475 15.634C20.345 15.6343 20.3424 15.6346 20.3398 15.6348C20.3373 15.635 20.3347 15.6351 20.3322 15.6351L12.5661 15.6351ZM12.5661 19.1952C12.5611 19.1952 12.556 19.195 12.551 19.1944C12.5461 19.1939 12.5411 19.1931 12.5362 19.192C12.5313 19.1909 12.5264 19.1896 12.5217 19.1879C12.5169 19.1863 12.5122 19.1845 12.5076 19.1824C12.503 19.1802 12.4985 19.1779 12.4941 19.1753C12.4897 19.1727 12.4855 19.1698 12.4814 19.1668C12.4773 19.1637 12.4733 19.1604 12.4696 19.1569C12.4658 19.1534 12.4622 19.1497 12.4588 19.1459C12.4553 19.1419 12.4519 19.1378 12.4488 19.1335C12.4457 19.1292 12.4427 19.1248 12.44 19.1202C12.4372 19.1156 12.4347 19.1109 12.4324 19.1061C12.4301 19.1012 12.428 19.0963 12.4261 19.0912C12.4243 19.0862 12.4226 19.081 12.4212 19.0758C12.4198 19.0706 12.4186 19.0653 12.4177 19.06C12.4168 19.0547 12.4161 19.0493 12.4156 19.0439C12.4152 19.0385 12.415 19.0331 12.415 19.0276L12.415 17.5805C12.415 17.5779 12.415 17.5752 12.415 17.5725C12.4151 17.5699 12.4153 17.5672 12.4154 17.5646C12.4157 17.5619 12.4159 17.5593 12.4162 17.5566C12.4165 17.554 12.4169 17.5514 12.4174 17.5487C12.4178 17.5461 12.4183 17.5435 12.4188 17.5409C12.4194 17.5383 12.42 17.5357 12.4207 17.5331C12.4214 17.5306 12.4221 17.528 12.4229 17.5255C12.4237 17.523 12.4246 17.5205 12.4255 17.518C12.4264 17.5155 12.4273 17.513 12.4283 17.5106C12.4294 17.5082 12.4304 17.5058 12.4316 17.5034C12.4327 17.501 12.4339 17.4987 12.4351 17.4963C12.4364 17.494 12.4377 17.4917 12.439 17.4895C12.4403 17.4872 12.4417 17.485 12.4432 17.4828C12.4446 17.4807 12.4461 17.4785 12.4477 17.4764C12.4492 17.4743 12.4508 17.4723 12.4524 17.4702C12.4541 17.4682 12.4558 17.4662 12.4575 17.4643C12.4592 17.4623 12.461 17.4605 12.4628 17.4586C12.4646 17.4568 12.4665 17.455 12.4684 17.4532C12.4703 17.4515 12.4722 17.4498 12.4742 17.4481C12.4762 17.4465 12.4782 17.4449 12.4802 17.4433C12.4823 17.4418 12.4843 17.4403 12.4865 17.4389C12.4886 17.4374 12.4907 17.4361 12.4929 17.4347C12.4951 17.4334 12.4973 17.4321 12.4995 17.4309C12.5018 17.4297 12.504 17.4285 12.5063 17.4274C12.5086 17.4263 12.5109 17.4253 12.5133 17.4243C12.5156 17.4233 12.5179 17.4224 12.5203 17.4216C12.5227 17.4207 12.5251 17.4199 12.5275 17.4192C12.5299 17.4185 12.5324 17.4178 12.5348 17.4172C12.5373 17.4166 12.5397 17.416 12.5422 17.4155C12.5447 17.415 12.5472 17.4146 12.5496 17.4143C12.5521 17.4139 12.5546 17.4136 12.5571 17.4134C12.5596 17.4132 12.5621 17.413 12.5647 17.4129L20.3322 17.4129C20.4169 17.4129 20.4846 17.4878 20.4846 17.579L20.4846 19.0261C20.4847 19.0288 20.4847 19.0316 20.4847 19.0343C20.4846 19.037 20.4845 19.0397 20.4843 19.0424C20.4841 19.0451 20.4839 19.0478 20.4836 19.0505C20.4833 19.0532 20.4829 19.0558 20.4825 19.0585C20.482 19.0612 20.4815 19.0638 20.481 19.0665C20.4804 19.0691 20.4798 19.0718 20.4791 19.0744C20.4785 19.077 20.4777 19.0796 20.4769 19.0822C20.4761 19.0847 20.4753 19.0873 20.4743 19.0898C20.4734 19.0924 20.4724 19.0949 20.4714 19.0973C20.4704 19.0998 20.4693 19.1023 20.4681 19.1047C20.467 19.1071 20.4658 19.1095 20.4645 19.1118C20.4632 19.1142 20.4619 19.1165 20.4606 19.1188C20.4592 19.1211 20.4578 19.1233 20.4563 19.1256C20.4548 19.1278 20.4533 19.13 20.4517 19.1321C20.4501 19.1342 20.4485 19.1363 20.4468 19.1384C20.4452 19.1404 20.4434 19.1424 20.4417 19.1444C20.4399 19.1463 20.4381 19.1483 20.4363 19.1501C20.4344 19.152 20.4325 19.1538 20.4305 19.1556C20.4286 19.1573 20.4266 19.159 20.4246 19.1607C20.4226 19.1624 20.4205 19.164 20.4184 19.1655C20.4164 19.1671 20.4142 19.1686 20.412 19.17C20.4099 19.1715 20.4077 19.1728 20.4055 19.1742C20.4032 19.1755 20.401 19.1768 20.3987 19.178C20.3964 19.1792 20.3941 19.1803 20.3917 19.1814C20.3894 19.1825 20.387 19.1835 20.3846 19.1845C20.3823 19.1855 20.3798 19.1864 20.3774 19.1872C20.375 19.188 20.3725 19.1888 20.3701 19.1895C20.3676 19.1902 20.3651 19.1909 20.3626 19.1914C20.3601 19.192 20.3576 19.1925 20.3551 19.193C20.3525 19.1934 20.35 19.1938 20.3475 19.1941C20.345 19.1944 20.3424 19.1947 20.3398 19.1949C20.3373 19.1951 20.3347 19.1952 20.3322 19.1952L12.5661 19.1952ZM23.7134 9.63877L23.7134 22.3678C23.7134 22.388 23.7129 22.4083 23.712 22.4285C23.7114 22.4488 23.71 22.469 23.7083 22.4892C23.7065 22.5094 23.7043 22.5296 23.7017 22.5496C23.699 22.5697 23.6959 22.5897 23.6922 22.6096C23.6887 22.6296 23.6847 22.6494 23.6803 22.6691C23.6759 22.6888 23.671 22.7084 23.6655 22.7279C23.6602 22.7474 23.6545 22.7667 23.6483 22.7859C23.6421 22.8051 23.6355 22.8241 23.6284 22.843C23.6214 22.8618 23.6139 22.8805 23.6059 22.8989C23.5982 22.9174 23.5898 22.9357 23.581 22.9537C23.5724 22.9718 23.5634 22.9896 23.5536 23.0072C23.5444 23.0248 23.5345 23.0421 23.5241 23.0592C23.5139 23.0763 23.5031 23.0931 23.4921 23.1097C23.4811 23.1263 23.4698 23.1425 23.4579 23.1585C23.446 23.1745 23.4339 23.1902 23.4215 23.2055C23.4092 23.2209 23.3962 23.236 23.3829 23.2507C23.3701 23.265 23.3571 23.2789 23.3434 23.2925C23.33 23.3061 23.3161 23.3193 23.302 23.3322C23.2878 23.3451 23.2735 23.3576 23.2587 23.3696C23.2439 23.3817 23.2289 23.3934 23.2135 23.4048C23.1985 23.416 23.1829 23.4269 23.167 23.4373C23.1513 23.4478 23.1352 23.4578 23.1189 23.4675C23.1026 23.477 23.086 23.4861 23.0693 23.4948C23.0527 23.5035 23.0358 23.5118 23.0185 23.5196C23.0015 23.5276 22.9842 23.535 22.9667 23.5418C22.9493 23.5487 22.9318 23.5551 22.914 23.561C22.8962 23.5671 22.8783 23.5726 22.8602 23.5776C22.8422 23.5826 22.8241 23.5871 22.8059 23.5912C22.7877 23.5951 22.7694 23.5986 22.751 23.6017C22.7326 23.6048 22.7141 23.6074 22.6956 23.6094C22.6771 23.6114 22.6585 23.613 22.6398 23.6141C22.6213 23.6152 22.6027 23.6157 22.584 23.6157L2.25454 23.6157C2.23591 23.6157 2.21729 23.6152 2.19869 23.6141C2.18008 23.613 2.16152 23.6114 2.14299 23.6094C2.12446 23.6074 2.10599 23.6048 2.08758 23.6017C2.06917 23.5986 2.05085 23.5951 2.03261 23.5912C2.01437 23.5871 1.99624 23.5826 1.97821 23.5776C1.96019 23.5726 1.94229 23.5671 1.92453 23.561C1.90676 23.5551 1.88915 23.5487 1.87169 23.5418C1.85423 23.535 1.83695 23.5276 1.81984 23.5196C1.80273 23.5118 1.78581 23.5035 1.7691 23.4948C1.75238 23.4861 1.73588 23.477 1.7196 23.4675C1.70332 23.4578 1.68728 23.4478 1.67147 23.4373C1.65567 23.4269 1.64012 23.416 1.62483 23.4048C1.60954 23.3934 1.59453 23.3817 1.5798 23.3696C1.56507 23.3576 1.55063 23.3451 1.53649 23.3322C1.52236 23.3193 1.50853 23.3061 1.49502 23.2925C1.48151 23.2789 1.46833 23.265 1.45548 23.2507C1.44233 23.236 1.42951 23.2209 1.41703 23.2055C1.40455 23.1902 1.39242 23.1745 1.38064 23.1585C1.36887 23.1425 1.35745 23.1263 1.34641 23.1097C1.33536 23.0931 1.3247 23.0763 1.3144 23.0592C1.30411 23.0421 1.29421 23.0248 1.2847 23.0072C1.27519 22.9896 1.26608 22.9718 1.25737 22.9537C1.24866 22.9357 1.24036 22.9174 1.23246 22.8989C1.22457 22.8805 1.2171 22.8618 1.21005 22.843C1.203 22.8241 1.19637 22.8051 1.19017 22.7859C1.18397 22.7667 1.17821 22.7474 1.17288 22.7279C1.16755 22.7084 1.16266 22.6888 1.15821 22.6691C1.15376 22.6494 1.14975 22.6296 1.14619 22.6096C1.14263 22.5897 1.13952 22.5697 1.13685 22.5496C1.13419 22.5296 1.13198 22.5094 1.13022 22.4892C1.12847 22.469 1.12716 22.4488 1.12631 22.4285C1.12546 22.4083 1.12507 22.388 1.12513 22.3678L1.12513 3.4778C1.12513 2.78943 1.63054 2.22975 2.25454 2.22975L5.81218 2.22975C5.81474 2.2297 5.81725 2.22958 5.81979 2.2294C5.82235 2.22922 5.82486 2.22898 5.8274 2.22866C5.82992 2.22835 5.83243 2.22797 5.83495 2.22753C5.83746 2.22709 5.83995 2.22658 5.84242 2.226C5.84492 2.22543 5.84739 2.2248 5.84983 2.22409C5.85231 2.22339 5.85473 2.22263 5.85714 2.2218C5.85956 2.22097 5.86197 2.22008 5.86435 2.21912C5.86671 2.21817 5.86907 2.21716 5.87141 2.21608C5.87372 2.215 5.87604 2.21387 5.87831 2.21267C5.88059 2.21147 5.88286 2.21022 5.88506 2.20891C5.88729 2.20759 5.88947 2.20622 5.89161 2.2048C5.89378 2.20337 5.89589 2.20189 5.89799 2.20035C5.90008 2.19881 5.90214 2.19722 5.90414 2.19558C5.90615 2.19393 5.90814 2.19224 5.91008 2.19049C5.91202 2.18874 5.91389 2.18695 5.91575 2.1851C5.9176 2.18326 5.91941 2.18136 5.92117 2.17942C5.92294 2.17749 5.92466 2.1755 5.92633 2.17347C5.92801 2.17144 5.92962 2.16937 5.93121 2.16726C5.93278 2.16514 5.9343 2.16299 5.93578 2.1608C5.93725 2.1586 5.93869 2.15637 5.94006 2.15411C5.94142 2.15184 5.94275 2.14954 5.94403 2.1472C5.94531 2.14486 5.9465 2.1425 5.94764 2.1401C5.94881 2.1377 5.94992 2.13527 5.95095 2.13282C5.95199 2.13036 5.953 2.12788 5.95393 2.12537C5.95486 2.12286 5.95574 2.12033 5.95653 2.11778C5.95735 2.11522 5.9581 2.11265 5.95878 2.11006C5.95949 2.10746 5.96013 2.10486 5.96068 2.10223C5.96125 2.09961 5.96178 2.09697 5.96222 2.09432C5.96269 2.09166 5.96309 2.089 5.96339 2.08633C5.96372 2.08366 5.96399 2.08098 5.96419 2.07829C5.96441 2.07561 5.96454 2.07292 5.96461 2.07022C5.9647 2.06753 5.9647 2.06484 5.96465 2.06214L5.96465 1.33635C5.96465 0.844016 6.32606 0.444458 6.77077 0.444458C7.21689 0.444458 7.57689 0.844016 7.57689 1.33635L7.57689 2.06214C7.57684 2.06482 7.57686 2.0675 7.57693 2.07018C7.57702 2.07286 7.57715 2.07553 7.57735 2.0782C7.57755 2.08087 7.57779 2.08354 7.57812 2.08619C7.57845 2.08885 7.57883 2.0915 7.57929 2.09414C7.57973 2.09677 7.58024 2.0994 7.58079 2.10201C7.58136 2.10462 7.58198 2.10722 7.58267 2.1098C7.58335 2.11238 7.5841 2.11494 7.58489 2.11747C7.58571 2.12002 7.58657 2.12253 7.5875 2.12503C7.58842 2.12753 7.58939 2.13 7.59041 2.13244C7.59144 2.13489 7.59253 2.13731 7.59367 2.13969C7.59482 2.14208 7.59603 2.14444 7.59727 2.14677C7.59853 2.1491 7.59983 2.15139 7.6012 2.15365C7.60254 2.15591 7.60395 2.15813 7.60541 2.16032C7.60689 2.16251 7.60841 2.16465 7.60995 2.16676C7.61152 2.16887 7.61311 2.17094 7.61476 2.17296C7.61644 2.17499 7.61814 2.17697 7.61988 2.17891C7.62162 2.18085 7.62341 2.18273 7.62524 2.18458C7.62707 2.18642 7.62897 2.18822 7.63086 2.18997C7.63278 2.19172 7.63472 2.19341 7.63673 2.19506C7.63872 2.19671 7.64075 2.1983 7.64282 2.19984C7.64489 2.20138 7.64701 2.20287 7.64913 2.2043C7.65127 2.20574 7.65343 2.20711 7.65564 2.20843C7.65782 2.20975 7.66005 2.21102 7.66232 2.21222C7.66457 2.21342 7.66686 2.21457 7.66916 2.21566C7.67147 2.21674 7.67381 2.21777 7.67617 2.21874C7.67853 2.2197 7.68089 2.22061 7.6833 2.22145C7.6857 2.22229 7.68813 2.22307 7.69056 2.22379C7.693 2.22451 7.69545 2.22516 7.6979 2.22575C7.70037 2.22635 7.70284 2.22687 7.70533 2.22733C7.70783 2.2278 7.71032 2.22819 7.71283 2.22853C7.71535 2.22886 7.71786 2.22913 7.72038 2.22933C7.72289 2.22954 7.72543 2.22967 7.72795 2.22975L17.1049 2.22975C17.1074 2.22967 17.1099 2.22954 17.1125 2.22933C17.115 2.22913 17.1175 2.22886 17.12 2.22853C17.1225 2.22819 17.125 2.2278 17.1275 2.22733C17.13 2.22687 17.1325 2.22635 17.1349 2.22575C17.1374 2.22516 17.1398 2.22451 17.1423 2.22379C17.1447 2.22307 17.1472 2.22229 17.1495 2.22145C17.1519 2.22061 17.1543 2.2197 17.1567 2.21874C17.159 2.21777 17.1614 2.21674 17.1637 2.21566C17.166 2.21457 17.1683 2.21342 17.1705 2.21222C17.1728 2.21102 17.175 2.20975 17.1772 2.20843C17.1794 2.20711 17.1816 2.20574 17.1837 2.2043C17.1859 2.20287 17.188 2.20138 17.19 2.19984C17.1921 2.1983 17.1941 2.19671 17.1961 2.19506C17.1981 2.19341 17.2001 2.19172 17.202 2.18997C17.2039 2.18822 17.2058 2.18642 17.2076 2.18458C17.2094 2.18273 17.2112 2.18085 17.213 2.17891C17.2147 2.17697 17.2164 2.17499 17.2181 2.17296C17.2197 2.17094 17.2213 2.16887 17.2229 2.16676C17.2245 2.16465 17.226 2.16251 17.2274 2.16032C17.2289 2.15813 17.2303 2.15591 17.2317 2.15365C17.233 2.15139 17.2343 2.1491 17.2356 2.14677C17.2368 2.14444 17.238 2.14208 17.2392 2.13969C17.2403 2.13731 17.2414 2.13489 17.2424 2.13244C17.2435 2.13 17.2444 2.12753 17.2454 2.12503C17.2463 2.12253 17.2471 2.12002 17.2479 2.11747C17.2488 2.11494 17.2495 2.11238 17.2502 2.1098C17.2509 2.10722 17.2515 2.10462 17.252 2.10201C17.2526 2.0994 17.2531 2.09677 17.2536 2.09414C17.254 2.0915 17.2544 2.08885 17.2547 2.08619C17.255 2.08354 17.2553 2.08087 17.2555 2.0782C17.2557 2.07553 17.2558 2.07286 17.2559 2.07018C17.256 2.0675 17.256 2.06482 17.2559 2.06214L17.2559 1.33635C17.2559 0.844016 17.6174 0.444458 18.0621 0.444458C18.5082 0.444458 18.8696 0.844016 18.8696 1.33635L18.8696 2.06214C18.8695 2.06482 18.8696 2.0675 18.8696 2.07018C18.8697 2.07286 18.8699 2.07553 18.8701 2.0782C18.8703 2.08087 18.8705 2.08354 18.8708 2.08619C18.8712 2.08885 18.8716 2.0915 18.872 2.09414C18.8724 2.09677 18.8729 2.0994 18.8735 2.10201C18.8741 2.10462 18.8747 2.10722 18.8754 2.1098C18.8761 2.11238 18.8768 2.11494 18.8776 2.11747C18.8784 2.12002 18.8793 2.12253 18.8802 2.12503C18.8811 2.12753 18.8821 2.13 18.8831 2.13244C18.8841 2.13489 18.8852 2.13731 18.8864 2.13969C18.8875 2.14208 18.8887 2.14444 18.89 2.14677C18.8912 2.1491 18.8925 2.15139 18.8939 2.15365C18.8953 2.15591 18.8967 2.15813 18.8981 2.16032C18.8996 2.16251 18.9011 2.16466 18.9027 2.16676C18.9042 2.16887 18.9058 2.17094 18.9075 2.17296C18.9091 2.17499 18.9108 2.17697 18.9126 2.17891C18.9143 2.18085 18.9161 2.18273 18.9179 2.18458C18.9198 2.18642 18.9217 2.18822 18.9236 2.18997C18.9255 2.19172 18.9275 2.19341 18.9294 2.19506C18.9314 2.19671 18.9335 2.1983 18.9355 2.19984C18.9376 2.20138 18.9397 2.20287 18.9418 2.2043C18.944 2.20574 18.9461 2.20711 18.9483 2.20843C18.9505 2.20975 18.9528 2.21102 18.955 2.21222C18.9573 2.21342 18.9596 2.21457 18.9619 2.21566C18.9642 2.21674 18.9665 2.21777 18.9689 2.21874C18.9712 2.2197 18.9736 2.22061 18.976 2.22145C18.9784 2.22229 18.9808 2.22307 18.9833 2.22379C18.9857 2.22451 18.9882 2.22516 18.9906 2.22575C18.9931 2.22635 18.9956 2.22687 18.998 2.22733C19.0006 2.2278 19.003 2.22819 19.0055 2.22853C19.0081 2.22886 19.0106 2.22913 19.0131 2.22933C19.0156 2.22954 19.0181 2.22967 19.0207 2.22975L22.5754 2.22975C22.8747 2.22975 23.1628 2.36144 23.3745 2.59489C23.5863 2.82983 23.7048 3.14708 23.7048 3.4778L23.7048 9.64027L23.7134 9.64027L23.7134 9.63877ZM22.1069 11.1502L22.0927 11.1502L22.0927 11.1367L2.88701 11.1367C2.88199 11.1367 2.87699 11.137 2.87199 11.1376C2.867 11.1381 2.86205 11.1389 2.85714 11.14C2.85223 11.1411 2.84738 11.1424 2.8426 11.144C2.83782 11.1456 2.83313 11.1475 2.82853 11.1496C2.82393 11.1518 2.81943 11.1541 2.81505 11.1567C2.81069 11.1593 2.80645 11.1622 2.80235 11.1652C2.79824 11.1683 2.7943 11.1716 2.79052 11.1751C2.78674 11.1785 2.78314 11.1822 2.77971 11.1861C2.77613 11.1901 2.77274 11.1942 2.76955 11.1986C2.76635 11.2029 2.76337 11.2074 2.76059 11.212C2.75781 11.2167 2.75525 11.2214 2.75291 11.2263C2.75058 11.2312 2.74846 11.2362 2.74658 11.2414C2.74471 11.2465 2.74308 11.2517 2.74169 11.257C2.7403 11.2623 2.73916 11.2676 2.73827 11.273C2.73737 11.2785 2.73673 11.2839 2.73635 11.2894C2.73596 11.2949 2.73583 11.3003 2.73595 11.3058L2.73595 21.6674C2.73592 21.6701 2.73596 21.6727 2.73606 21.6754C2.73616 21.678 2.73632 21.6807 2.73655 21.6834C2.73677 21.686 2.73704 21.6887 2.73738 21.6913C2.73772 21.6939 2.73812 21.6966 2.73857 21.6992C2.73904 21.7018 2.73957 21.7044 2.74014 21.707C2.74073 21.7096 2.74137 21.7122 2.74206 21.7147C2.74277 21.7173 2.74352 21.7198 2.74433 21.7224C2.74516 21.7249 2.74603 21.7274 2.74696 21.7298C2.74788 21.7323 2.74887 21.7348 2.74991 21.7372C2.75096 21.7396 2.75205 21.742 2.7532 21.7444C2.75435 21.7467 2.75555 21.7491 2.75682 21.7514C2.75807 21.7537 2.75938 21.756 2.76074 21.7582C2.7621 21.7604 2.76351 21.7626 2.76498 21.7648C2.76644 21.767 2.76795 21.7691 2.76952 21.7712C2.77108 21.7733 2.77268 21.7753 2.77433 21.7773C2.77599 21.7793 2.77769 21.7813 2.77943 21.7832C2.78118 21.7851 2.78296 21.787 2.78479 21.7888C2.78663 21.7907 2.7885 21.7924 2.79041 21.7942C2.79231 21.7959 2.79426 21.7976 2.79626 21.7992C2.79824 21.8008 2.80026 21.8024 2.80232 21.8039C2.80438 21.8054 2.80648 21.8069 2.80861 21.8083C2.81073 21.8098 2.81288 21.8111 2.81507 21.8124C2.81727 21.8137 2.81949 21.815 2.82174 21.8162C2.82399 21.8174 2.82626 21.8185 2.82855 21.8196C2.83085 21.8207 2.83317 21.8217 2.83552 21.8226C2.83786 21.8236 2.84023 21.8245 2.84263 21.8253C2.84501 21.8261 2.84741 21.8269 2.84984 21.8276C2.85225 21.8283 2.85468 21.829 2.85714 21.8296C2.8596 21.8301 2.86206 21.8307 2.86453 21.8311C2.867 21.8316 2.86949 21.832 2.87199 21.8323C2.87447 21.8326 2.87697 21.8329 2.87949 21.8331C2.88199 21.8333 2.88449 21.8334 2.88701 21.8335L21.9571 21.8335C21.9596 21.8334 21.9622 21.8333 21.9646 21.833C21.9672 21.8328 21.9697 21.8325 21.9721 21.8322C21.9746 21.8318 21.9771 21.8314 21.9796 21.8309C21.982 21.8304 21.9845 21.8299 21.987 21.8293C21.9894 21.8286 21.9918 21.828 21.9943 21.8272C21.9967 21.8265 21.9991 21.8257 22.0015 21.8249C22.0038 21.824 22.0062 21.8231 22.0085 21.8221C22.0109 21.8211 22.0132 21.8201 22.0155 21.819C22.0178 21.8179 22.02 21.8167 22.0223 21.8155C22.0245 21.8143 22.0267 21.8131 22.0289 21.8117C22.0311 21.8104 22.0332 21.809 22.0353 21.8076C22.0375 21.8061 22.0395 21.8046 22.0416 21.8031C22.0436 21.8015 22.0456 21.8 22.0476 21.7983C22.0496 21.7967 22.0515 21.795 22.0534 21.7932C22.0553 21.7915 22.0572 21.7897 22.059 21.7878C22.0608 21.786 22.0625 21.7841 22.0643 21.7822C22.066 21.7802 22.0677 21.7783 22.0694 21.7762C22.071 21.7742 22.0726 21.7721 22.0742 21.77C22.0757 21.7679 22.0772 21.7658 22.0786 21.7636C22.0801 21.7614 22.0815 21.7592 22.0828 21.757C22.0841 21.7547 22.0854 21.7524 22.0866 21.7501C22.0879 21.7478 22.0891 21.7454 22.0901 21.7431C22.0913 21.7407 22.0924 21.7383 22.0934 21.7358C22.0944 21.7334 22.0954 21.731 22.0963 21.7285C22.0972 21.726 22.098 21.7235 22.0989 21.7209C22.0997 21.7184 22.1004 21.7159 22.1011 21.7133C22.1017 21.7107 22.1023 21.7081 22.1029 21.7055C22.1035 21.7029 22.104 21.7003 22.1044 21.6977C22.1049 21.6951 22.1052 21.6925 22.1055 21.6898C22.1058 21.6872 22.1061 21.6845 22.1064 21.6819C22.1066 21.6792 22.1066 21.6765 22.1066 21.6739C22.1068 21.6712 22.1069 21.6686 22.1069 21.6659L22.1069 11.1502ZM5.96465 4.17666C5.96461 4.17121 5.96432 4.16578 5.96379 4.16036C5.96326 4.15496 5.96251 4.14958 5.9615 4.14422C5.9605 4.13887 5.95927 4.13361 5.95779 4.12839C5.95631 4.12318 5.95461 4.11804 5.95267 4.11299C5.95075 4.10793 5.94861 4.103 5.94623 4.09816C5.94387 4.09332 5.94129 4.08862 5.93851 4.08406C5.93573 4.07948 5.93273 4.07504 5.92956 4.07076C5.92638 4.06648 5.92303 4.06239 5.91947 4.05843C5.91599 4.05455 5.91233 4.05088 5.90849 4.0474C5.90463 4.04391 5.90064 4.04066 5.89647 4.03762C5.89232 4.03458 5.888 4.03178 5.88356 4.02923C5.87913 4.02668 5.87456 4.02437 5.86989 4.02231C5.86523 4.02025 5.86049 4.01845 5.85564 4.01693C5.85078 4.01541 5.84589 4.01415 5.84092 4.01314C5.83596 4.01216 5.83095 4.01146 5.8259 4.01101C5.82087 4.01057 5.81582 4.01043 5.81077 4.01055L2.8856 4.01055C2.88308 4.01059 2.88057 4.01071 2.87807 4.0109C2.87557 4.01106 2.87307 4.01132 2.87057 4.01162C2.86807 4.01193 2.86559 4.0123 2.86312 4.01275C2.86065 4.01319 2.85818 4.01368 2.85573 4.01427C2.85327 4.01485 2.85083 4.01548 2.84841 4.01616C2.84599 4.01686 2.84359 4.01763 2.84119 4.01845C2.83881 4.01927 2.83644 4.02016 2.83409 4.02109C2.83175 4.02205 2.82943 4.02306 2.82712 4.02413C2.82482 4.02518 2.82255 4.02633 2.8203 4.02752C2.81805 4.02872 2.81584 4.02995 2.81366 4.03124C2.81147 4.03255 2.80931 4.03391 2.80718 4.03533C2.80506 4.03676 2.80297 4.03823 2.80091 4.03975C2.79885 4.04127 2.79683 4.04286 2.79485 4.0445C2.79286 4.04611 2.79092 4.0478 2.78902 4.04953C2.78711 4.05128 2.78524 4.05306 2.78342 4.05488C2.7816 4.05673 2.77982 4.0586 2.77808 4.06052C2.77636 4.06246 2.77468 4.06442 2.77303 4.06643C2.77138 4.06844 2.76979 4.0705 2.76824 4.0726C2.7667 4.07469 2.7652 4.07684 2.76374 4.07901C2.7623 4.08119 2.76091 4.08338 2.75957 4.08563C2.75822 4.0879 2.75693 4.09016 2.75569 4.09248C2.75446 4.09479 2.75327 4.09716 2.75214 4.09952C2.75102 4.1019 2.74995 4.10431 2.74892 4.10674C2.74791 4.10917 2.74695 4.11163 2.74605 4.11411C2.74516 4.11661 2.74431 4.11911 2.74352 4.12164C2.74274 4.12416 2.74202 4.12671 2.74135 4.12928C2.74069 4.13183 2.74008 4.13443 2.73952 4.13702C2.73898 4.13962 2.7385 4.14224 2.73809 4.14486C2.73766 4.14747 2.7373 4.15012 2.73699 4.15276C2.73669 4.1554 2.73646 4.15804 2.73628 4.16071C2.7361 4.16335 2.73599 4.16602 2.73593 4.16868C2.73587 4.17132 2.73587 4.17399 2.73595 4.17666L2.73595 9.18684C2.73591 9.18953 2.73592 9.19219 2.73599 9.19488C2.73607 9.19755 2.73621 9.20021 2.73641 9.2029C2.7366 9.20557 2.73686 9.20823 2.73719 9.2109C2.73751 9.21354 2.73789 9.21618 2.73833 9.21883C2.73879 9.22147 2.73929 9.22411 2.73985 9.22671C2.74043 9.22933 2.74105 9.23192 2.74173 9.23449C2.74242 9.23706 2.74316 9.23961 2.74396 9.24216C2.74476 9.24471 2.74563 9.24724 2.74654 9.24974C2.74746 9.25224 2.74844 9.25469 2.74947 9.25715C2.7505 9.25958 2.75159 9.26199 2.75274 9.2644C2.75388 9.26678 2.75508 9.26915 2.75633 9.27146C2.75758 9.2738 2.75889 9.27609 2.76026 9.27836C2.76161 9.2806 2.76302 9.28282 2.76447 9.28502C2.76594 9.2872 2.76746 9.28935 2.76902 9.29145C2.77057 9.29358 2.77218 9.29564 2.77382 9.29765C2.77549 9.29968 2.77718 9.30167 2.77892 9.30361C2.78067 9.30555 2.78246 9.30742 2.7843 9.30927C2.78612 9.31112 2.788 9.31292 2.78993 9.31467C2.79184 9.31642 2.79379 9.31811 2.7958 9.31974C2.79778 9.3214 2.79981 9.32299 2.80188 9.32454C2.80394 9.32608 2.80604 9.32758 2.80819 9.329C2.81032 9.33043 2.81249 9.33181 2.81468 9.33312C2.81688 9.33445 2.81912 9.33571 2.82138 9.33691C2.82363 9.33812 2.82591 9.33927 2.82822 9.34034C2.83053 9.34144 2.83287 9.34247 2.83524 9.34343C2.83759 9.34439 2.83996 9.3453 2.84236 9.34614C2.84476 9.34698 2.84718 9.34776 2.84962 9.34848C2.85205 9.34921 2.85449 9.34986 2.85696 9.35045C2.85944 9.35103 2.86191 9.35157 2.8644 9.35204C2.86688 9.35248 2.86938 9.35288 2.8719 9.35323C2.8744 9.35356 2.87691 9.35381 2.87944 9.35402C2.88196 9.35423 2.88448 9.35437 2.88701 9.35444L21.9402 9.35444C21.9427 9.35437 21.9452 9.35423 21.9477 9.35402C21.9503 9.35381 21.9528 9.35356 21.9553 9.35323C21.9578 9.3529 21.9603 9.3525 21.9628 9.35204C21.9653 9.35157 21.9678 9.35103 21.9702 9.35045C21.9727 9.34986 21.9751 9.34921 21.9776 9.34848C21.98 9.34776 21.9824 9.34698 21.9848 9.34614C21.9872 9.3453 21.9896 9.34439 21.992 9.34343C21.9943 9.34247 21.9967 9.34144 21.999 9.34034C22.0013 9.33927 22.0036 9.33812 22.0058 9.33691C22.0081 9.33571 22.0103 9.33445 22.0125 9.33312C22.0147 9.33181 22.0169 9.33043 22.019 9.329C22.0211 9.32758 22.0233 9.32608 22.0253 9.32454C22.0274 9.32299 22.0294 9.3214 22.0314 9.31977C22.0334 9.31811 22.0354 9.31642 22.0373 9.31467C22.0392 9.31292 22.0411 9.31112 22.0429 9.30927C22.0447 9.30742 22.0465 9.30555 22.0483 9.30361C22.05 9.30167 22.0517 9.29968 22.0534 9.29765C22.055 9.29564 22.0566 9.29358 22.0582 9.29145C22.0597 9.28935 22.0613 9.2872 22.0627 9.28502C22.0642 9.28282 22.0656 9.2806 22.0669 9.27836C22.0683 9.27609 22.0696 9.2738 22.0709 9.27146C22.0721 9.26915 22.0733 9.26678 22.0744 9.2644C22.0756 9.26199 22.0767 9.25958 22.0777 9.25715C22.0788 9.25469 22.0797 9.25224 22.0806 9.24974C22.0815 9.24724 22.0824 9.24471 22.0833 9.24216C22.084 9.23961 22.0847 9.23706 22.0855 9.23449C22.0862 9.23192 22.0868 9.22933 22.0872 9.22671C22.0878 9.22409 22.0883 9.22147 22.0888 9.21883C22.0892 9.21618 22.0896 9.21354 22.0901 9.2109C22.0904 9.20823 22.0906 9.20557 22.0908 9.2029C22.0909 9.20021 22.0911 9.19755 22.0912 9.19488C22.0913 9.19219 22.0913 9.18953 22.0912 9.18684L22.0912 4.17666C22.0912 4.17123 22.091 4.16583 22.0905 4.16043C22.0901 4.15503 22.0894 4.14965 22.0885 4.14432C22.0875 4.13899 22.0863 4.13373 22.085 4.12851C22.0836 4.1233 22.0819 4.11815 22.0799 4.1131C22.0782 4.10805 22.0761 4.10312 22.0738 4.09828C22.0714 4.09344 22.0689 4.08871 22.0663 4.08413C22.0635 4.07955 22.0605 4.07511 22.0574 4.07083C22.0543 4.06652 22.051 4.06239 22.0475 4.05843C22.044 4.05462 22.0404 4.05102 22.0366 4.04761C22.0327 4.04419 22.0288 4.04099 22.0247 4.03802C22.0206 4.03503 22.0163 4.03227 22.0119 4.02974C22.0075 4.0272 22.003 4.0249 21.9985 4.02287C21.9938 4.02081 21.9892 4.01901 21.9844 4.01745C21.9796 4.0159 21.9748 4.01462 21.9699 4.01359C21.965 4.01254 21.9601 4.01176 21.9551 4.01127C21.9501 4.01076 21.9452 4.01052 21.9402 4.01055L19.0192 4.01055C19.0143 4.01052 19.0093 4.01076 19.0043 4.01127C18.9993 4.01176 18.9944 4.01254 18.9895 4.01359C18.9846 4.01462 18.9798 4.0159 18.975 4.01745C18.9702 4.01901 18.9656 4.02081 18.961 4.02285C18.9564 4.0249 18.9519 4.0272 18.9475 4.02974C18.9431 4.03227 18.9389 4.03503 18.9348 4.03802C18.9307 4.04099 18.9267 4.04419 18.9229 4.04761C18.9191 4.05102 18.9154 4.05462 18.9119 4.05843C18.9085 4.06239 18.9051 4.06652 18.902 4.07083C18.8989 4.07511 18.896 4.07955 18.8932 4.08413C18.8905 4.08871 18.888 4.09344 18.8857 4.09828C18.8834 4.10312 18.8813 4.10805 18.8794 4.1131C18.8775 4.11815 18.8759 4.1233 18.8745 4.12851C18.8731 4.13373 18.8719 4.13899 18.8709 4.14432C18.87 4.14965 18.8693 4.15503 18.8688 4.16043C18.8684 4.16583 18.8682 4.17123 18.8682 4.17666L18.8682 4.89945C18.8685 4.91374 18.8684 4.928 18.868 4.94229C18.8677 4.95657 18.8669 4.97081 18.8659 4.98505C18.8649 4.99929 18.8635 5.01351 18.8618 5.02768C18.8601 5.04183 18.8581 5.05595 18.8557 5.07003C18.8534 5.08408 18.8507 5.09808 18.8477 5.112C18.8447 5.12591 18.8413 5.13975 18.8377 5.1535C18.8341 5.16725 18.8301 5.1809 18.8258 5.19444C18.8215 5.20798 18.817 5.2214 18.8121 5.23471C18.8072 5.24801 18.802 5.2612 18.7964 5.27422C18.791 5.28725 18.7852 5.30013 18.779 5.31287C18.773 5.32562 18.7666 5.33817 18.7598 5.35057C18.7532 5.36298 18.7462 5.37519 18.7389 5.38723C18.7317 5.39927 18.7242 5.4111 18.7163 5.42275C18.7086 5.43439 18.7005 5.44583 18.6922 5.45705C18.6838 5.46827 18.6753 5.47926 18.6664 5.49004C18.6576 5.50082 18.6485 5.51137 18.6391 5.52168C18.6298 5.53199 18.6203 5.54204 18.6105 5.55184C18.6007 5.56164 18.5906 5.5712 18.5804 5.58049C18.5702 5.58977 18.5597 5.59877 18.5491 5.60752C18.5384 5.61626 18.5276 5.62472 18.5165 5.63291C18.5055 5.64107 18.4943 5.64895 18.4828 5.65655C18.4714 5.66415 18.4598 5.67144 18.4481 5.67843C18.4364 5.68543 18.4244 5.69209 18.4124 5.69847C18.4003 5.70483 18.3881 5.71089 18.3758 5.71662C18.3634 5.72235 18.351 5.72777 18.3384 5.73284C18.3258 5.73792 18.3131 5.74269 18.3003 5.74711C18.2875 5.75153 18.2746 5.75562 18.2616 5.75938C18.2486 5.76315 18.2355 5.76656 18.2223 5.76963C18.2092 5.77269 18.1959 5.77542 18.1827 5.77781C18.1694 5.78017 18.1561 5.78221 18.1427 5.78391C18.1293 5.7856 18.1159 5.78693 18.1024 5.78793C18.089 5.78892 18.0755 5.78955 18.0621 5.78985C18.0486 5.78955 18.0351 5.78892 18.0217 5.78793C18.0082 5.78693 17.9948 5.7856 17.9814 5.78391C17.968 5.78221 17.9547 5.78017 17.9414 5.77781C17.9281 5.77542 17.9149 5.77269 17.9017 5.76963C17.8885 5.76656 17.8755 5.76315 17.8625 5.75938C17.8494 5.75564 17.8365 5.75155 17.8237 5.74713C17.8109 5.74271 17.7982 5.73794 17.7856 5.73287C17.773 5.72779 17.7605 5.72237 17.7481 5.71664C17.7358 5.71091 17.7236 5.70486 17.7115 5.6985C17.6995 5.69214 17.6875 5.68545 17.6758 5.67846C17.664 5.67147 17.6524 5.66419 17.641 5.65659C17.6296 5.649 17.6183 5.64112 17.6073 5.63296C17.5962 5.62479 17.5853 5.61633 17.5747 5.60759C17.564 5.59884 17.5536 5.58984 17.5433 5.58056C17.5331 5.57127 17.523 5.56171 17.5132 5.55191C17.5034 5.54211 17.4938 5.53208 17.4845 5.52177C17.4751 5.51146 17.4661 5.50094 17.4572 5.49016C17.4483 5.47938 17.4397 5.46837 17.4314 5.45714C17.4231 5.44592 17.415 5.43449 17.4071 5.42286C17.3993 5.41122 17.3918 5.39939 17.3845 5.38735C17.3772 5.37531 17.3703 5.36308 17.3635 5.35068C17.3568 5.33829 17.3504 5.32573 17.3443 5.31299C17.3382 5.30025 17.3324 5.28736 17.3268 5.27434C17.3213 5.26132 17.3161 5.24813 17.3112 5.23482C17.3063 5.22152 17.3017 5.2081 17.2973 5.19456C17.2931 5.18102 17.2891 5.16737 17.2854 5.15359C17.2818 5.13984 17.2784 5.126 17.2754 5.11209C17.2724 5.09815 17.2697 5.08415 17.2673 5.0701C17.2649 5.05604 17.2629 5.04192 17.2612 5.02773C17.2594 5.01356 17.258 4.99934 17.257 4.9851C17.2559 4.97086 17.2552 4.9566 17.2548 4.94231C17.2544 4.92802 17.2543 4.91374 17.2545 4.89945L17.2545 4.17666C17.2546 4.17123 17.2543 4.16583 17.2539 4.16043C17.2534 4.15503 17.2527 4.14965 17.2518 4.14432C17.2508 4.13899 17.2497 4.13373 17.2482 4.12851C17.2468 4.1233 17.2452 4.11815 17.2433 4.1131C17.2415 4.10805 17.2394 4.10312 17.237 4.09828C17.2347 4.09344 17.2322 4.08871 17.2295 4.08413C17.2268 4.07955 17.2238 4.07511 17.2207 4.07083C17.2176 4.06652 17.2143 4.06239 17.2108 4.05843C17.2073 4.0546 17.2037 4.05095 17.1999 4.04751C17.1961 4.04408 17.1922 4.04085 17.188 4.03783C17.1839 4.03482 17.1797 4.03206 17.1753 4.02951C17.171 4.02696 17.1665 4.02467 17.1618 4.02261C17.1573 4.02056 17.1526 4.01875 17.1478 4.01721C17.143 4.01567 17.1382 4.01438 17.1333 4.01338C17.1283 4.01237 17.1234 4.01162 17.1184 4.01116C17.1135 4.01066 17.1085 4.01048 17.1035 4.01055L7.72795 4.01055C7.72543 4.01062 7.72294 4.01076 7.72042 4.01097C7.71791 4.01118 7.71542 4.01144 7.71292 4.01176C7.71043 4.01209 7.70794 4.01249 7.70547 4.01293C7.703 4.0134 7.70055 4.01391 7.69808 4.0145C7.69563 4.01508 7.6932 4.01574 7.69078 4.01644C7.68835 4.01716 7.68595 4.01794 7.68356 4.01875C7.68118 4.0196 7.6788 4.02048 7.67646 4.02144C7.67412 4.0224 7.67178 4.02341 7.66949 4.02448C7.6672 4.02556 7.66492 4.0267 7.66267 4.0279C7.66042 4.02909 7.65822 4.03033 7.65601 4.03164C7.65383 4.03295 7.65167 4.0343 7.64955 4.03573C7.64741 4.03716 7.64533 4.03863 7.64326 4.04015C7.64121 4.04167 7.63918 4.04324 7.6372 4.04487C7.63521 4.04649 7.63327 4.04817 7.63135 4.0499C7.62943 4.05163 7.62758 4.05341 7.62572 4.05523C7.62392 4.05708 7.62213 4.05895 7.62036 4.06087C7.61862 4.06278 7.61695 4.06475 7.61527 4.06674C7.61364 4.06875 7.61203 4.0708 7.61046 4.07288C7.60889 4.07497 7.60737 4.07709 7.60592 4.07927C7.60446 4.08144 7.60305 4.08364 7.60168 4.08586C7.60031 4.08811 7.59901 4.09037 7.59775 4.09269C7.5965 4.09498 7.59528 4.09732 7.59414 4.09968C7.59299 4.10204 7.59191 4.10445 7.59085 4.10688C7.58981 4.10929 7.58882 4.11175 7.58789 4.11422C7.58697 4.1167 7.58611 4.11921 7.58527 4.12171C7.58445 4.12423 7.5837 4.12678 7.583 4.12933C7.58231 4.13188 7.58167 4.13447 7.58108 4.13707C7.5805 4.13966 7.57997 4.14226 7.57951 4.14488C7.57905 4.1475 7.57865 4.15012 7.57832 4.15276C7.57799 4.1554 7.5777 4.15804 7.57748 4.16069C7.57726 4.16335 7.57711 4.16602 7.577 4.16866C7.57691 4.17132 7.57686 4.17399 7.57689 4.17666L7.57689 4.89945C7.57693 4.91392 7.57664 4.92837 7.57603 4.94283C7.57541 4.9573 7.57448 4.97173 7.57322 4.98613C7.57197 5.00053 7.57038 5.01489 7.56848 5.02922C7.56659 5.04356 7.56433 5.05784 7.5618 5.07206C7.55926 5.08625 7.55639 5.1004 7.55322 5.11448C7.55004 5.12855 7.54656 5.14253 7.54274 5.15642C7.53895 5.17034 7.53482 5.18413 7.53039 5.19781C7.52597 5.21149 7.52125 5.22507 7.5162 5.23852C7.51117 5.25196 7.50586 5.26529 7.50021 5.27846C7.49459 5.29164 7.48867 5.30467 7.48245 5.31755C7.47623 5.33043 7.46972 5.34315 7.46295 5.35571C7.45616 5.36827 7.4491 5.38064 7.44175 5.39284C7.43441 5.40502 7.42682 5.41704 7.41892 5.42885C7.41105 5.44066 7.40291 5.45228 7.3945 5.46369C7.3861 5.4751 7.37745 5.48628 7.36854 5.49724C7.35965 5.50821 7.35052 5.51897 7.34112 5.52947C7.33197 5.53968 7.32257 5.54964 7.31293 5.55935C7.30331 5.56905 7.29343 5.5785 7.28335 5.58766C7.27327 5.59685 7.26299 5.60574 7.25247 5.61437C7.24197 5.62299 7.23125 5.63132 7.22033 5.63936C7.20943 5.64741 7.19831 5.65515 7.18704 5.6626C7.17577 5.67006 7.1643 5.67719 7.15267 5.68402C7.14107 5.69085 7.12927 5.69737 7.11733 5.70357C7.1054 5.70977 7.09331 5.71564 7.08109 5.72118C7.06889 5.72672 7.05654 5.73193 7.04408 5.73682C7.03161 5.74171 7.01902 5.74624 7.00633 5.75045C6.99367 5.75466 6.98088 5.75852 6.968 5.76203C6.95514 5.76556 6.94219 5.76871 6.92917 5.77154C6.91614 5.77435 6.90306 5.7768 6.88991 5.77893C6.87678 5.78106 6.86361 5.78281 6.85038 5.78422C6.83714 5.78562 6.82389 5.78667 6.81063 5.78735C6.79735 5.78805 6.78407 5.78838 6.77077 5.78835C6.75729 5.788 6.74381 5.78733 6.73036 5.7863C6.7169 5.78524 6.70349 5.78386 6.69008 5.78214C6.67669 5.78038 6.66336 5.7783 6.65006 5.77587C6.63676 5.77346 6.62355 5.77068 6.61036 5.76757C6.59721 5.76446 6.58413 5.761 6.57111 5.75719C6.5581 5.7534 6.5452 5.74926 6.53238 5.74479C6.51956 5.74033 6.50686 5.73553 6.49426 5.73041C6.48167 5.72529 6.4692 5.71982 6.45685 5.71405C6.44452 5.70827 6.43232 5.70219 6.42025 5.69578C6.40819 5.68935 6.3963 5.68264 6.38454 5.67563C6.37281 5.66859 6.3612 5.66127 6.3498 5.65363C6.33839 5.646 6.32717 5.63808 6.31611 5.62987C6.30509 5.62166 6.29423 5.61317 6.28356 5.60441C6.27292 5.59564 6.26247 5.58659 6.25223 5.57726C6.242 5.56793 6.23198 5.55837 6.22219 5.54852C6.21239 5.53868 6.20284 5.5286 6.19351 5.51826C6.18418 5.50793 6.17511 5.49736 6.16627 5.48656C6.15745 5.47573 6.14886 5.46472 6.14053 5.45347C6.13221 5.44223 6.12416 5.43074 6.11635 5.41908C6.10856 5.40741 6.10104 5.39553 6.09378 5.38349C6.08653 5.37142 6.07958 5.35917 6.07289 5.34676C6.06621 5.33434 6.05981 5.32174 6.0537 5.30899C6.04761 5.29623 6.04181 5.28332 6.0363 5.27027C6.03081 5.2572 6.0256 5.24401 6.0207 5.23069C6.01583 5.21736 6.01124 5.20391 6.00696 5.19035C6.0027 5.17679 5.99875 5.16313 5.99509 5.14936C5.99145 5.13559 5.98814 5.12172 5.98514 5.10779C5.98214 5.09383 5.97947 5.07982 5.97711 5.06575C5.97478 5.05167 5.97275 5.03755 5.97105 5.02335C5.96935 5.00916 5.96796 4.99494 5.96692 4.98068C5.96591 4.96642 5.9652 4.95213 5.96481 4.93784C5.96443 4.92356 5.96439 4.90925 5.96465 4.89496L5.96465 4.17666ZM6.52936 16.6587C6.53088 16.6608 6.53245 16.6629 6.53406 16.665C6.53569 16.667 6.53734 16.669 6.53904 16.671C6.54074 16.6729 6.5425 16.6749 6.54429 16.6767C6.5461 16.6786 6.54795 16.6804 6.54983 16.6821C6.55172 16.6839 6.55364 16.6856 6.55561 16.6873C6.55757 16.6889 6.5596 16.6905 6.56163 16.6921C6.56368 16.6937 6.56575 16.6952 6.56787 16.6966C6.56999 16.698 6.57215 16.6994 6.57431 16.7008C6.5765 16.7021 6.5787 16.7034 6.58095 16.7046C6.5832 16.7058 6.58545 16.7069 6.58775 16.708C6.59006 16.7091 6.59238 16.7101 6.59472 16.7111C6.59708 16.7121 6.59944 16.7129 6.60182 16.7138C6.6042 16.7146 6.60661 16.7154 6.60903 16.7161C6.61146 16.7168 6.61391 16.7175 6.61636 16.718C6.61883 16.7186 6.6213 16.7191 6.62377 16.7196C6.62624 16.72 6.62873 16.7204 6.63122 16.7207C6.63372 16.721 6.63623 16.7213 6.63875 16.7215C6.64124 16.7216 6.64375 16.7218 6.64627 16.7218C6.64878 16.7218 6.6513 16.7218 6.65381 16.7217C6.65633 16.7216 6.65884 16.7215 6.66136 16.7213C6.66385 16.7211 6.66636 16.7208 6.66886 16.7204C6.67135 16.72 6.67382 16.7196 6.67629 16.7191C6.67878 16.7186 6.68125 16.7181 6.68368 16.7175C6.68613 16.7168 6.68856 16.7161 6.69096 16.7154C6.69339 16.7146 6.69579 16.7138 6.69815 16.713C6.70053 16.7121 6.70287 16.7111 6.70521 16.7101C6.70755 16.7091 6.70984 16.7081 6.71211 16.7069C6.71441 16.7058 6.71666 16.7046 6.71889 16.7034C6.72111 16.7021 6.7233 16.7008 6.72546 16.6994C6.72762 16.6981 6.72974 16.6966 6.73183 16.6952C6.73393 16.6937 6.73598 16.6922 6.73801 16.6906C6.74002 16.689 6.742 16.6874 6.74395 16.6857L10.3016 13.5745C10.3035 13.5728 10.3055 13.5711 10.3075 13.5695C10.3094 13.5679 10.3115 13.5664 10.3135 13.5649C10.3156 13.5635 10.3177 13.562 10.3199 13.5606C10.322 13.5593 10.3242 13.558 10.3264 13.5567C10.3286 13.5555 10.3308 13.5543 10.333 13.5531C10.3353 13.552 10.3376 13.5509 10.3399 13.5499C10.3422 13.5489 10.3446 13.548 10.3469 13.5471C10.3493 13.5462 10.3516 13.5454 10.354 13.5447C10.3564 13.544 10.3588 13.5433 10.3613 13.5426C10.3637 13.542 10.3661 13.5415 10.3686 13.541C10.371 13.5405 10.3735 13.5401 10.376 13.5398C10.3785 13.5394 10.381 13.5391 10.3834 13.5389C10.3859 13.5387 10.3884 13.5386 10.3909 13.5385C10.3934 13.5384 10.3959 13.5384 10.3984 13.5385C10.4009 13.5385 10.4034 13.5386 10.4059 13.5389C10.4084 13.5391 10.4108 13.5393 10.4133 13.5397C10.4158 13.54 10.4183 13.5404 10.4207 13.5408C10.4232 13.5413 10.4257 13.5418 10.4281 13.5425C10.4305 13.543 10.4329 13.5437 10.4353 13.5444C10.4377 13.5452 10.4401 13.546 10.4425 13.5469C10.4448 13.5477 10.4472 13.5486 10.4495 13.5496C10.4518 13.5506 10.4541 13.5517 10.4564 13.5528C10.4586 13.5539 10.4609 13.5551 10.4631 13.5563C10.4653 13.5576 10.4675 13.5588 10.4696 13.5602C10.4717 13.5616 10.4738 13.563 10.4759 13.5645C10.478 13.5659 10.48 13.5675 10.482 13.569C10.484 13.5706 10.486 13.5722 10.4879 13.574C10.4898 13.5756 10.4917 13.5774 10.4935 13.5792C10.4954 13.581 10.4972 13.5828 10.4989 13.5847C10.5007 13.5866 10.5024 13.5885 10.504 13.5905C10.5057 13.5925 10.5073 13.5945 10.5089 13.5966C10.5104 13.5987 10.5119 13.6008 10.5134 13.6029L11.3265 14.7387C11.3281 14.7409 11.3296 14.7431 11.331 14.7453C11.3325 14.7476 11.3339 14.7499 11.3352 14.7522C11.3366 14.7545 11.3379 14.7568 11.3391 14.7592C11.3404 14.7615 11.3416 14.764 11.3427 14.7664C11.3438 14.7688 11.3449 14.7713 11.3459 14.7738C11.347 14.7763 11.3479 14.7788 11.3488 14.7813C11.3498 14.7838 11.3506 14.7864 11.3514 14.789C11.3522 14.7915 11.3529 14.7941 11.3536 14.7968C11.3543 14.7994 11.3549 14.802 11.3555 14.8047C11.3561 14.8073 11.3566 14.8099 11.357 14.8126C11.3575 14.8153 11.3579 14.818 11.3582 14.8207C11.3585 14.8234 11.3588 14.8261 11.359 14.8288C11.3592 14.8315 11.3594 14.8342 11.3594 14.8369C11.3595 14.8396 11.3596 14.8423 11.3595 14.845C11.3595 14.8478 11.3594 14.8505 11.3592 14.8532C11.3591 14.8559 11.3589 14.8586 11.3586 14.8613C11.3583 14.864 11.358 14.8666 11.3576 14.8693C11.3572 14.872 11.3567 14.8747 11.3562 14.8774C11.3557 14.88 11.3551 14.8826 11.3545 14.8853C11.3539 14.8879 11.3532 14.8905 11.3524 14.8931C11.3517 14.8957 11.3509 14.8983 11.35 14.9009C11.3491 14.9034 11.3482 14.9059 11.3472 14.9084C11.3463 14.9109 11.3452 14.9134 11.3441 14.9159C11.3431 14.9183 11.3419 14.9208 11.3407 14.9232C11.3395 14.9256 11.3383 14.9279 11.337 14.9303C11.3357 14.9326 11.3343 14.9349 11.3329 14.9372C11.3315 14.9395 11.3301 14.9417 11.3285 14.9439C11.327 14.9461 11.3255 14.9482 11.3239 14.9504C11.3223 14.9525 11.3206 14.9545 11.3189 14.9566C11.3173 14.9586 11.3155 14.9606 11.3137 14.9626C11.312 14.9645 11.3101 14.9664 11.3082 14.9683C11.3064 14.9701 11.3045 14.9719 11.3025 14.9737L6.35995 19.2955L6.35712 19.2925L4.44559 16.6243C4.44409 16.6221 4.44261 16.6199 4.4412 16.6177C4.43979 16.6155 4.43845 16.6132 4.43712 16.6109C4.4358 16.6086 4.43454 16.6062 4.43333 16.6039C4.43214 16.6015 4.43097 16.5991 4.42986 16.5967C4.42876 16.5942 4.4277 16.5918 4.42671 16.5893C4.42574 16.5868 4.42479 16.5843 4.42391 16.5818C4.42303 16.5792 4.42219 16.5767 4.42142 16.5741C4.42067 16.5716 4.41994 16.569 4.41928 16.5664C4.41864 16.5638 4.41804 16.5612 4.41749 16.5585C4.41696 16.5559 4.41647 16.5532 4.41603 16.5506C4.41564 16.5479 4.41526 16.5453 4.41495 16.5426C4.41464 16.5399 4.4144 16.5372 4.41422 16.5345C4.41405 16.5318 4.41392 16.5292 4.41385 16.5265C4.41378 16.5238 4.41378 16.5211 4.41383 16.5184C4.41387 16.5157 4.41398 16.513 4.41416 16.5103C4.41434 16.5076 4.41458 16.505 4.41486 16.5023C4.41515 16.4996 4.4155 16.4969 4.4159 16.4942C4.41632 16.4916 4.41678 16.489 4.41731 16.4863C4.41784 16.4837 4.41844 16.4811 4.41908 16.4784C4.41972 16.4758 4.42042 16.4732 4.42117 16.4707C4.42192 16.4681 4.42274 16.4656 4.42362 16.463C4.4245 16.4605 4.42543 16.458 4.4264 16.4555C4.42737 16.453 4.42841 16.4505 4.42951 16.4481C4.43061 16.4457 4.43174 16.4433 4.43293 16.4409C4.43414 16.4385 4.4354 16.4362 4.43668 16.4338C4.438 16.4315 4.43935 16.4293 4.44074 16.427C4.44215 16.4248 4.44361 16.4226 4.44511 16.4204C4.44661 16.4182 4.44815 16.4161 4.44974 16.414C4.45135 16.4119 4.453 16.4098 4.45468 16.4078C4.45636 16.4058 4.4581 16.4038 4.45986 16.4019C4.46165 16.3999 4.46346 16.3981 4.46531 16.3962C4.46717 16.3944 4.46906 16.3926 4.471 16.3909L5.49877 15.49C5.50071 15.4883 5.50267 15.4866 5.50466 15.4851C5.50669 15.4835 5.50872 15.482 5.51079 15.4805C5.51286 15.479 5.51498 15.4776 5.51712 15.4762C5.51928 15.4748 5.52147 15.4735 5.52367 15.4723C5.52588 15.4711 5.52813 15.4699 5.53038 15.4687C5.53265 15.4676 5.53492 15.4666 5.53724 15.4656C5.53958 15.4646 5.54192 15.4636 5.54425 15.4627C5.54664 15.4619 5.549 15.461 5.5514 15.4603C5.55381 15.4596 5.55623 15.4589 5.55866 15.4582C5.56109 15.4576 5.56353 15.4571 5.56598 15.4566C5.56845 15.4561 5.57092 15.4557 5.57339 15.4553C5.57586 15.455 5.57836 15.4547 5.58085 15.4545C5.58334 15.4542 5.58583 15.4541 5.58833 15.454C5.59084 15.4539 5.59334 15.4539 5.59583 15.4539C5.59834 15.454 5.60086 15.4541 5.60333 15.4543C5.60584 15.4545 5.60834 15.4547 5.61081 15.455C5.6133 15.4553 5.61577 15.4557 5.61822 15.4562C5.62069 15.4566 5.62316 15.4571 5.62559 15.4577C5.62803 15.4583 5.63046 15.4589 5.63286 15.4596C5.63529 15.4603 5.63767 15.4611 5.64003 15.4619C5.64242 15.4628 5.64478 15.4637 5.64709 15.4647C5.64943 15.4656 5.65175 15.4666 5.65402 15.4677C5.65629 15.4688 5.65856 15.47 5.66077 15.4712C5.66302 15.4724 5.6652 15.4736 5.66736 15.475C5.66953 15.4763 5.67167 15.4777 5.67376 15.4791C5.67586 15.4806 5.67793 15.482 5.67996 15.4836C5.68199 15.4852 5.684 15.4867 5.68594 15.4884C5.68788 15.4901 5.6898 15.4918 5.69167 15.4935C5.69355 15.4953 5.69536 15.4971 5.69714 15.499C5.69893 15.5008 5.70067 15.5027 5.70237 15.5047C5.70407 15.5066 5.7057 15.5086 5.70729 15.5107C5.7089 15.5127 5.71045 15.5148 5.71195 15.5169L6.52795 16.6602L6.52936 16.6587Z"></path></g></g><defs><rect id="path_0" x="0" y="0" width="24" height="24.000000000000014" rx="0" ry="0"/></defs></svg>