<?xml version="1.0" standalone="no"?><!DOCTYPE svg PUBLIC "-//W3C//DTD SVG 1.1//EN" "http://www.w3.org/Graphics/SVG/1.1/DTD/svg11.dtd"><svg t="1706171999487" class="icon" viewBox="0 0 1024 1024" version="1.1" xmlns="http://www.w3.org/2000/svg" p-id="25340" id="mx_n_1706171999488" xmlns:xlink="http://www.w3.org/1999/xlink" width="200" height="200"><path d="M512 512m-512 0a512 512 0 1 0 1024 0 512 512 0 1 0-1024 0Z" fill="#FFB100" p-id="25341"></path><path d="M645.973333 709.290667v-51.2h-212.48c25.258667-39.253333 63.146667-76.458667 113.664-111.616 72.021333-46.421333 104.96-93.866667 98.816-142.336-5.461333-72.704-48.981333-110.592-130.56-113.664-81.237333-0.682667-131.584 36.352-151.04 111.104l56.832 16.384c11.605333-51.882667 39.424-77.824 83.456-77.824 50.517333 0.682667 76.288 24.234667 77.312 70.656 5.461333 29.013333-25.941333 67.925333-94.208 116.736-55.296 41.642667-97.962667 89.088-128 142.336v39.424h286.208z" fill="#FFFFFF" p-id="25342"></path></svg>